<svg xmlns="http://www.w3.org/2000/svg" xmlns:xlink="http://www.w3.org/1999/xlink" width="1241.82" height="774.068" viewBox="0 0 1241.82 774.068">
  <defs>
    <clipPath id="clip-path">
      <rect id="長方形_186" data-name="長方形 186" width="1241.82" height="774.068" fill="none"/>
    </clipPath>
  </defs>
  <g id="グループ_350" data-name="グループ 350" clip-path="url(#clip-path)">
    <g id="グループ_349" data-name="グループ 349">
      <g id="グループ_348" data-name="グループ 348" clip-path="url(#clip-path)">
        <g id="グループ_347" data-name="グループ 347" opacity="0.8">
          <g id="グループ_346" data-name="グループ 346">
            <g id="グループ_345" data-name="グループ 345" clip-path="url(#clip-path)">
              <path id="パス_1170" data-name="パス 1170" d="M27.186,189.568h.92l13.822,23.7,13.363,22.907-.46.789-13.822-23.7Z" transform="translate(1159.344)" fill="#66cbe4"/>
              <path id="パス_1171" data-name="パス 1171" d="M165.872,94.784l13.823,23.7,13.822,23.7h-55.29l13.822-23.7Z" transform="translate(910.076)" fill="#66cbe4"/>
              <path id="パス_1172" data-name="パス 1172" d="M110.581,284.352H55.291l13.823-23.7,13.823-23.7,13.822,23.7Z" transform="translate(1075.948)" fill="#66cbe4"/>
              <path id="パス_1173" data-name="パス 1173" d="M110.581,189.568l13.823,23.7,13.822,23.7H82.936l13.822-23.7Z" transform="translate(1020.658)" fill="#66cbe4"/>
              <path id="パス_1174" data-name="パス 1174" d="M221.163,94.784H165.872l13.823-23.7,13.823-23.7,13.822,23.7Z" transform="translate(854.785)" fill="#66cbe4"/>
              <path id="パス_1175" data-name="パス 1175" d="M110.581,94.784l13.823,23.7,13.822,23.7H82.936l13.822-23.7Z" transform="translate(1020.658)" fill="#66cbe4"/>
              <path id="パス_1176" data-name="パス 1176" d="M165.872,94.784H110.581l13.823-23.7,13.823-23.7,13.822,23.7Z" transform="translate(965.367)" fill="#66cbe4"/>
              <path id="パス_1177" data-name="パス 1177" d="M359.389,47.392l13.823,23.7,13.822,23.7h-55.29l13.822-23.7Z" transform="translate(523.042)" fill="#66cbe4"/>
              <path id="パス_1178" data-name="パス 1178" d="M193.517,426.527H138.226l13.823-23.7,13.823-23.7,13.822,23.7Z" transform="translate(910.076)" fill="#66cbe4"/>
              <path id="パス_1179" data-name="パス 1179" d="M55.291,284.352l13.823,23.7,13.822,23.7H27.646l13.822-23.7Z" transform="translate(1131.239)" fill="#66cbe4"/>
              <path id="パス_1180" data-name="パス 1180" d="M27.645,142.176l13.823-23.7,13.822-23.7,13.823,23.7,13.823,23.7H27.645Z" transform="translate(1131.239)" fill="#66cbe4"/>
              <path id="パス_1181" data-name="パス 1181" d="M0,94.784l13.823-23.7,13.822-23.7,13.823,23.7,13.823,23.7H0Z" transform="translate(1186.53)" fill="#66cbe4"/>
              <path id="パス_1182" data-name="パス 1182" d="M27.645,189.568H0l13.822-23.7,13.823-23.7,13.823,23.7,13.822,23.7H27.645Z" transform="translate(1186.529)" fill="#66cbe4"/>
              <path id="パス_1183" data-name="パス 1183" d="M55.291,473.919l-13.823-23.7-13.822-23.7h55.29l-13.822,23.7Z" transform="translate(1131.239)" fill="#66cbe4"/>
              <path id="パス_1184" data-name="パス 1184" d="M55.291,379.135l-13.823,23.7-13.822,23.7-13.823-23.7L0,379.135H55.291Z" transform="translate(1186.529)" fill="#66cbe4"/>
              <path id="パス_1185" data-name="パス 1185" d="M248.807,331.744l-13.823-23.7-13.822-23.7h55.29l-13.822,23.7Z" transform="translate(744.205)" fill="#66cbe4"/>
              <path id="パス_1186" data-name="パス 1186" d="M110.581,284.352l-13.823,23.7-13.822,23.7-13.823-23.7-13.823-23.7h55.291Z" transform="translate(1075.948)" fill="#66cbe4"/>
              <path id="パス_1187" data-name="パス 1187" d="M27.645,331.744l-13.823-23.7L0,284.352H55.29l-13.822,23.7Z" transform="translate(1186.529)" fill="#66cbe4"/>
              <path id="パス_1188" data-name="パス 1188" d="M193.517,236.96l-13.823,23.7-13.822,23.7-13.823-23.7-13.823-23.7h55.291Z" transform="translate(910.076)" fill="#66cbe4"/>
              <path id="パス_1189" data-name="パス 1189" d="M82.936,236.96l-13.823,23.7-13.822,23.7-13.823-23.7-13.823-23.7H82.936Z" transform="translate(1131.238)" fill="#66cbe4"/>
              <path id="パス_1190" data-name="パス 1190" d="M13.823,260.656,0,236.96H27.646v47.392Z" transform="translate(1214.175)" fill="#66cbe4"/>
              <path id="パス_1191" data-name="パス 1191" d="M331.744,189.568l-13.823,23.7L304.1,236.96l-13.823-23.7-13.823-23.7h55.291Z" transform="translate(633.623)" fill="#66cbe4"/>
              <path id="パス_1192" data-name="パス 1192" d="M110.581,189.568h55.291l-13.823,23.7-13.823,23.7-13.822-23.7Z" transform="translate(965.367)" fill="#66cbe4"/>
              <path id="パス_1193" data-name="パス 1193" d="M27.645,236.96l-.46-.789L13.822,213.264,0,189.568H54.37v1.577l-12.9,22.119Z" transform="translate(1187.449)" fill="#66cbe4"/>
              <path id="パス_1194" data-name="パス 1194" d="M304.1,142.176l-13.823,23.7-13.822,23.7-13.823-23.7-13.823-23.7H304.1Z" transform="translate(688.914)" fill="#66cbe4"/>
              <path id="パス_1195" data-name="パス 1195" d="M221.162,189.568l-13.823-23.7-13.822-23.7h55.29l-13.822,23.7Z" transform="translate(799.495)" fill="#66cbe4"/>
              <path id="パス_1196" data-name="パス 1196" d="M193.517,142.176l-13.823,23.7-13.822,23.7-13.823-23.7-13.823-23.7h55.291Z" transform="translate(910.076)" fill="#66cbe4"/>
              <path id="パス_1197" data-name="パス 1197" d="M27.645,142.176H82.936l-13.823,23.7-13.823,23.7-13.822-23.7Z" transform="translate(1131.239)" fill="#66cbe4"/>
              <path id="パス_1198" data-name="パス 1198" d="M0,142.176H27.645v47.392l-13.822-23.7Z" transform="translate(1214.174)" fill="#66cbe4"/>
              <path id="パス_1199" data-name="パス 1199" d="M331.744,94.784l-13.823,23.7-13.822,23.7-13.823-23.7-13.823-23.7h55.291Z" transform="translate(633.623)" fill="#66cbe4"/>
              <path id="パス_1200" data-name="パス 1200" d="M221.163,94.784l-13.823,23.7-13.822,23.7-13.823-23.7-13.823-23.7h55.291Z" transform="translate(854.785)" fill="#66cbe4"/>
              <path id="パス_1201" data-name="パス 1201" d="M110.581,94.784h55.291l-13.823,23.7-13.823,23.7L124.4,118.48Z" transform="translate(965.367)" fill="#66cbe4"/>
              <path id="パス_1202" data-name="パス 1202" d="M27.645,142.176l-13.823-23.7L0,94.784H55.29l-13.822,23.7Z" transform="translate(1186.529)" fill="#66cbe4"/>
              <path id="パス_1203" data-name="パス 1203" d="M414.68,47.392l-13.823,23.7-13.822,23.7-13.823-23.7-13.823-23.7H414.68Z" transform="translate(467.751)" fill="#66cbe4"/>
              <path id="パス_1204" data-name="パス 1204" d="M276.453,94.784l-13.823-23.7-13.822-23.7H304.1l-13.822,23.7Z" transform="translate(688.914)" fill="#66cbe4"/>
              <path id="パス_1205" data-name="パス 1205" d="M221.162,94.784l-13.823-23.7-13.822-23.7h55.29l-13.822,23.7Z" transform="translate(799.495)" fill="#66cbe4"/>
              <path id="パス_1206" data-name="パス 1206" d="M165.872,94.784l-13.823-23.7-13.822-23.7h55.29l-13.822,23.7Z" transform="translate(910.076)" fill="#66cbe4"/>
              <path id="パス_1207" data-name="パス 1207" d="M138.227,47.392,124.4,71.088l-13.822,23.7-13.823-23.7-13.823-23.7h55.291Z" transform="translate(1020.657)" fill="#66cbe4"/>
              <path id="パス_1208" data-name="パス 1208" d="M27.645,47.392H82.936l-13.823,23.7L55.29,94.784l-13.822-23.7Z" transform="translate(1131.239)" fill="#66cbe4"/>
              <path id="パス_1209" data-name="パス 1209" d="M0,47.392H27.645V94.784l-13.822-23.7Z" transform="translate(1214.174)" fill="#66cbe4"/>
              <path id="パス_1210" data-name="パス 1210" d="M414.679,47.392,400.856,23.7,387.034,0h55.29L428.5,23.7Z" transform="translate(412.461)" fill="#66cbe4"/>
              <path id="パス_1211" data-name="パス 1211" d="M304.1,47.392,290.275,23.7,276.453,0h55.29L317.921,23.7Z" transform="translate(633.624)" fill="#66cbe4"/>
              <path id="パス_1212" data-name="パス 1212" d="M276.453,0,262.63,23.7l-13.822,23.7L234.985,23.7,221.162,0h55.291Z" transform="translate(744.204)" fill="#66cbe4"/>
              <path id="パス_1213" data-name="パス 1213" d="M138.226,47.392,124.4,23.7,110.581,0h55.29L152.049,23.7Z" transform="translate(965.367)" fill="#66cbe4"/>
              <path id="パス_1214" data-name="パス 1214" d="M82.936,47.392,69.113,23.7,55.291,0h55.29L96.759,23.7Z" transform="translate(1075.948)" fill="#66cbe4"/>
              <path id="パス_1215" data-name="パス 1215" d="M27.645,47.392,13.822,23.7,0,0H55.29L41.468,23.7Z" transform="translate(1186.529)" fill="#66cbe4"/>
              <path id="パス_1216" data-name="パス 1216" d="M165.872,94.784l13.823,23.7,13.822,23.7h-55.29l13.822-23.7Z" transform="translate(910.076)" fill="#d9f2f8"/>
              <path id="パス_1217" data-name="パス 1217" d="M110.581,284.352H55.291l13.823-23.7,13.823-23.7,13.822,23.7Z" transform="translate(1075.948)" fill="#b5e6f2"/>
              <path id="パス_1218" data-name="パス 1218" d="M110.581,189.568l13.823,23.7,13.822,23.7H82.936l13.822-23.7Z" transform="translate(1020.658)" fill="#6dcde5"/>
              <path id="パス_1219" data-name="パス 1219" d="M221.163,94.784H165.872l13.823-23.7,13.823-23.7,13.822,23.7Z" transform="translate(854.785)" fill="#6dcde5"/>
              <path id="パス_1220" data-name="パス 1220" d="M110.581,94.784l13.823,23.7,13.822,23.7H82.936l13.822-23.7Z" transform="translate(1020.658)" fill="#f4fbfd"/>
              <path id="パス_1221" data-name="パス 1221" d="M165.872,94.784H110.581l13.823-23.7,13.823-23.7,13.822,23.7Z" transform="translate(965.367)" fill="#6dcde5"/>
              <path id="パス_1222" data-name="パス 1222" d="M359.389,47.392l13.823,23.7,13.822,23.7h-55.29l13.822-23.7Z" transform="translate(523.042)" fill="#d9f2f8"/>
              <path id="パス_1223" data-name="パス 1223" d="M193.517,426.527H138.226l13.823-23.7,13.823-23.7,13.822,23.7Z" transform="translate(910.076)" fill="#d9f2f8"/>
              <path id="パス_1224" data-name="パス 1224" d="M55.291,284.352l13.823,23.7,13.822,23.7H27.646l13.822-23.7Z" transform="translate(1131.239)" fill="#6dcde5"/>
              <path id="パス_1225" data-name="パス 1225" d="M27.645,142.176l13.823-23.7,13.822-23.7,13.823,23.7,13.823,23.7H27.645Z" transform="translate(1131.239)" fill="#b5e6f2"/>
              <path id="パス_1226" data-name="パス 1226" d="M0,94.784l13.823-23.7,13.822-23.7,13.823,23.7,13.823,23.7H0Z" transform="translate(1186.53)" fill="#b5e6f2"/>
              <path id="パス_1227" data-name="パス 1227" d="M27.645,189.568H0l13.822-23.7,13.823-23.7,13.823,23.7,13.822,23.7H27.645Z" transform="translate(1186.529)" fill="#2bb7d9"/>
              <path id="パス_1228" data-name="パス 1228" d="M55.291,473.919l-13.823-23.7-13.822-23.7h55.29l-13.822,23.7Z" transform="translate(1131.239)" fill="#f4fbfd"/>
              <path id="パス_1229" data-name="パス 1229" d="M55.291,379.135l-13.823,23.7-13.822,23.7-13.823-23.7L0,379.135H55.291Z" transform="translate(1186.529)" fill="#d9f2f8"/>
              <path id="パス_1230" data-name="パス 1230" d="M248.807,331.744l-13.823-23.7-13.822-23.7h55.29l-13.822,23.7Z" transform="translate(744.205)" fill="#f4fbfd"/>
              <path id="パス_1231" data-name="パス 1231" d="M110.581,284.352l-13.823,23.7-13.822,23.7-13.823-23.7-13.823-23.7h55.291Z" transform="translate(1075.948)" fill="#d9f2f8"/>
              <path id="パス_1232" data-name="パス 1232" d="M27.645,331.744l-13.823-23.7L0,284.352H55.29l-13.822,23.7Z" transform="translate(1186.529)" fill="#2bb7d9"/>
              <path id="パス_1233" data-name="パス 1233" d="M193.517,236.96l-13.823,23.7-13.822,23.7-13.823-23.7-13.823-23.7h55.291Z" transform="translate(910.076)" fill="#6dcde5"/>
              <path id="パス_1234" data-name="パス 1234" d="M82.936,236.96l-13.823,23.7-13.822,23.7-13.823-23.7-13.823-23.7H82.936Z" transform="translate(1131.238)" fill="#eaf8fb"/>
              <path id="パス_1235" data-name="パス 1235" d="M13.823,260.656,0,236.96H27.646v47.392Z" transform="translate(1214.175)" fill="#b5e6f2"/>
              <path id="パス_1236" data-name="パス 1236" d="M331.744,189.568l-13.823,23.7L304.1,236.96l-13.823-23.7-13.823-23.7h55.291Z" transform="translate(633.623)" fill="#eaf8fb"/>
              <path id="パス_1237" data-name="パス 1237" d="M110.581,189.568h55.291l-13.823,23.7-13.823,23.7-13.822-23.7Z" transform="translate(965.367)" fill="#2bb7d9"/>
              <path id="パス_1238" data-name="パス 1238" d="M27.645,236.96l-.46-.789L13.822,213.264,0,189.568H54.37v1.577l-12.9,22.119Z" transform="translate(1187.449)" fill="#b5e6f2"/>
              <path id="パス_1239" data-name="パス 1239" d="M304.1,142.176l-13.823,23.7-13.822,23.7-13.823-23.7-13.823-23.7H304.1Z" transform="translate(688.914)" fill="#6dcde5"/>
              <path id="パス_1240" data-name="パス 1240" d="M221.162,189.568l-13.823-23.7-13.822-23.7h55.29l-13.822,23.7Z" transform="translate(799.495)" fill="#d9f2f8"/>
              <path id="パス_1241" data-name="パス 1241" d="M193.517,142.176l-13.823,23.7-13.822,23.7-13.823-23.7-13.823-23.7h55.291Z" transform="translate(910.076)" fill="#6dcde5"/>
              <path id="パス_1242" data-name="パス 1242" d="M27.645,142.176H82.936l-13.823,23.7-13.823,23.7-13.822-23.7Z" transform="translate(1131.239)" fill="#6dcde5"/>
              <path id="パス_1243" data-name="パス 1243" d="M0,142.176H27.645v47.392l-13.822-23.7Z" transform="translate(1214.174)" fill="#6dcde5"/>
              <path id="パス_1244" data-name="パス 1244" d="M331.744,94.784l-13.823,23.7-13.822,23.7-13.823-23.7-13.823-23.7h55.291Z" transform="translate(633.623)" fill="#d9f2f8"/>
              <path id="パス_1245" data-name="パス 1245" d="M221.163,94.784l-13.823,23.7-13.822,23.7-13.823-23.7-13.823-23.7h55.291Z" transform="translate(854.785)" fill="#b5e6f2"/>
              <path id="パス_1246" data-name="パス 1246" d="M110.581,94.784h55.291l-13.823,23.7-13.823,23.7L124.4,118.48Z" transform="translate(965.367)" fill="#b5e6f2"/>
              <path id="パス_1247" data-name="パス 1247" d="M27.645,142.176l-13.823-23.7L0,94.784H55.29l-13.822,23.7Z" transform="translate(1186.529)" fill="#d9f2f8"/>
              <path id="パス_1248" data-name="パス 1248" d="M414.68,47.392l-13.823,23.7-13.822,23.7-13.823-23.7-13.823-23.7H414.68Z" transform="translate(467.751)" fill="#f4fbfd"/>
              <path id="パス_1249" data-name="パス 1249" d="M276.453,94.784l-13.823-23.7-13.822-23.7H304.1l-13.822,23.7Z" transform="translate(688.914)" fill="#6dcde5"/>
              <path id="パス_1250" data-name="パス 1250" d="M221.162,94.784l-13.823-23.7-13.822-23.7h55.29l-13.822,23.7Z" transform="translate(799.495)" fill="#2bb7d9"/>
              <path id="パス_1251" data-name="パス 1251" d="M165.872,94.784l-13.823-23.7-13.822-23.7h55.29l-13.822,23.7Z" transform="translate(910.076)" fill="#b5e6f2"/>
              <path id="パス_1252" data-name="パス 1252" d="M138.227,47.392,124.4,71.088l-13.822,23.7-13.823-23.7-13.823-23.7h55.291Z" transform="translate(1020.657)" fill="#2bb7d9"/>
              <path id="パス_1253" data-name="パス 1253" d="M27.645,47.392H82.936l-13.823,23.7L55.29,94.784l-13.822-23.7Z" transform="translate(1131.239)" fill="#6dcde5"/>
              <path id="パス_1254" data-name="パス 1254" d="M0,47.392H27.645V94.784l-13.822-23.7Z" transform="translate(1214.174)" fill="#d9f2f8"/>
              <path id="パス_1255" data-name="パス 1255" d="M414.679,47.392,400.856,23.7,387.034,0h55.29L428.5,23.7Z" transform="translate(412.461)" fill="#d9f2f8"/>
              <path id="パス_1256" data-name="パス 1256" d="M304.1,47.392,290.275,23.7,276.453,0h55.29L317.921,23.7Z" transform="translate(633.624)" fill="#d9f2f8"/>
              <path id="パス_1257" data-name="パス 1257" d="M276.453,0,262.63,23.7l-13.822,23.7L234.985,23.7,221.162,0h55.291Z" transform="translate(744.204)" fill="#2bb7d9"/>
              <path id="パス_1258" data-name="パス 1258" d="M138.226,47.392,124.4,23.7,110.581,0h55.29L152.049,23.7Z" transform="translate(965.367)" fill="#b5e6f2"/>
              <path id="パス_1259" data-name="パス 1259" d="M82.936,47.392,69.113,23.7,55.291,0h55.29L96.759,23.7Z" transform="translate(1075.948)" fill="#6dcde5"/>
              <path id="パス_1260" data-name="パス 1260" d="M27.645,47.392,13.822,23.7,0,0H55.29L41.468,23.7Z" transform="translate(1186.529)" fill="#b5e6f2"/>
            </g>
          </g>
        </g>
      </g>
    </g>
  </g>
</svg>
