<svg id="三角" xmlns="http://www.w3.org/2000/svg" width="165.871" height="142.176" viewBox="0 0 165.871 142.176">
  <path id="パス_1152" data-name="パス 1152" d="M165.872,94.784l-13.823,23.7-13.822,23.7h55.29l-13.822-23.7Z" transform="translate(-82.936 -47.392)" fill="#d9f2f8"/>
  <path id="パス_1153" data-name="パス 1153" d="M165.872,94.784h55.291l-13.823-23.7-13.823-23.7-13.822,23.7Z" transform="translate(-82.936 -47.392)" fill="#6dcde5"/>
  <path id="パス_1154" data-name="パス 1154" d="M110.581,94.784h55.291l-13.823-23.7-13.823-23.7L124.4,71.088Z" transform="translate(-82.936 -47.392)" fill="#6dcde5"/>
  <path id="パス_1155" data-name="パス 1155" d="M138.226,142.176l13.823,23.7,13.822,23.7,13.823-23.7,13.823-23.7H138.226Z" transform="translate(-82.936 -47.392)" fill="#6dcde5"/>
  <path id="パス_1156" data-name="パス 1156" d="M165.872,94.784l13.823,23.7,13.822,23.7,13.823-23.7,13.823-23.7H165.872Z" transform="translate(-82.936 -47.392)" fill="#b5e6f2"/>
  <path id="パス_1157" data-name="パス 1157" d="M165.872,94.784H110.581l13.823,23.7,13.823,23.7,13.822-23.7Z" transform="translate(-82.936 -47.392)" fill="#b5e6f2"/>
  <path id="パス_1158" data-name="パス 1158" d="M221.162,94.784l13.823-23.7,13.822-23.7h-55.29l13.822,23.7Z" transform="translate(-82.936 -47.392)" fill="#2bb7d9"/>
  <path id="パス_1159" data-name="パス 1159" d="M165.872,94.784l13.823-23.7,13.822-23.7h-55.29l13.822,23.7Z" transform="translate(-82.936 -47.392)" fill="#b5e6f2"/>
  <path id="パス_1160" data-name="パス 1160" d="M82.936,47.392l13.823,23.7,13.822,23.7,13.823-23.7,13.823-23.7H82.936Z" transform="translate(-82.936 -47.392)" fill="#2bb7d9"/>
</svg>
