<svg xmlns="http://www.w3.org/2000/svg" xmlns:xlink="http://www.w3.org/1999/xlink" width="459.405" height="288.069" viewBox="0 0 459.405 288.069"><defs><clipPath id="a"><rect width="351.31" height="206.285" fill="none"/></clipPath><clipPath id="b"><path d="M6.8,0H185.431a6.8,6.8,0,0,1,6.8,6.8V128.518a6.795,6.795,0,0,1-6.795,6.795H6.795A6.795,6.795,0,0,1,0,128.518V6.8A6.8,6.8,0,0,1,6.8,0Z" transform="translate(8.711 8.712)" fill="none"/></clipPath><clipPath id="d"><rect width="154.404" height="133.568" fill="none"/></clipPath></defs><g transform="translate(-1030.595 -373.202)"><g transform="translate(1138.69 373.202)"><path d="M83.24,136.54,75.5,161.727h68.915l-10.841-25.96Z" fill="#fff"/><path d="M83.24,136.54,75.5,161.727h68.915l-10.841-25.96Z" fill="none" stroke="#131d34" stroke-linecap="round" stroke-linejoin="round" stroke-width="2.473"/><g clip-path="url(#a)"><path d="M194.142,144.025H15.506a6.8,6.8,0,0,1-6.795-6.795V15.507a6.8,6.8,0,0,1,6.795-6.8H194.142a6.8,6.8,0,0,1,6.795,6.8V137.23a6.8,6.8,0,0,1-6.795,6.795" fill="#fff"/></g><g clip-path="url(#b)"><rect width="215.263" height="135.507" fill="#131d34"/></g><g clip-path="url(#a)"><path d="M6.795,0H185.431a6.795,6.795,0,0,1,6.795,6.795V128.518a6.8,6.8,0,0,1-6.8,6.8H6.795A6.795,6.795,0,0,1,0,128.519V6.795A6.795,6.795,0,0,1,6.795,0Z" transform="translate(8.711 8.711)" fill="none" stroke="#131d34" stroke-linecap="round" stroke-linejoin="round" stroke-width="2.473"/><rect width="136.734" height="84.567" transform="translate(39.222 30.372)" fill="#fff"/><rect width="136.734" height="84.567" transform="translate(39.222 30.372)" fill="none" stroke="#131d34" stroke-linecap="round" stroke-linejoin="round" stroke-width="3.438"/><path d="M72.786,90.429c-4.03,7.822-6.4,24.889-6.4,24.889H98.149l-4.03-17.3s5.926,1.422,8.06.948,5.689-5.214,5.689-5.214L103.6,90.192l-3.318,2.844-10.9-5.451Z" fill="#131d34"/><path d="M72.786,90.429c-4.03,7.822-6.4,24.889-6.4,24.889H98.149l-4.03-17.3s5.926,1.422,8.06.948,5.689-5.214,5.689-5.214L103.6,90.192l-3.318,2.844-10.9-5.451Z" fill="none" stroke="#131d34" stroke-linecap="round" stroke-linejoin="round" stroke-width="1.676"/><path d="M58.417,66.314c-3.165-3.165-6.517.186-4.841,4.1a9.269,9.269,0,0,0,5.213,5.027" fill="#fff"/><path d="M58.417,66.314c-3.165-3.165-6.517.186-4.841,4.1a9.269,9.269,0,0,0,5.213,5.027" fill="none" stroke="#131d34" stroke-miterlimit="10" stroke-width="1.608"/><path d="M102.579,66.047c3.165-3.165,6.517.186,4.841,4.1a9.269,9.269,0,0,1-5.213,5.027" fill="#fff"/><path d="M102.579,66.047c3.165-3.165,6.517.186,4.841,4.1a9.269,9.269,0,0,1-5.213,5.027" fill="none" stroke="#131d34" stroke-miterlimit="10" stroke-width="1.608"/><path d="M57.5,66.754c.088,14.092,9.325,23.827,22.546,23.827s23.714-8.694,23.5-24.9c-.232-17.561-10.434-24.772-23.1-24.373-16.617.523-23.037,11.35-22.949,25.442" fill="#fff"/><path d="M57.5,66.754c.088,14.092,9.325,23.827,22.546,23.827s23.714-8.694,23.5-24.9c-.232-17.561-10.434-24.772-23.1-24.373C63.835,41.835,57.415,52.662,57.5,66.754Z" fill="none" stroke="#131d34" stroke-miterlimit="10" stroke-width="1.608"/><path d="M70.522,66.661c-2.317-.089-2.049,4.188.089,4.188s2.228-4.1-.089-4.188" fill="#131d34"/><path d="M91.195,66.661c-2.317-.089-2.049,4.188.089,4.188s2.228-4.1-.089-4.188" fill="#131d34"/><path d="M75.334,45.168a96.342,96.342,0,0,1-11.9,5.614" fill="none" stroke="#fff" stroke-linecap="round" stroke-linejoin="round" stroke-width="0.402"/><path d="M89.549,49.178c1,3.39-4.686,8.375-11.267,8.275,1.1-1.2,3.989-7.577,3.989-7.577a47.381,47.381,0,0,1-15.056,9.472s2.493-6.282,3.49-8.575c-6.182,6.381-13.061,13.361-13.061,13.361S59.638,41.6,80.974,41.6s22.633,18.744,22.434,23.33c-7.677-5.583-13.859-15.753-13.859-15.753" fill="#131d34"/><path d="M89.549,49.178c1,3.39-4.686,8.375-11.267,8.275,1.1-1.2,3.989-7.577,3.989-7.577a47.381,47.381,0,0,1-15.056,9.472s2.493-6.282,3.49-8.575c-6.182,6.381-13.061,13.361-13.061,13.361S59.638,41.6,80.974,41.6s22.633,18.744,22.434,23.33C95.731,59.348,89.549,49.178,89.549,49.178Z" fill="none" stroke="#131d34" stroke-linecap="round" stroke-linejoin="round" stroke-width="1.676"/><path d="M74.1,76.8c1.6,4.586,13.061,4.885,14.357-.2" fill="#fff"/><path d="M74.1,76.8c1.6,4.586,13.061,4.885,14.357-.2" fill="none" stroke="#131d34" stroke-linecap="round" stroke-linejoin="round" stroke-width="1.206"/><path d="M77.161,65.791c-3.674-1.52-11.023-1.014-13.051,0s-.126,5.7,1.774,6.589,7.856.76,9.757-.127S79.822,66.678,77.161,65.791Z" fill="none" stroke="#131d34" stroke-linecap="round" stroke-linejoin="round" stroke-width="0.864"/><path d="M84.636,65.791c3.674-1.52,11.023-1.014,13.051,0s.126,5.7-1.774,6.589-7.856.76-9.757-.127S81.975,66.678,84.636,65.791Z" fill="none" stroke="#131d34" stroke-linecap="round" stroke-linejoin="round" stroke-width="0.864"/><line x2="4.815" transform="translate(78.428 67.184)" fill="none" stroke="#131d34" stroke-linecap="round" stroke-linejoin="round" stroke-width="0.864"/><rect width="52.386" height="49.067" transform="translate(111.897 50.607)" fill="#d0d2d6"/><path d="M103.6,90.192c2.844-6.163,8.059-4.267,8.3-1.422s-4.029,4.978-4.029,4.978Z" fill="#fff"/><path d="M103.6,90.192c2.844-6.163,8.059-4.267,8.3-1.422s-4.029,4.978-4.029,4.978Z" fill="none" stroke="#131d34" stroke-miterlimit="10" stroke-width="1.608"/><path d="M145.555,169.531l75.573-1.053,16.589,10.8.263,3.16-83.219.278-9.48-8.69Z" fill="#fff"/><path d="M145.555,169.531l75.573-1.053,16.589,10.8.263,3.16-83.219.278-9.48-8.69Z" fill="none" stroke="#131d34" stroke-linecap="round" stroke-linejoin="round" stroke-width="2.473"/><path d="M227.761,172.46s-6.021-6.16-12.88-5.513-8.238,5.946-5.354,8.427,15.923,3.542,15.923,3.542Z" fill="#fff"/><path d="M227.761,172.46s-6.021-6.16-12.88-5.513-8.238,5.946-5.354,8.427,15.923,3.542,15.923,3.542Z" fill="none" stroke="#131d34" stroke-linecap="round" stroke-linejoin="round" stroke-width="3.224"/><path d="M302.865,204.042s-1.1-42.935-10.085-61.53S259.885,144,259.885,144c-6.344,6.867-11.545,18.371-11.545,18.371L238.1,169.774l-11.5-.472-2.049,11.661s10.086,2.206,16.389,2.364a51.639,51.639,0,0,0,8.982-.316L246.5,204.042Z" fill="#131d34"/><path d="M302.865,204.042s-1.1-42.935-10.085-61.53S259.885,144,259.885,144c-6.344,6.867-11.545,18.371-11.545,18.371L238.1,169.774l-11.5-.472-2.049,11.661s10.086,2.206,16.389,2.364a51.639,51.639,0,0,0,8.982-.316L246.5,204.042Z" fill="none" stroke="#131d34" stroke-linecap="round" stroke-linejoin="round" stroke-width="0.766"/><path d="M332.322,98.012c8.011-43.443-13.638-66.219-45.075-71.424-41.255-6.83-66.536,12.9-68.326,51.936-.7,15.235-10.575,11.944-7.046,30.053s18.138,32.4,48.22,36.088c10.933,1.34,33.264-.278,47.19-9.81s22.389-22.48,25.037-36.843" fill="#fff"/><path d="M332.322,98.012c8.011-43.443-13.638-66.219-45.075-71.424-41.255-6.83-66.536,12.9-68.326,51.936-.7,15.235-10.575,11.944-7.046,30.053s18.138,32.4,48.22,36.088c10.933,1.34,33.264-.278,47.19-9.81S329.674,112.375,332.322,98.012Z" fill="none" stroke="#131d34" stroke-linecap="round" stroke-linejoin="round" stroke-width="3.224"/><path d="M227.719,120.242c6.58,7.346,19.435,2.03,18.866-5.14" fill="#fff"/><path d="M227.719,120.242c6.58,7.346,19.435,2.03,18.866-5.14" fill="none" stroke="#131d34" stroke-linecap="round" stroke-linejoin="round" stroke-width="2.17"/><path d="M229.374,80.587c-4.834-.983-4.108,9.464-.394,9.771s5.228-8.788.394-9.771" fill="#131d34"/><path d="M276.956,24.767S238.5,20.178,224.177,54.281c10.819-4.608,28.8-10.572,28.8-10.572s3.234,22.3,20.417,38.792l13.849,38.923,24.733,11.261s3.724-3.6,6.944-7.125c7.488-8.195,18.086-24.587,14.565-55.986-5.034-44.9-56.528-44.807-56.528-44.807" fill="#131d34"/><path d="M267.1,48.094c2.6,14.546,7.22,21.894,7.22,21.894" fill="none" stroke="#fff" stroke-linecap="round" stroke-linejoin="round" stroke-width="0.886"/><path d="M269.957,83.032c6.044-7.584,15.373-2.708,13.232,5.043s-8.773,12.191-14.309,11.1" fill="#fff"/><path d="M269.957,83.032c6.044-7.584,15.373-2.708,13.232,5.043s-8.773,12.191-14.309,11.1" fill="none" stroke="#131d34" stroke-linecap="round" stroke-linejoin="round" stroke-width="3.411"/><path d="M274.7,204.8c.432-30.666,29.555-45.862,58.3-39.712,20.211,4.324,18.675,25.459,13.492,39.712" fill="#fff"/><path d="M274.7,204.8c.432-30.666,29.555-45.862,58.3-39.712,20.211,4.324,18.675,25.459,13.492,39.712" fill="none" stroke="#131d34" stroke-linecap="round" stroke-linejoin="round" stroke-width="2.96"/><path d="M285.815,200.267c1.891-17.019,19.961-29.671,37-30.591,16.529-.893,24.015,3.479,26.73,11.964" fill="none" stroke="#131d34" stroke-linecap="round" stroke-linejoin="round" stroke-width="2.17"/></g></g><g transform="translate(1030.595 527.703)"><g clip-path="url(#d)"><path d="M142.816,50.882c6.229-1.3,13.495-7.785,17.388-4.931s4.412,31.142-17.907,37.89" transform="translate(-9.637 -3.063)" fill="#fff"/><path d="M142.816,50.882c6.229-1.3,13.495-7.785,17.388-4.931s4.412,31.142-17.907,37.89" transform="translate(-9.637 -3.063)" fill="none" stroke="#131d34" stroke-linecap="round" stroke-linejoin="round" stroke-width="3.797"/><path d="M28.464,71.907c2.855-10.251,6.488-35.035,41.932-44.9,38.039-10.583,72.832,9.772,76.147,46.6C150,112.039,122.6,126.44,100.134,130.86s-39.892.974-57.093-6.229-28.664-20.694-28.664-20.694-6.348,5.81-10.685.446,5.145-12.1,5.145-12.1-6.481-9.272-1.868-12.2c7.335-4.658,10.94,7.47,10.94,7.47A68.125,68.125,0,0,1,28.464,71.907" transform="translate(-0.173 -1.64)" fill="#fff"/><path d="M28.464,71.907c2.855-10.251,6.488-35.035,41.932-44.9,38.039-10.583,72.832,9.772,76.147,46.6C150,112.039,122.6,126.44,100.134,130.86s-39.892.974-57.093-6.229-28.664-20.694-28.664-20.694-6.348,5.81-10.685.446,5.145-12.1,5.145-12.1-6.481-9.272-1.868-12.2c7.335-4.658,10.94,7.47,10.94,7.47A68.125,68.125,0,0,1,28.464,71.907Z" transform="translate(-0.173 -1.64)" fill="none" stroke="#131d34" stroke-linecap="round" stroke-linejoin="round" stroke-width="5.112"/><path d="M71.968,56.253l5.16,3.687L70.7,62.605" transform="translate(-4.788 -3.81)" fill="none" stroke="#131d34" stroke-linecap="round" stroke-linejoin="round" stroke-width="2.506"/><path d="M77.678,8.408l4.37,20.622L39.419,44.382,29.006,25.863Z" transform="translate(-1.964 -0.569)" fill="#2bb8d9"/><path d="M77.678,8.408l4.37,20.622L39.419,44.382,29.006,25.863Z" transform="translate(-1.964 -0.569)" fill="none" stroke="#131d34" stroke-linecap="round" stroke-linejoin="round" stroke-width="4.323"/><path d="M87.783,2.161,57.431,29.954l-42.568.268,30.665-27.7Z" transform="translate(-1.007 -0.146)" fill="#2bb8d9"/><path d="M87.783,2.161,57.431,29.954l-42.568.268,30.665-27.7Z" transform="translate(-1.007 -0.146)" fill="none" stroke="#131d34" stroke-linecap="round" stroke-linejoin="round" stroke-width="4.323"/><path d="M58.192,16.736l-8.348,3.689,1.673-8.431Z" transform="translate(-3.376 -0.812)" fill="#fff"/><path d="M103.9,61.938c-1,3.088-7.789,2.983-7.026-2.955.048,5.773-7.434,6.123-8.394,2.912" transform="translate(-5.992 -3.995)" fill="#fff"/><path d="M103.9,61.938c-1,3.088-7.789,2.983-7.026-2.955.048,5.773-7.434,6.123-8.394,2.912" transform="translate(-5.992 -3.995)" fill="none" stroke="#131d34" stroke-linecap="round" stroke-linejoin="round" stroke-width="2.162"/><path d="M96.59,54.8c-9.634-.224-4.126,5.312.282,5.319s8.352-5.249-.282-5.319" transform="translate(-6.18 -3.711)" fill="#131d34"/><path d="M100.607,64.549c-1.039,5.132-3.517,7.206-7.008,7.176s-4.613-4.051-3.851-7.689" transform="translate(-6.063 -4.337)" fill="none" stroke="#131d34" stroke-linecap="round" stroke-linejoin="round" stroke-width="2.162"/><path d="M120.7,53.055c4.844.173,4.672,7.612,0,7.612s-4.844-7.785,0-7.612" transform="translate(-7.932 -3.593)" fill="#131d34"/><path d="M85.306,82.8c17.4-1,26.079-7.481,29.17-5.925s1.177,22.287-14.415,31.406" transform="translate(-5.777 -5.19)" fill="#fff"/><path d="M85.306,82.8c17.4-1,26.079-7.481,29.17-5.925s1.177,22.287-14.415,31.406" transform="translate(-5.777 -5.19)" fill="none" stroke="#131d34" stroke-linecap="round" stroke-linejoin="round" stroke-width="3.797"/></g></g></g></svg>