<svg xmlns="http://www.w3.org/2000/svg" xmlns:xlink="http://www.w3.org/1999/xlink" width="479.175" height="427.086" viewBox="0 0 479.175 427.086"><defs><linearGradient id="a" x1="28.068" y1="-37.178" x2="29.068" y2="-37.178" gradientUnits="objectBoundingBox"><stop offset="0" stop-color="#d4f1f8"/><stop offset="1" stop-color="#2bb7d9"/></linearGradient><linearGradient id="b" y1="0.5" x2="1" y2="0.5" gradientUnits="objectBoundingBox"><stop offset="0" stop-color="#028bcf"/><stop offset="1" stop-color="#36abff"/></linearGradient><linearGradient id="c" x1="0.294" y1="1" x2="0.534" y2="0.111" gradientUnits="objectBoundingBox"><stop offset="0" stop-color="#0775c6"/><stop offset="1" stop-color="#2bb7d9"/></linearGradient><linearGradient id="d" x1="0.5" y1="0" x2="0.5" y2="1" xlink:href="#c"/><linearGradient id="e" x1="0.792" y1="1.556" x2="-0.737" y2="-3.978" xlink:href="#c"/></defs><g transform="translate(243.644 213.543)"><g transform="translate(-244.268 -213.543)"><ellipse cx="20.306" cy="20.306" rx="20.306" ry="20.306" transform="translate(354.01 339.499) rotate(-9.705)" fill="url(#a)"/><g transform="translate(37.919)"><path d="M113.124,358.928a52.029,52.029,0,0,1-45.085-77.995L214.808,26.065A51.5,51.5,0,0,1,259.839,0h.06a51.5,51.5,0,0,1,45.028,25.965L452.264,280.5a52.031,52.031,0,0,1-44.973,78.1l-294.107.327Zm294.164-4.133,0,1.9,0-1.9a48.224,48.224,0,0,0,41.682-72.383L301.632,27.871A47.735,47.735,0,0,0,259.9,3.806h-.057a47.735,47.735,0,0,0-41.736,24.159L71.337,282.832a48.223,48.223,0,0,0,41.787,72.289h.057Z" transform="translate(-61.014)" fill="url(#b)"/></g><path d="M204.127,402.231l-40.048-149.2-40.048-149.2c-10.509-39.151,25.3-75,64.464-64.521L337.728,79.23l149.233,39.916c39.16,10.474,52.3,59.413,23.645,88.088L401.421,316.516,292.236,425.8C263.585,454.474,214.636,441.381,204.127,402.231Z" transform="translate(-46.246 -14.184)" fill="url(#c)"/><ellipse cx="26.137" cy="26.137" rx="26.137" ry="26.137" transform="translate(9.843 196.129) rotate(-80.783)" fill="url(#d)"/><ellipse cx="13.068" cy="13.068" rx="13.068" ry="13.068" transform="translate(0.624 220.154)" fill="url(#e)"/></g></g></svg>