<svg xmlns="http://www.w3.org/2000/svg" xmlns:xlink="http://www.w3.org/1999/xlink" width="13.599" height="13.599" viewBox="0 0 13.599 13.599">
  <defs>
    <clipPath id="clip-path">
      <path id="パス_128" data-name="パス 128" d="M0,0H13.6V13.6H0Z" fill="#2bb7d9"/>
    </clipPath>
  </defs>
  <g id="マスクグループ_1" data-name="マスクグループ 1" clip-path="url(#clip-path)">
    <path id="パス_127" data-name="パス 127" d="M11.607,1.991a6.8,6.8,0,1,0,0,9.615,6.8,6.8,0,0,0,0-9.615M9.627,6.918c-.158.12-4.4,3.415-4.4,3.415a.16.16,0,0,1-.139-.176V9.333c1.264-.981,3.054-2.372,3.152-2.45a.1.1,0,0,0,.013-.165c-.034-.032-3.165-2.453-3.165-2.453V3.443a.162.162,0,0,1,.139-.178L9.631,6.686a.136.136,0,0,1,0,.232" transform="translate(0 0)" fill="#2bb7d9"/>
  </g>
</svg>
