<svg xmlns="http://www.w3.org/2000/svg" width="196.293" height="41.196" viewBox="0 0 196.293 41.196">
  <g id="header-logo" transform="translate(-208.914 -298.754)">
    <path id="パス_2" data-name="パス 2" d="M227.753,356.034a.7.7,0,0,1-.732-.488l-6.345-12.932h-5.71a.259.259,0,0,0-.293.293v12.64a.461.461,0,0,1-.488.488H209.4a.462.462,0,0,1-.488-.488V323.335a.461.461,0,0,1,.488-.488h12.835c6.1,0,10.59,4.051,10.59,9.907a9.44,9.44,0,0,1-6.3,9.126l6.982,13.519a.392.392,0,0,1-.341.634Zm-.634-23.279c0-2.88-2.05-4.734-5.075-4.734h-7.076a.259.259,0,0,0-.293.292v8.834a.259.259,0,0,0,.293.292h7.076c3.029,0,5.079-1.853,5.079-4.684Z" transform="translate(0 -16.629)" fill="#fff"/>
    <path id="パス_3" data-name="パス 3" d="M311.339,375.562a.461.461,0,0,1-.488-.488v-1.709H310.8c-1.122,1.61-3.319,2.733-6.637,2.733-4.294,0-7.906-2.244-7.906-7.174,0-5.124,3.611-7.467,9.418-7.467h4.787a.258.258,0,0,0,.293-.292v-1.123c0-2.684-1.269-3.9-5.222-3.9a8.248,8.248,0,0,0-5.368,1.611.438.438,0,0,1-.683-.1l-1.806-3.221a.455.455,0,0,1,.1-.634,13.728,13.728,0,0,1,8.345-2.294c7.174,0,9.809,2.44,9.809,8.2v15.372a.461.461,0,0,1-.488.488Zm-.586-7.906V365.85a.259.259,0,0,0-.293-.292h-3.9c-3.514,0-5.075.976-5.075,3.172,0,1.952,1.415,2.929,4.051,2.929,3.368,0,5.222-1.32,5.222-4Z" transform="translate(-59.523 -36.157)" fill="#fff"/>
    <path id="パス_4" data-name="パス 4" d="M1.528,0h2.41A1.528,1.528,0,0,1,5.466,1.528V21.995a1.528,1.528,0,0,1-1.528,1.528H1.529A1.529,1.529,0,0,1,0,21.994V1.528A1.528,1.528,0,0,1,1.528,0Z" transform="translate(261.836 315.881)" fill="#fff"/>
    <path id="パス_5" data-name="パス 5" d="M406.884,372.389a.472.472,0,0,1,0-.683l2.782-2.929a.472.472,0,0,1,.683,0,10.888,10.888,0,0,0,6.883,2.684c2.88,0,4.343-1.171,4.343-2.782,0-1.415-.83-2.294-3.9-2.586l-2.538-.244c-4.783-.488-7.223-2.928-7.223-6.93,0-4.539,3.27-7.418,9.126-7.418a14.264,14.264,0,0,1,8.833,2.88.483.483,0,0,1,.1.683l-2.394,2.88a.478.478,0,0,1-.683.1,11.355,11.355,0,0,0-6.148-1.952c-2.342,0-3.563,1.024-3.563,2.44,0,1.367.83,2.195,3.855,2.489l2.538.244c4.929.488,7.272,3.025,7.272,6.883,0,4.688-3.417,7.955-9.858,7.955A14.586,14.586,0,0,1,406.884,372.389Z" transform="translate(-135.169 -36.157)" fill="#fff"/>
    <path id="パス_6" data-name="パス 6" d="M480.962,369.555a18.24,18.24,0,0,1-.83-5.759,18.747,18.747,0,0,1,.781-5.808c1.318-4.1,4.93-6.491,9.614-6.491,4.832,0,8.345,2.494,9.663,6.491.537,1.659.781,3.27.781,7.076a.476.476,0,0,1-.537.488H485.939a.258.258,0,0,0-.292.292,5.469,5.469,0,0,0,5.612,5.369,7.091,7.091,0,0,0,5.515-2.244.5.5,0,0,1,.732-.1l2.88,2.538a.437.437,0,0,1,.049.683,12.4,12.4,0,0,1-9.663,4C485.793,376.1,482.28,373.657,480.962,369.555Zm14.2-10.392a5.027,5.027,0,0,0-9.224,0,5.972,5.972,0,0,0-.292,2,.258.258,0,0,0,.292.292h9.224a.258.258,0,0,0,.292-.292,5.971,5.971,0,0,0-.292-2Z" transform="translate(-185.323 -36.157)" fill="#fff"/>
    <path id="パス_7" data-name="パス 7" d="M554.824,356.034a.461.461,0,0,1-.488-.488V328.314a.259.259,0,0,0-.292-.292h-8.687a.461.461,0,0,1-.488-.489v-4.2a.462.462,0,0,1,.488-.488h23.719a.461.461,0,0,1,.488.488v4.2a.461.461,0,0,1-.488.489h-8.687a.26.26,0,0,0-.292.292v27.232a.462.462,0,0,1-.488.488Z" transform="translate(-229.57 -16.629)" fill="#fff"/>
    <path id="パス_8" data-name="パス 8" d="M617.88,369.555a18.238,18.238,0,0,1-.829-5.759,18.743,18.743,0,0,1,.781-5.808c1.318-4.1,4.928-6.491,9.614-6.491,4.832,0,8.345,2.494,9.663,6.491.537,1.659.781,3.27.781,7.076a.476.476,0,0,1-.537.488H622.858a.259.259,0,0,0-.293.292,5.471,5.471,0,0,0,5.613,5.368,7.091,7.091,0,0,0,5.514-2.244.5.5,0,0,1,.732-.1l2.88,2.538a.437.437,0,0,1,.049.683,12.4,12.4,0,0,1-9.663,4C622.712,376.1,619.195,373.657,617.88,369.555Zm14.2-10.395a5.027,5.027,0,0,0-9.224,0,5.97,5.97,0,0,0-.293,2,.259.259,0,0,0,.293.292h9.224a.258.258,0,0,0,.292-.292,5.971,5.971,0,0,0-.291-2Z" transform="translate(-278.881 -36.157)" fill="#fff"/>
    <path id="パス_9" data-name="パス 9" d="M693.785,369.607a23.4,23.4,0,0,1,0-11.615c1.367-4.2,4.978-6.491,9.712-6.491a10.244,10.244,0,0,1,8.15,3.66.475.475,0,0,1-.049.683l-3.075,2.684a.442.442,0,0,1-.683-.1,5.326,5.326,0,0,0-4.343-2.05,4.313,4.313,0,0,0-4.389,3.074,13.827,13.827,0,0,0-.489,4.344,14.155,14.155,0,0,0,.489,4.389,4.328,4.328,0,0,0,4.389,3.025,5.326,5.326,0,0,0,4.343-2.05.437.437,0,0,1,.683-.049L711.6,371.8c.243.2.2.44.049.683a10.36,10.36,0,0,1-8.15,3.611C698.763,376.1,695.152,373.8,693.785,369.607Z" transform="translate(-330.939 -36.157)" fill="#fff"/>
    <path id="パス_10" data-name="パス 10" d="M780.874,356.034a.462.462,0,0,1-.489-.488V341.98c0-3.026-1.513-5.124-4.441-5.124-2.83,0-4.489,2.095-4.489,5.124v13.566a.461.461,0,0,1-.488.488h-4.489a.461.461,0,0,1-.488-.488V323.335a.461.461,0,0,1,.488-.488h4.489a.461.461,0,0,1,.488.488v11.371h.049c1.024-1.464,3.074-2.733,6.2-2.733,5.026,0,8.15,3.709,8.15,8.736v14.836a.461.461,0,0,1-.488.488Z" transform="translate(-380.645 -16.629)" fill="#fff"/>
    <path id="パス_11" data-name="パス 11" d="M359.579,312.733H374a.953.953,0,0,0,.953-1.381l-7.21-12.093a1.149,1.149,0,0,0-1.9,0l-7.21,12.093a.953.953,0,0,0,.952,1.381Z" transform="translate(-102.206)" fill="#2bb8d9"/>
  </g>
</svg>
