<svg id="ロゴ" xmlns="http://www.w3.org/2000/svg" width="511.906" height="107.401" viewBox="0 0 511.906 107.401">
  <path id="パス_16" data-name="パス 16" d="M90.822,1042.037a1.8,1.8,0,0,1-1.9-1.268l-16.454-33.563H57.649a.682.682,0,0,0-.756.6.642.642,0,0,0,0,.155v32.856a1.2,1.2,0,0,1-1.116,1.268.976.976,0,0,1-.151,0H43.22a1.194,1.194,0,0,1-1.268-1.116,1.017,1.017,0,0,1,0-.151V957.192a1.194,1.194,0,0,1,1.116-1.268,1.007,1.007,0,0,1,.151,0H76.514c15.843,0,27.495,10.505,27.495,25.714a24.376,24.376,0,0,1-16.355,23.668l18.109,35.1a1,1,0,0,1-.878,1.634Zm-1.633-60.4c0-7.482-5.314-12.186-13.187-12.186H57.649a.658.658,0,0,0-.756.543.673.673,0,0,0,0,.212v22.911a.683.683,0,0,0,.572.777.7.7,0,0,0,.184,0H76C83.875,993.8,89.189,988.975,89.189,981.638Z" transform="translate(-41.95 -936.038)" fill="#131d34"/>
  <path id="パス_17" data-name="パス 17" d="M138.863,1037.316a1.194,1.194,0,0,1-1.268-1.117c0-.05,0-.1,0-.151v-4.436h0c-2.925,4.193-8.628,7.094-17.233,7.094-11.138,0-20.522-5.826-20.522-18.6,0-13.308,9.384-19.377,24.374-19.377H136.62a.683.683,0,0,0,.759-.6.646.646,0,0,0,0-.184V997.1c0-6.971-3.289-10.139-13.527-10.139a21.318,21.318,0,0,0-13.941,4.192,1.146,1.146,0,0,1-1.62-.052,1.04,1.04,0,0,1-.16-.216l-4.729-8.41a1.169,1.169,0,0,1,.245-1.632c4.874-3.559,11.65-5.947,21.667-5.947,18.623,0,25.446,6.313,25.446,21.278V1036.1a1.193,1.193,0,0,1-1.116,1.268.976.976,0,0,1-.151,0Zm-1.536-20.522v-4.681a.657.657,0,0,0-.543-.756.68.68,0,0,0-.212,0H126.457c-9.117,0-13.187,2.438-13.187,8.239,0,5.07,3.68,7.6,10.529,7.6C132.525,1027.2,137.327,1023.765,137.327,1016.794Z" transform="translate(-27.544 -931.317)" fill="#131d34"/>
  <rect id="長方形_4" data-name="長方形 4" width="14.186" height="61.032" rx="1.015" transform="translate(138.032 44.967)" fill="#131d34"/>
  <path id="パス_18" data-name="パス 18" d="M173.243,1029.1a1.194,1.194,0,0,1-.067-1.687.894.894,0,0,1,.067-.068l7.312-7.6a1.219,1.219,0,0,1,1.723-.057l.056.057a28.328,28.328,0,0,0,17.866,6.971c7.458,0,11.261-3.047,11.261-7.313,0-3.68-2.144-5.971-10.139-6.726l-6.581-.634c-12.406-1.268-18.744-7.6-18.744-17.987,0-11.773,8.482-19.232,23.692-19.232a37.092,37.092,0,0,1,22.911,7.459,1.266,1.266,0,0,1,.275,1.771l-.006.009-6.216,7.458a1.267,1.267,0,0,1-1.771.274l-.009-.006a29.473,29.473,0,0,0-15.94-5.069c-6.093,0-9.261,2.656-9.261,6.337s2.169,5.7,10.017,6.459l6.581.634c12.8,1.268,18.865,7.848,18.865,17.841,0,12.188-8.872,20.646-25.568,20.646A37.78,37.78,0,0,1,173.243,1029.1Z" transform="translate(-9.374 -931.337)" fill="#131d34"/>
  <path id="パス_19" data-name="パス 19" d="M223.623,1021.732a47.2,47.2,0,0,1-2.267-14.892,48.527,48.527,0,0,1,2.023-15.063c3.437-10.651,12.8-16.842,24.959-16.842s21.765,6.41,25.178,16.793c1.389,4.29,2.023,8.482,2.023,18.353a1.24,1.24,0,0,1-1.39,1.267H236.518a.683.683,0,0,0-.756.6.644.644,0,0,0,0,.155,14.257,14.257,0,0,0,14.566,13.943h.057a18.433,18.433,0,0,0,14.308-5.825,1.316,1.316,0,0,1,1.833-.32l.067.051,7.458,6.605a1.122,1.122,0,0,1,.317,1.554,1.1,1.1,0,0,1-.171.2c-5.191,6.094-13.82,10.384-25.081,10.384C236.152,1038.7,227.036,1032.383,223.623,1021.732Zm36.853-27.08a13.064,13.064,0,0,0-23.959,0,16.084,16.084,0,0,0-.756,5.191.681.681,0,0,0,.572.777.652.652,0,0,0,.184,0h23.959a.684.684,0,0,0,.759-.6.694.694,0,0,0,0-.184A16.084,16.084,0,0,0,260.477,994.652Z" transform="translate(2.691 -931.307)" fill="#131d34"/>
  <path id="パス_20" data-name="パス 20" d="M290.11,1042.037a1.193,1.193,0,0,1-1.268-1.117,1.007,1.007,0,0,1,0-.151V970.134a.658.658,0,0,0-.543-.756.673.673,0,0,0-.212,0H265.54a1.2,1.2,0,0,1-1.268-1.116,1.5,1.5,0,0,1,0-.151V957.192a1.2,1.2,0,0,1,1.116-1.268,1.007,1.007,0,0,1,.151,0h61.544a1.194,1.194,0,0,1,1.268,1.116,1.015,1.015,0,0,1,0,.151v10.895a1.2,1.2,0,0,1-1.116,1.267,1.485,1.485,0,0,1-.151,0H304.563a.683.683,0,0,0-.777.572.7.7,0,0,0,0,.184v70.708a1.2,1.2,0,0,1-1.116,1.268.976.976,0,0,1-.151,0Z" transform="translate(13.373 -936.038)" fill="#131d34"/>
  <path id="パス_21" data-name="パス 21" d="M314.2,1021.742a47.3,47.3,0,0,1-2.144-14.941,48.525,48.525,0,0,1,2.022-15.063c3.413-10.651,12.8-16.842,24.959-16.842,12.528,0,21.644,6.459,25.057,16.842,1.414,4.29,2.047,8.482,2.047,18.353a1.242,1.242,0,0,1-1.206,1.279,1.158,1.158,0,0,1-.207-.011H327.116a.659.659,0,0,0-.756.543.673.673,0,0,0,0,.212,13.78,13.78,0,0,0,.878,4.681,13.331,13.331,0,0,0,13.7,9.261,18.431,18.431,0,0,0,14.308-5.825,1.316,1.316,0,0,1,1.833-.32c.024.016.046.034.067.051l7.386,6.605a1.123,1.123,0,0,1,.293,1.559,1.216,1.216,0,0,1-.171.2c-5.193,6.094-13.8,10.384-25.057,10.384C326.75,1038.706,317.61,1032.393,314.2,1021.742Zm36.853-27.08a13.04,13.04,0,0,0-23.935,0,15.448,15.448,0,0,0-.756,5.191.682.682,0,0,0,.572.777.652.652,0,0,0,.184,0h23.935a.682.682,0,0,0,.758-.6.7.7,0,0,0,0-.184A15.448,15.448,0,0,0,351.051,994.662Z" transform="translate(25.26 -931.317)" fill="#131d34"/>
  <path id="パス_22" data-name="パス 22" d="M364.214,1021.865a60.6,60.6,0,0,1,0-30.126c3.534-10.895,12.918-16.842,25.2-16.842a26.612,26.612,0,0,1,21.108,9.481,1.242,1.242,0,0,1-.116,1.753l-.03.026-7.97,6.97a1.145,1.145,0,0,1-1.62-.051,1.178,1.178,0,0,1-.16-.216,13.794,13.794,0,0,0-11.261-5.314,11.188,11.188,0,0,0-11.407,8,36.184,36.184,0,0,0-1.268,11.261,37.281,37.281,0,0,0,1.268,11.407,11.237,11.237,0,0,0,11.407,7.848,13.79,13.79,0,0,0,11.407-5.314,1.146,1.146,0,0,1,1.591-.306,1.1,1.1,0,0,1,.189.16l7.97,6.971c.634.512.512,1.146.146,1.78a26.811,26.811,0,0,1-21.155,9.36C377.181,1038.708,367.8,1032.76,364.214,1021.865Z" transform="translate(37.764 -931.319)" fill="#131d34"/>
  <path id="パス_23" data-name="パス 23" d="M449.231,1042.037a1.2,1.2,0,0,1-1.268-1.117,1.486,1.486,0,0,1,0-.151v-35.2c0-7.848-3.924-13.308-11.528-13.308s-11.652,5.46-11.652,13.308v35.245a1.193,1.193,0,0,1-1.117,1.268.959.959,0,0,1-.15,0H411.865a1.194,1.194,0,0,1-1.2-1.191c0-.025,0-.051,0-.076V957.192a1.2,1.2,0,0,1,1.116-1.268,1.007,1.007,0,0,1,.151,0h11.65a1.194,1.194,0,0,1,1.268,1.116c0,.05,0,.1,0,.151v29.516h0c2.656-3.8,8-7.092,16.086-7.092,13.04,0,21.157,9.6,21.157,22.668v38.534a1.194,1.194,0,0,1-1.116,1.268.975.975,0,0,1-.151,0Z" transform="translate(49.804 -936.038)" fill="#131d34"/>
  <path id="パス_24" data-name="パス 24" d="M143.856,976.242h37.293a2.437,2.437,0,0,0,2.436-3.583l-18.694-31.37a2.951,2.951,0,0,0-4.1-.777,2.986,2.986,0,0,0-.777.777L141.3,972.659a2.437,2.437,0,0,0,2.559,3.583Z" transform="translate(-17.304 -940)" fill="#2bb8d9"/>
</svg>
