<svg id="グループ_192" data-name="グループ 192" xmlns="http://www.w3.org/2000/svg" xmlns:xlink="http://www.w3.org/1999/xlink" width="223" height="169.806" viewBox="0 0 223 169.806">
  <defs>
    <clipPath id="clip-path">
      <rect id="長方形_87" data-name="長方形 87" width="223" height="169.806" fill="none"/>
    </clipPath>
    <clipPath id="clip-path-2">
      <path id="パス_424" data-name="パス 424" d="M119.094,70.494l3.157,24.234,41.317-.908L159.32,70.092a1.425,1.425,0,0,0-1.4-1.173l-37.411-.033a1.425,1.425,0,0,0-1.413,1.608" transform="translate(-119.082 -68.886)" fill="none"/>
    </clipPath>
  </defs>
  <g id="グループ_186" data-name="グループ 186">
    <g id="グループ_185" data-name="グループ 185" clip-path="url(#clip-path)">
      <path id="パス_394" data-name="パス 394" d="M208.425,84.679A84.679,84.679,0,1,1,123.747,0a84.678,84.678,0,0,1,84.678,84.678" transform="translate(13.318 0)" fill="#2ab8d9"/>
      <path id="パス_395" data-name="パス 395" d="M129.912,95.916l3.7-1.635s7.19-2.941,10.132-.436-.436,6.646-6.537,4.794l-4.575,2.506Z" transform="translate(44.287 31.648)" fill="#fff"/>
      <path id="パス_396" data-name="パス 396" d="M129.912,95.916l3.7-1.635s7.19-2.941,10.132-.436-.436,6.646-6.537,4.794l-4.575,2.506Z" transform="translate(44.287 31.648)" fill="none" stroke="#131d34" stroke-linecap="round" stroke-linejoin="round" stroke-width="1.501"/>
      <path id="パス_397" data-name="パス 397" d="M115.007,87.551c8.134,2.9,14.706,11.693,14.706,11.693l7.88-2.906,3.667,6.282s-6.064,5.557-14.344,4.975-13.362-7.116-13.362-7.116Z" transform="translate(38.711 29.846)" fill="#131d34"/>
      <path id="パス_398" data-name="パス 398" d="M115.007,87.551c8.134,2.9,14.706,11.693,14.706,11.693l7.88-2.906,3.667,6.282s-6.064,5.557-14.344,4.975-13.362-7.116-13.362-7.116Z" transform="translate(38.711 29.846)" fill="none" stroke="#131d34" stroke-linecap="round" stroke-linejoin="round" stroke-width="1.501"/>
      <path id="パス_399" data-name="パス 399" d="M89.7,91.259c-4.389,13.656-2.439,37.717-2.439,37.717s25.85,5.039,39.994-.813l-.976-17.558,4.276-17.033-9.917-8.617Z" transform="translate(29.601 28.961)" fill="#131d34"/>
      <path id="パス_400" data-name="パス 400" d="M89.7,91.259c-4.389,13.656-2.439,37.717-2.439,37.717s25.85,5.039,39.994-.813l-.976-17.558,4.276-17.033-9.917-8.617Z" transform="translate(29.601 28.961)" fill="none" stroke="#131d34" stroke-linecap="round" stroke-linejoin="round" stroke-width="1.55"/>
      <path id="パス_401" data-name="パス 401" d="M91.882,88.851c2.275,10.568,12.031,14.794,12.031,14.794S114.967,92.1,116.105,87.551s-24.223,1.3-24.223,1.3" transform="translate(31.323 29.255)" fill="#fff"/>
      <path id="パス_402" data-name="パス 402" d="M91.882,88.851c2.275,10.568,12.031,14.794,12.031,14.794S114.967,92.1,116.105,87.551,91.882,88.851,91.882,88.851Z" transform="translate(31.323 29.255)" fill="none" stroke="#131d34" stroke-linecap="round" stroke-linejoin="round" stroke-width="1.55"/>
      <path id="パス_403" data-name="パス 403" d="M65.046,71.009c2.388,28.532,17.013,45.876,46.551,44.72,27.688-1.085,49.459-18.968,46.871-54.61-2.584-35.59-25.019-48.545-50.607-45.752-33.579,3.665-45.2,27.109-42.815,55.641" transform="translate(22.072 5.114)" fill="#fff"/>
      <path id="パス_404" data-name="パス 404" d="M65.046,71.009c2.388,28.532,17.013,45.876,46.551,44.72,27.688-1.085,49.459-18.968,46.871-54.61-2.584-35.59-25.019-48.545-50.607-45.752C74.283,19.033,62.658,42.477,65.046,71.009Z" transform="translate(22.072 5.114)" fill="none" stroke="#131d34" stroke-miterlimit="10" stroke-width="2.436"/>
      <line id="線_70" data-name="線 70" y1="1.58" x2="5.38" transform="translate(144.671 62.607)" fill="#fff"/>
      <line id="線_71" data-name="線 71" y1="1.58" x2="5.38" transform="translate(144.671 62.607)" fill="none" stroke="#131d34" stroke-linecap="round" stroke-linejoin="round" stroke-width="2.153"/>
      <path id="パス_405" data-name="パス 405" d="M81.835,53.735c-4.707.182-3.494,8.8.837,8.469s3.87-8.652-.837-8.469" transform="translate(26.87 18.317)" fill="#131d34"/>
      <path id="パス_406" data-name="パス 406" d="M111.275,50.871c-4.707.182-3.494,8.8.837,8.469s3.87-8.652-.837-8.469" transform="translate(36.907 17.341)" fill="#131d34"/>
      <path id="パス_407" data-name="パス 407" d="M123.139,28.619C111.354,44.363,74.414,57.99,65.295,58.289c.33-24.61,18.73-43.856,51.125-42.705s40.914,26.944,41.85,44.856c-20.108-10.431-35.13-31.821-35.13-31.821" transform="translate(22.259 5.296)" fill="#131d34"/>
      <path id="パス_408" data-name="パス 408" d="M123.139,28.619C111.354,44.363,74.414,57.99,65.295,58.289c.33-24.61,18.73-43.856,51.125-42.705s40.914,26.944,41.85,44.856C138.161,50.009,123.139,28.619,123.139,28.619Z" transform="translate(22.259 5.296)" fill="none" stroke="#131d34" stroke-linecap="round" stroke-linejoin="round" stroke-width="2.539"/>
      <path id="パス_409" data-name="パス 409" d="M107.68,25.135C100.2,36.077,78,43.28,72.453,45.131" transform="translate(24.699 8.569)" fill="none" stroke="#fff" stroke-linecap="round" stroke-linejoin="round" stroke-width="0.609"/>
      <path id="パス_410" data-name="パス 410" d="M93.533,25.753A72.128,72.128,0,0,1,74.8,38.378" transform="translate(25.5 8.779)" fill="none" stroke="#fff" stroke-linecap="round" stroke-linejoin="round" stroke-width="0.609"/>
      <path id="パス_411" data-name="パス 411" d="M115.363,26.726c8.735,7.858,18.744,16.429,18.744,16.429" transform="translate(39.327 9.111)" fill="none" stroke="#fff" stroke-linecap="round" stroke-linejoin="round" stroke-width="0.609"/>
      <path id="パス_412" data-name="パス 412" d="M133.023,52.773c6.325-6.536,13.245.161,9.971,8.161a19.862,19.862,0,0,1-11.158,10.6" transform="translate(44.943 17.091)" fill="#fff"/>
      <path id="パス_413" data-name="パス 413" d="M133.023,52.773c6.325-6.536,13.245.161,9.971,8.161a19.862,19.862,0,0,1-11.158,10.6" transform="translate(44.943 17.091)" fill="none" stroke="#131d34" stroke-linecap="round" stroke-linejoin="round" stroke-width="2.436"/>
      <path id="パス_414" data-name="パス 414" d="M90.57,74.151c4.043,8.4,26.048,4.7,26.17-5.6" transform="translate(30.875 23.367)" fill="#fff"/>
      <path id="パス_415" data-name="パス 415" d="M90.57,74.151c4.043,8.4,26.048,4.7,26.17-5.6" transform="translate(30.875 23.367)" fill="none" stroke="#131d34" stroke-linecap="round" stroke-linejoin="round" stroke-width="1.55"/>
      <path id="パス_416" data-name="パス 416" d="M93.843,57.015c-6.855-1.9-19.794.587-23.175,2.827s1.01,10.152,4.576,11.316,14.116-.351,17.3-2.339S98.76,58.014,93.843,57.015Z" transform="translate(23.678 19.206)" fill="none" stroke="#131d34" stroke-linecap="round" stroke-linejoin="round" stroke-width="1.153"/>
      <path id="パス_417" data-name="パス 417" d="M98,56.52c6.195-3.5,19.355-4.188,23.175-2.827s1.46,10.1-1.723,12.084S105.665,68.83,102.1,67.666,93.467,58.671,98,56.52Z" transform="translate(32.797 18.082)" fill="none" stroke="#131d34" stroke-linecap="round" stroke-linejoin="round" stroke-width="1.153"/>
      <line id="線_72" data-name="線 72" y1="1.043" x2="8.55" transform="translate(120.073 77.378)" fill="none" stroke="#131d34" stroke-linecap="round" stroke-linejoin="round" stroke-width="1.153"/>
      <path id="パス_418" data-name="パス 418" d="M93.874,105.635C76.316,104.661,70.951,92.468,70.3,82.713l9.1-1.3,5.039,11.542L98.1,94.093Z" transform="translate(23.966 27.753)" fill="#131d34"/>
      <path id="パス_419" data-name="パス 419" d="M93.874,105.635C76.316,104.661,70.951,92.468,70.3,82.713l9.1-1.3,5.039,11.542L98.1,94.093Z" transform="translate(23.966 27.753)" fill="none" stroke="#131d34" stroke-linecap="round" stroke-linejoin="round" stroke-width="1.55"/>
      <path id="パス_420" data-name="パス 420" d="M72.806,86.568c-5.365-7.316-2.6-16.095-1.3-17.882s2.926-.814,2.764.65-.324,5.364-.324,5.364,5.527-.487,6.666,2.6-3.089,5.853-3.089,5.853l1.463,2.113Z" transform="translate(23.736 23.085)" fill="#fff"/>
      <path id="パス_421" data-name="パス 421" d="M72.806,86.568c-5.365-7.316-2.6-16.095-1.3-17.882s2.926-.814,2.764.65-.324,5.364-.324,5.364,5.527-.487,6.666,2.6-3.089,5.853-3.089,5.853l1.463,2.113Z" transform="translate(23.736 23.085)" fill="none" stroke="#131d34" stroke-linecap="round" stroke-linejoin="round" stroke-width="1.55"/>
      <path id="パス_422" data-name="パス 422" d="M120.624,68.886l40.46.036a1.541,1.541,0,0,1,1.515,1.268l4.594,25.664-44.686.98L119.1,70.625a1.54,1.54,0,0,1,1.529-1.739" transform="translate(40.595 23.483)" fill="#fff"/>
    </g>
  </g>
  <g id="グループ_188" data-name="グループ 188" transform="translate(164.449 93.741)">
    <g id="グループ_187" data-name="グループ 187" clip-path="url(#clip-path-2)">
      <path id="パス_423" data-name="パス 423" d="M121.989,93.382l43.445-1.511-2.842-25L117.4,68.144Z" transform="translate(-119.486 -69.37)" fill="#131d34"/>
      <line id="線_73" data-name="線 73" y1="0.479" x2="24.886" transform="translate(7.596 3.223)" fill="none" stroke="#898e9a" stroke-linecap="round" stroke-linejoin="round" stroke-width="0.701"/>
      <line id="線_74" data-name="線 74" y1="0.585" x2="23.368" transform="translate(9.392 5.743)" fill="none" stroke="#898e9a" stroke-linecap="round" stroke-linejoin="round" stroke-width="0.701"/>
      <line id="線_75" data-name="線 75" y1="0.528" x2="21.867" transform="translate(11.168 8.264)" fill="none" stroke="#898e9a" stroke-linecap="round" stroke-linejoin="round" stroke-width="0.701"/>
      <line id="線_76" data-name="線 76" y1="0.347" x2="19.756" transform="translate(13.555 10.785)" fill="none" stroke="#898e9a" stroke-linecap="round" stroke-linejoin="round" stroke-width="0.701"/>
      <line id="線_77" data-name="線 77" y1="0.405" x2="22.733" transform="translate(10.854 13.305)" fill="none" stroke="#898e9a" stroke-linecap="round" stroke-linejoin="round" stroke-width="0.701"/>
      <line id="線_78" data-name="線 78" y1="0.415" x2="20.217" transform="translate(13.646 15.825)" fill="none" stroke="#898e9a" stroke-linecap="round" stroke-linejoin="round" stroke-width="0.701"/>
      <line id="線_79" data-name="線 79" y1="0.479" x2="24.886" transform="translate(9.253 18.346)" fill="none" stroke="#898e9a" stroke-linecap="round" stroke-linejoin="round" stroke-width="0.701"/>
    </g>
  </g>
  <g id="グループ_190" data-name="グループ 190">
    <g id="グループ_189" data-name="グループ 189" clip-path="url(#clip-path)">
      <path id="パス_425" data-name="パス 425" d="M120.624,68.886l40.46.036a1.541,1.541,0,0,1,1.515,1.268l4.594,25.664-44.686.98L119.1,70.625A1.54,1.54,0,0,1,120.624,68.886Z" transform="translate(40.595 23.483)" fill="none" stroke="#131d34" stroke-linecap="round" stroke-linejoin="round" stroke-width="0.744"/>
      <path id="パス_426" data-name="パス 426" d="M144.083,96.226,180.346,94.3a.6.6,0,0,0,.134-1.179l-14.56-4.159-43.939,1.1,18.785,5.755a9.6,9.6,0,0,0,3.316.406" transform="translate(41.584 30.327)" fill="#fff"/>
      <path id="パス_427" data-name="パス 427" d="M144.083,96.226,180.346,94.3a.6.6,0,0,0,.134-1.179l-14.56-4.159-43.939,1.1,18.785,5.755A9.6,9.6,0,0,0,144.083,96.226Z" transform="translate(41.584 30.327)" fill="none" stroke="#131d34" stroke-linecap="round" stroke-linejoin="round" stroke-width="0.744"/>
      <path id="パス_428" data-name="パス 428" d="M91.639,104.114a45.819,45.819,0,1,1-45.82-45.82,45.82,45.82,0,0,1,45.82,45.82" transform="translate(0 19.873)" fill="#2bb8d9"/>
      <path id="パス_429" data-name="パス 429" d="M55.061,91.473c4.908.224,8.505-4.011,10.757-.208s-8.233,16.791-12.69,18.1" transform="translate(18.111 30.57)" fill="#fff"/>
      <path id="パス_430" data-name="パス 430" d="M55.061,91.473c4.908.224,8.505-4.011,10.757-.208s-8.233,16.791-12.69,18.1" transform="translate(18.111 30.57)" fill="none" stroke="#131d34" stroke-linecap="round" stroke-linejoin="round" stroke-width="1.02"/>
      <path id="パス_431" data-name="パス 431" d="M17.948,98.258c4.106-8.442,7.238-14.3,21.761-19.281,17.92-6.149,36.061,4.779,37.421,22.9,1.381,18.412-13.393,26.243-24.434,28.415a42.985,42.985,0,0,1-26.671-3.182C19.7,124.14,12.182,116.78,12.182,116.78s-3.12,2.855-5.251.219,2.529-5.944,2.529-5.944-3.185-4.558-.919-6c3.6-2.289,5.377,3.671,5.377,3.671s1.439-8.5,4.029-10.471" transform="translate(2.173 26.336)" fill="#fff"/>
      <path id="パス_432" data-name="パス 432" d="M17.948,98.258c4.106-8.442,7.238-14.3,21.761-19.281,17.92-6.149,36.061,4.779,37.421,22.9,1.381,18.412-13.393,26.243-24.434,28.415a42.985,42.985,0,0,1-26.671-3.182C19.7,124.14,12.182,116.78,12.182,116.78s-3.12,2.855-5.251.219,2.529-5.944,2.529-5.944-3.185-4.558-.919-6c3.6-2.289,5.377,3.671,5.377,3.671S15.357,100.226,17.948,98.258Z" transform="translate(2.173 26.336)" fill="none" stroke="#131d34" stroke-linecap="round" stroke-linejoin="round" stroke-width="1.314"/>
      <path id="パス_433" data-name="パス 433" d="M47.716,69.377,48.534,79.7,26.786,84.476l-3.9-9.687Z" transform="translate(7.803 23.651)" fill="#2bb8d9"/>
      <path id="パス_434" data-name="パス 434" d="M47.716,69.377,48.534,79.7,26.786,84.476l-3.9-9.687Z" transform="translate(7.803 23.651)" fill="none" stroke="#131d34" stroke-linecap="round" stroke-linejoin="round" stroke-width="0.986"/>
      <path id="パス_435" data-name="パス 435" d="M55.188,68.423,38.631,80.036l-20.76-2.575,16.7-11.548Z" transform="translate(6.092 22.47)" fill="#2bb8d9"/>
      <path id="パス_436" data-name="パス 436" d="M55.188,68.423,38.631,80.036l-20.76-2.575,16.7-11.548Z" transform="translate(6.092 22.47)" fill="none" stroke="#131d34" stroke-linecap="round" stroke-linejoin="round" stroke-width="0.986"/>
      <path id="パス_437" data-name="パス 437" d="M34.521,72.02l-4.3,1.267,1.35-4Z" transform="translate(10.302 23.619)" fill="#fff"/>
      <path id="パス_438" data-name="パス 438" d="M44.572,86.386c-.353,1.555-3.681,1.8-3.571-1.136.28,2.824-3.367,3.325-3.978,1.8" transform="translate(12.621 29.062)" fill="#fff"/>
      <path id="パス_439" data-name="パス 439" d="M44.572,86.386c-.353,1.555-3.681,1.8-3.571-1.136.28,2.824-3.367,3.325-3.978,1.8" transform="translate(12.621 29.062)" fill="none" stroke="#131d34" stroke-linecap="round" stroke-linejoin="round" stroke-width="0.739"/>
      <path id="パス_440" data-name="パス 440" d="M40.333,83.851c-4.725.316-1.785,2.782.373,2.591s3.856-2.938-.373-2.591" transform="translate(12.886 28.575)" fill="#131d34"/>
      <path id="パス_441" data-name="パス 441" d="M30.426,84.63l2.977.719L31.041,87.3" transform="translate(10.372 28.851)" fill="#fff"/>
      <path id="パス_442" data-name="パス 442" d="M30.426,84.63l2.977.719L31.041,87.3" transform="translate(10.372 28.851)" fill="none" stroke="#131d34" stroke-linecap="round" stroke-linejoin="round" stroke-width="0.739"/>
      <path id="パス_443" data-name="パス 443" d="M46.333,82.18l-1.745,1.744,2.565.514" transform="translate(15.2 28.015)" fill="#fff"/>
      <path id="パス_444" data-name="パス 444" d="M46.333,82.18l-1.745,1.744,2.565.514" transform="translate(15.2 28.015)" fill="none" stroke="#131d34" stroke-linecap="round" stroke-linejoin="round" stroke-width="0.739"/>
      <path id="パス_445" data-name="パス 445" d="M37.451,87.184c-.821,3.592.615,6.672,3.08,6.364s2.977-4.106,3.284-6.774" transform="translate(12.688 29.581)" fill="none" stroke="#131d34" stroke-linecap="round" stroke-linejoin="round" stroke-width="0.739"/>
      <path id="パス_446" data-name="パス 446" d="M75.5,108.328A17.194,17.194,0,1,1,58.31,91.134,17.194,17.194,0,0,1,75.5,108.328" transform="translate(14.017 31.068)" fill="#a2d72a"/>
      <path id="パス_447" data-name="パス 447" d="M39.951,94.862c2.926,2.131,9.543.882,9.617,4.782s-10.062,11.513-19.4,8.967" transform="translate(10.284 32.339)" fill="#fff"/>
      <path id="パス_448" data-name="パス 448" d="M39.951,94.862c2.926,2.131,9.543.882,9.617,4.782s-10.062,11.513-19.4,8.967" transform="translate(10.284 32.339)" fill="none" stroke="#131d34" stroke-linecap="round" stroke-linejoin="round" stroke-width="1.02"/>
      <path id="パス_449" data-name="パス 449" d="M51.979,105.182c0,1.018-.7,1.734-2.1,1.741a6.351,6.351,0,0,0-.442-.889c1.177.16,1.625-.339,1.625-.845,0-.39-.261-.711-.914-.711a4.338,4.338,0,0,0-1.138.173l.012,1.286a.892.892,0,0,1-.991,1.011,1.274,1.274,0,0,1-1.395-1.164c0-.743.658-1.306,1.51-1.657v-.838c-.205.013-.4.02-.582.02a3.473,3.473,0,0,1-.723-.058v-.877a4.673,4.673,0,0,0,.767.058c.16,0,.339-.007.531-.019v-.4c0-.237-.012-.487-.025-.658l.908.051c-.005.025-.025.314-.025.538v.4a9.034,9.034,0,0,0,.973-.166v.884c-.27.051-.609.107-.967.153,0,.205,0,.422.007.64a5.863,5.863,0,0,1,1.228-.141c1.067,0,1.739.614,1.739,1.471m-3.805.48v-.774c-.467.224-.7.524-.7.813a.4.4,0,0,0,.441.383c.231,0,.256-.147.256-.422m2.194-2.872.377-.754a3.449,3.449,0,0,1,1.645.831l-.422.728a3.384,3.384,0,0,0-1.6-.806" transform="translate(15.899 34.553)" fill="#fff"/>
      <path id="パス_450" data-name="パス 450" d="M52.827,106.743c0,.148.007.314.013.429h-.923c.007-.115.013-.275.013-.429,0-.518.032-1.753.076-2.776a3.6,3.6,0,0,1-.485.633,8.249,8.249,0,0,0-.365-.933,6.48,6.48,0,0,0,1.362-2.457c.268.076.563.153.85.231a.247.247,0,0,0-.044.07,11.055,11.055,0,0,1-.5,1.183Zm2.725-2.674V106.1h.979c.192,0,.351,0,.487-.012v.876c-.129-.012-.295-.012-.487-.012H53.716c-.192,0-.351,0-.48.012v-.876c.129.012.288.012.48.012h.914v-2.034H53.615c-.205,0-.378,0-.506.013v-.877c.127.013.3.013.506.013h1.016v-1.555c0-.1-.007-.275-.012-.358.2.007.754.02.945.032a3.015,3.015,0,0,0-.012.326v1.555H56.6c.205,0,.378,0,.506-.013v.877c-.127-.013-.3-.013-.506-.013Z" transform="translate(17.44 34.503)" fill="#fff"/>
      <path id="パス_451" data-name="パス 451" d="M62.021,104.706v.679c-.076-.007-.147-.007-.212-.007h-.287v.843l.005.263H60.67v-.32H59.481c0,.115.007.231.007.282,0,.422-.383.7-1.389.7-.07-.166-.243-.53-.351-.76a4.155,4.155,0,0,0,.531.044c.256,0,.353-.051.353-.192v-.071H57.038c-.2,0-.353,0-.487.013v-.6c.134.012.288.012.487.012h1.593v-.243h-2c-.211,0-.383,0-.53.012v-.626c.146.013.319.013.53.013h2v-.231H57.069c-.192,0-.345,0-.479.012v-.6c.134.012.287.012.479.012h1.562v-.229H56.846a1.247,1.247,0,0,0,.012-.173v-.864a1.421,1.421,0,0,0-.012-.18h1.785v-.211H56.846c-.251,0-.442,0-.6.012v-.652c.153.012.345.012.6.012h1.785v-.1c0-.083-.007-.243-.013-.314.18,0,.7.013.87.032-.007.083-.013.2-.013.282v.1h1.893c.244,0,.436,0,.6-.012v.652c-.16-.012-.351-.012-.6-.012H59.474v.211h1.785a1.552,1.552,0,0,0-.007.18v.864l.007.173H59.474v.229h2.053c-.005.09-.005.173-.005.27v.506h.287c.064,0,.135,0,.212-.007m-3.39-1.74h-.947v.27h.947Zm.843.27h.947v-.27h-.947Zm0,1.51h1.2v-.231h-1.2Zm1.2.6h-1.2v.243h1.2Z" transform="translate(19.124 34.512)" fill="#fff"/>
    </g>
  </g>
</svg>
