<svg id="グループ_199" data-name="グループ 199" xmlns="http://www.w3.org/2000/svg" xmlns:xlink="http://www.w3.org/1999/xlink" width="229" height="167.663" viewBox="0 0 229 167.663">
  <defs>
    <clipPath id="clip-path">
      <rect id="長方形_89" data-name="長方形 89" width="229" height="167.663" fill="none"/>
    </clipPath>
    <clipPath id="clip-path-2">
      <path id="長方形_91" data-name="長方形 91" d="M3.424,0H130.735a3.423,3.423,0,0,1,3.423,3.423V91.012a3.424,3.424,0,0,1-3.424,3.424H3.423A3.423,3.423,0,0,1,0,91.013V3.424A3.424,3.424,0,0,1,3.424,0Z" fill="none"/>
    </clipPath>
  </defs>
  <g id="グループ_194" data-name="グループ 194" transform="translate(0 0)">
    <g id="グループ_193" data-name="グループ 193" clip-path="url(#clip-path)">
      <path id="パス_452" data-name="パス 452" d="M192.648,83.832A83.832,83.832,0,1,1,108.817,0a83.831,83.831,0,0,1,83.831,83.831" transform="translate(8.182 0)" fill="#2ab8d9"/>
      <path id="パス_453" data-name="パス 453" d="M43.22,88.3l-5.18,16.846h46.1L76.885,87.786Z" transform="translate(12.458 28.749)" fill="#fff"/>
      <path id="パス_454" data-name="パス 454" d="M43.22,88.3l-5.18,16.846h46.1L76.885,87.786Z" transform="translate(12.458 28.749)" fill="none" stroke="#131d34" stroke-linecap="round" stroke-linejoin="round" stroke-width="1.249"/>
      <path id="パス_455" data-name="パス 455" d="M128.422,114.276H8.934a4.545,4.545,0,0,1-4.545-4.545V28.311a4.545,4.545,0,0,1,4.545-4.545H128.422a4.545,4.545,0,0,1,4.545,4.545V109.73a4.545,4.545,0,0,1-4.545,4.545" transform="translate(1.437 7.783)" fill="#fff"/>
    </g>
  </g>
  <g id="グループ_196" data-name="グループ 196" transform="translate(6.079 29.944)">
    <g id="グループ_195" data-name="グループ 195" clip-path="url(#clip-path-2)">
      <rect id="長方形_90" data-name="長方形 90" width="150.234" height="94.571" transform="translate(-6.079 -6.081)" fill="#131d34"/>
    </g>
  </g>
  <g id="グループ_198" data-name="グループ 198" transform="translate(0 0)">
    <g id="グループ_197" data-name="グループ 197" clip-path="url(#clip-path)">
      <rect id="長方形_92" data-name="長方形 92" width="128.578" height="90.51" rx="3.424" transform="translate(5.826 31.549)" fill="none" stroke="#131d34" stroke-linecap="round" stroke-linejoin="round" stroke-width="1.249"/>
      <rect id="長方形_93" data-name="長方形 93" width="97.772" height="57.979" transform="translate(20.705 43.98)" fill="#fff"/>
      <path id="パス_456" data-name="パス 456" d="M92.946,47.562H39.458A3.262,3.262,0,0,1,36.2,44.3V39.373a3.262,3.262,0,0,1,3.262-3.262H92.946a3.262,3.262,0,0,1,3.262,3.262V44.3a3.262,3.262,0,0,1-3.262,3.262" transform="translate(11.854 11.826)" fill="#2bb8d9"/>
      <path id="パス_457" data-name="パス 457" d="M98.144,58.62H44.656a3.262,3.262,0,0,1-3.262-3.262V50.431a3.262,3.262,0,0,1,3.262-3.262H98.144a3.262,3.262,0,0,1,3.262,3.262v4.928a3.262,3.262,0,0,1-3.262,3.262" transform="translate(13.556 15.447)" fill="#d0d2d6"/>
      <path id="パス_458" data-name="パス 458" d="M40.036,43.741a7.66,7.66,0,0,1-1.762,4.844s5.432-.146,5.578-4.551Z" transform="translate(12.534 14.325)" fill="#2bb8d9"/>
      <path id="パス_459" data-name="パス 459" d="M92.946,71.227H39.458A3.262,3.262,0,0,1,36.2,67.965V63.038a3.262,3.262,0,0,1,3.262-3.262H92.946a3.262,3.262,0,0,1,3.262,3.262v4.928a3.262,3.262,0,0,1-3.262,3.262" transform="translate(11.854 19.576)" fill="#2bb8d9"/>
      <path id="パス_460" data-name="パス 460" d="M40.036,67.407a7.66,7.66,0,0,1-1.762,4.844s5.432-.146,5.578-4.551Z" transform="translate(12.534 22.075)" fill="#2bb8d9"/>
      <path id="パス_461" data-name="パス 461" d="M84,55.021a7.66,7.66,0,0,0,1.762,4.844s-5.432-.146-5.578-4.551Z" transform="translate(26.26 18.019)" fill="#d0d2d6"/>
      <path id="パス_462" data-name="パス 462" d="M38.187,62.065c2.095-.487,5.274-3.244,7.056-1.763s.1,8.3-4.678,11.5" transform="translate(12.506 19.606)" fill="#fff"/>
      <path id="パス_463" data-name="パス 463" d="M38.187,62.065c2.095-.487,5.274-3.244,7.056-1.763s.1,8.3-4.678,11.5" transform="translate(12.506 19.606)" fill="none" stroke="#131d34" stroke-linecap="round" stroke-linejoin="round" stroke-width="0.612"/>
      <path id="パス_464" data-name="パス 464" d="M15.957,67.227c2.441-5.017,4.3-8.5,12.932-11.458,10.648-3.653,21.118,2.408,21.546,13.2.393,9.866-7.269,14.5-13.83,15.793H16.159c-1.528-5.564-1.74-16.364-.2-17.533" transform="translate(4.881 17.915)" fill="#fff"/>
      <path id="パス_465" data-name="パス 465" d="M15.957,67.227c2.441-5.017,4.3-8.5,12.932-11.458,10.648-3.653,21.118,2.408,21.546,13.2.393,9.866-7.269,14.5-13.83,15.793H16.159C14.631,79.2,14.419,68.4,15.957,67.227Z" transform="translate(4.881 17.915)" fill="none" stroke="#131d34" stroke-linecap="round" stroke-linejoin="round" stroke-width="0.816"/>
      <path id="パス_466" data-name="パス 466" d="M31.916,49.869l1.43,5.987-12.328,4.8-3.178-5.327Z" transform="translate(5.842 16.332)" fill="#2bb8d9"/>
      <path id="パス_467" data-name="パス 467" d="M31.916,49.869l1.43,5.987-12.328,4.8-3.178-5.327Z" transform="translate(5.842 16.332)" fill="none" stroke="#131d34" stroke-linecap="round" stroke-linejoin="round" stroke-width="0.592"/>
      <path id="パス_468" data-name="パス 468" d="M36.042,48.526,27.39,56.867l-12.424.4,8.744-8.315Z" transform="translate(4.901 15.892)" fill="#2bb8d9"/>
      <path id="パス_469" data-name="パス 469" d="M36.042,48.526,27.39,56.867l-12.424.4,8.744-8.315Z" transform="translate(4.901 15.892)" fill="none" stroke="#131d34" stroke-linecap="round" stroke-linejoin="round" stroke-width="0.592"/>
      <path id="パス_470" data-name="パス 470" d="M24.488,52.094l-2.409,1.139L22.5,50.76Z" transform="translate(7.23 16.623)" fill="#fff"/>
      <path id="パス_471" data-name="パス 471" d="M28.59,63.085c-.433,1.569,0,2.759,1.46,2.813s1.893-1.353,2-2.813" transform="translate(9.311 20.66)" fill="#fff"/>
      <path id="パス_472" data-name="パス 472" d="M28.59,63.085c-.433,1.569,0,2.759,1.46,2.813s1.893-1.353,2-2.813" transform="translate(9.311 20.66)" fill="none" stroke="#131d34" stroke-linecap="round" stroke-linejoin="round" stroke-width="0.443"/>
      <path id="パス_473" data-name="パス 473" d="M32.64,62.884a1.118,1.118,0,0,1-2.051-.863c.013,1.686-2.172,1.788-2.452.851" transform="translate(9.215 20.311)" fill="#fff"/>
      <path id="パス_474" data-name="パス 474" d="M32.64,62.884a1.118,1.118,0,0,1-2.051-.863c.013,1.686-2.172,1.788-2.452.851" transform="translate(9.215 20.311)" fill="none" stroke="#131d34" stroke-linecap="round" stroke-linejoin="round" stroke-width="0.443"/>
      <path id="パス_475" data-name="パス 475" d="M30.264,61.164c-2.813-.065-1.205,1.552.082,1.553s2.439-1.533-.082-1.553" transform="translate(9.401 20.03)" fill="#131d34"/>
      <path id="パス_476" data-name="パス 476" d="M19.814,64.083c-2.143-.2-5.67-2.489-7.231-.777s1.043,8.23,6.214,10.753" transform="translate(3.974 20.526)" fill="#fff"/>
      <path id="パス_477" data-name="パス 477" d="M19.814,64.083c-2.143-.2-5.67-2.489-7.231-.777s1.043,8.23,6.214,10.753" transform="translate(3.974 20.526)" fill="none" stroke="#131d34" stroke-linecap="round" stroke-linejoin="round" stroke-width="0.612"/>
      <path id="パス_478" data-name="パス 478" d="M35.054,60.805a1.114,1.114,0,0,1,0,2.224c-1.365,0-1.415-2.274,0-2.224" transform="translate(11.138 19.913)" fill="#131d34"/>
      <path id="パス_479" data-name="パス 479" d="M25.273,60.882a1.114,1.114,0,0,1,0,2.224c-1.365,0-1.415-2.274,0-2.224" transform="translate(7.935 19.938)" fill="#131d34"/>
      <path id="パス_480" data-name="パス 480" d="M41.192,115.706c0,2.667-5.406,4.829-12.074,4.829s-12.074-2.162-12.074-4.829,5.406-4.829,12.074-4.829,12.074,2.162,12.074,4.829" transform="translate(5.582 36.311)" fill="#fff"/>
      <ellipse id="楕円形_19" data-name="楕円形 19" cx="12.074" cy="4.829" rx="12.074" ry="4.829" transform="translate(22.627 147.188)" fill="none" stroke="#131d34" stroke-linecap="round" stroke-linejoin="round" stroke-width="1.136"/>
      <path id="パス_481" data-name="パス 481" d="M21.038,103.23c-3.909-2.76-6.957-.173-6.037,4.541s7.3,7.13,7.3,7.13l-.115-2.875s-4.427-.862-5-4.541,1.61-3.623,3.22-2.3.632-1.955.632-1.955" transform="translate(4.859 33.436)" fill="#fff"/>
      <path id="パス_482" data-name="パス 482" d="M21.038,103.23c-3.909-2.76-6.957-.173-6.037,4.541s7.3,7.13,7.3,7.13l-.115-2.875s-4.427-.862-5-4.541,1.61-3.623,3.22-2.3S21.038,103.23,21.038,103.23Z" transform="translate(4.859 33.436)" fill="none" stroke="#131d34" stroke-linecap="round" stroke-linejoin="round" stroke-width="1.118"/>
      <path id="パス_483" data-name="パス 483" d="M21.21,119.131c0,1.108,3.451,2.007,7.71,2.007s7.71-.9,7.71-2.007l2.939-20.467H18.3Z" transform="translate(5.992 32.311)" fill="#fff"/>
      <path id="パス_484" data-name="パス 484" d="M21.21,119.131c0,1.108,3.451,2.007,7.71,2.007s7.71-.9,7.71-2.007l2.939-20.467H18.3Z" transform="translate(5.992 32.311)" fill="none" stroke="#131d34" stroke-linecap="round" stroke-linejoin="round" stroke-width="1.136"/>
      <path id="パス_485" data-name="パス 485" d="M18.226,99.373c0,1.588,4.783,2.874,10.682,2.874s10.684-1.286,10.684-2.874S34.809,96.5,28.908,96.5s-10.682,1.286-10.682,2.874" transform="translate(5.969 31.602)" fill="#fff"/>
      <path id="パス_486" data-name="パス 486" d="M18.226,99.373c0,1.588,4.783,2.874,10.682,2.874s10.684-1.286,10.684-2.874S34.809,96.5,28.908,96.5,18.226,97.785,18.226,99.373Z" transform="translate(5.969 31.602)" fill="none" stroke="#131d34" stroke-linecap="round" stroke-linejoin="round" stroke-width="1.118"/>
      <path id="パス_487" data-name="パス 487" d="M70.627,104.767l50.682-.706,11.126,7.24.177,2.119-55.81.187-6.357-5.828Z" transform="translate(23.07 34.079)" fill="#fff"/>
      <path id="パス_488" data-name="パス 488" d="M70.627,104.767l50.682-.706,11.126,7.24.177,2.119-55.81.187-6.357-5.828Z" transform="translate(23.07 34.079)" fill="none" stroke="#131d34" stroke-linecap="round" stroke-linejoin="round" stroke-width="1.249"/>
      <path id="パス_489" data-name="パス 489" d="M116.788,106.993s-4.038-4.131-8.638-3.7-5.525,3.988-3.591,5.651,10.678,2.376,10.678,2.376Z" transform="translate(33.93 33.818)" fill="#fff"/>
      <path id="パス_490" data-name="パス 490" d="M116.788,106.993s-4.038-4.131-8.638-3.7-5.525,3.988-3.591,5.651,10.678,2.376,10.678,2.376Z" transform="translate(33.93 33.818)" fill="none" stroke="#131d34" stroke-linecap="round" stroke-linejoin="round" stroke-width="1.629"/>
      <path id="パス_491" data-name="パス 491" d="M164.437,133.514s-.739-28.795-6.764-41.265-22.06,1-22.06,1c-4.256,4.605-7.743,12.32-7.743,12.32L121,110.533l-7.714-.317-1.374,7.82a75.9,75.9,0,0,0,10.99,1.586,34.639,34.639,0,0,0,6.024-.212l-2.293,14.1Z" transform="translate(36.65 28.477)" fill="#131d34"/>
      <path id="パス_492" data-name="パス 492" d="M164.437,133.514s-.739-28.795-6.764-41.265-22.06,1-22.06,1c-4.256,4.605-7.743,12.32-7.743,12.32L121,110.533l-7.714-.317-1.374,7.82a75.9,75.9,0,0,0,10.99,1.586,34.639,34.639,0,0,0,6.024-.212l-2.293,14.1Z" transform="translate(36.65 28.477)" fill="none" stroke="#131d34" stroke-linecap="round" stroke-linejoin="round" stroke-width="0.387"/>
      <path id="パス_493" data-name="パス 493" d="M187.511,84.809c8.475-28.388-4.317-45.136-24.9-50.873-27.014-7.53-45.294,3.8-49.3,29.7-1.565,10.107-7.913,7.2-6.866,19.53s9.757,22.911,29.549,27.539c7.192,1.682,22.2,2.214,32.172-3.137s16.548-13.374,19.351-22.76" transform="translate(34.82 10.364)" fill="#fff"/>
      <path id="パス_494" data-name="パス 494" d="M187.511,84.809c8.475-28.388-4.317-45.136-24.9-50.873-27.014-7.53-45.294,3.8-49.3,29.7-1.565,10.107-7.913,7.2-6.866,19.53s9.757,22.911,29.549,27.539c7.192,1.682,22.2,2.214,32.172-3.137S184.708,94.195,187.511,84.809Z" transform="translate(34.82 10.364)" fill="none" stroke="#131d34" stroke-linecap="round" stroke-linejoin="round" stroke-width="1.629"/>
      <path id="パス_495" data-name="パス 495" d="M117.365,57.372c-3.153-1-3.421,6.014-.968,6.486s4.121-5.481.968-6.486" transform="translate(37.581 18.757)" fill="#131d34"/>
      <path id="パス_496" data-name="パス 496" d="M111.772,75.666c1.382-2.176,12.936-.364,14.707,1.5s-.855,7.629-6.206,6.936-9.883-6.258-8.5-8.434" transform="translate(36.522 24.455)" fill="#fff"/>
      <path id="パス_497" data-name="パス 497" d="M111.772,75.666c1.382-2.176,12.936-.364,14.707,1.5s-.855,7.629-6.206,6.936S110.39,77.842,111.772,75.666Z" transform="translate(36.522 24.455)" fill="none" stroke="#131d34" stroke-linecap="round" stroke-linejoin="round" stroke-width="1.096"/>
      <path id="パス_498" data-name="パス 498" d="M152.86,32.073s-25.309-5.833-37.32,15.873c7.547-2.293,19.964-4.973,19.964-4.973s.548,15.1,10.816,27.337l6.426,26.952,15.679,9.292s2.743-2.132,5.144-4.251c5.583-4.924,13.831-15.088,13.749-36.278-.118-30.3-34.459-33.953-34.459-33.953" transform="translate(37.838 10.27)" fill="#131d34"/>
      <path id="パス_499" data-name="パス 499" d="M137.437,43.078c.686,9.886,3.235,15.119,3.235,15.119" transform="translate(45.009 14.108)" fill="none" stroke="#fff" stroke-linecap="round" stroke-linejoin="round" stroke-width="0.448"/>
      <path id="パス_500" data-name="パス 500" d="M137.436,61.288c4.577-4.621,10.446-.7,8.459,4.317s-6.729,7.5-10.341,6.365" transform="translate(44.393 19.398)" fill="#fff"/>
      <path id="パス_501" data-name="パス 501" d="M137.436,61.288c4.577-4.621,10.446-.7,8.459,4.317s-6.729,7.5-10.341,6.365" transform="translate(44.393 19.398)" fill="none" stroke="#131d34" stroke-linecap="round" stroke-linejoin="round" stroke-width="1.723"/>
      <path id="パス_502" data-name="パス 502" d="M133.8,129.207c.289-20.565,19.821-30.757,39.1-26.633,13.555,2.9,12.525,17.074,9.048,26.633" transform="translate(43.819 33.296)" fill="#fff"/>
      <path id="パス_503" data-name="パス 503" d="M133.8,129.207c.289-20.565,19.821-30.757,39.1-26.633,13.555,2.9,12.525,17.074,9.048,26.633" transform="translate(43.819 33.296)" fill="none" stroke="#131d34" stroke-linecap="round" stroke-linejoin="round" stroke-width="1.495"/>
      <path id="パス_504" data-name="パス 504" d="M139.417,125.2c1.268-11.414,13.388-19.9,24.816-20.516,11.085-.6,16.105,2.334,17.925,8.025" transform="translate(45.658 34.258)" fill="none" stroke="#131d34" stroke-linecap="round" stroke-linejoin="round" stroke-width="1.096"/>
    </g>
  </g>
</svg>
