<svg xmlns="http://www.w3.org/2000/svg" xmlns:xlink="http://www.w3.org/1999/xlink" width="1241.82" height="774.068" viewBox="0 0 1241.82 774.068"><defs><clipPath id="a"><rect width="1241.82" height="774.068" fill="none"/></clipPath></defs><g clip-path="url(#a)"><g clip-path="url(#a)"><g opacity="0.8"><g clip-path="url(#a)"><path d="M55.291,189.568h-.92l-13.822,23.7L27.186,236.171l.46.789,13.822-23.7Z" transform="translate(0)" fill="#66cbe4"/><path d="M165.872,94.784l-13.823,23.7-13.822,23.7h55.29l-13.822-23.7Z" fill="#66cbe4"/><path d="M55.291,284.352h55.291l-13.823-23.7-13.823-23.7-13.822,23.7Z" transform="translate(0)" fill="#66cbe4"/><path d="M110.581,189.568l-13.823,23.7-13.822,23.7h55.29l-13.822-23.7Z" fill="#66cbe4"/><path d="M165.872,94.784h55.291l-13.823-23.7-13.823-23.7-13.822,23.7Z" fill="#66cbe4"/><path d="M110.581,94.784l-13.823,23.7-13.822,23.7h55.29L124.4,118.48Z" fill="#66cbe4"/><path d="M110.581,94.784h55.291l-13.823-23.7-13.823-23.7L124.4,71.088Z" fill="#66cbe4"/><path d="M359.389,47.392l-13.823,23.7-13.822,23.7h55.29l-13.822-23.7Z" transform="translate(0)" fill="#66cbe4"/><path d="M138.226,426.527h55.291l-13.823-23.7-13.823-23.7-13.822,23.7Z" transform="translate(0)" fill="#66cbe4"/><path d="M55.291,284.352l-13.823,23.7-13.822,23.7h55.29l-13.822-23.7Z" transform="translate(0)" fill="#66cbe4"/><path d="M82.936,142.176l-13.823-23.7-13.822-23.7-13.823,23.7-13.823,23.7H82.936Z" transform="translate(0)" fill="#66cbe4"/><path d="M55.29,94.784l-13.823-23.7-13.822-23.7-13.823,23.7L0,94.784H55.29Z" transform="translate(0)" fill="#66cbe4"/><path d="M27.645,189.568H55.29l-13.822-23.7-13.823-23.7-13.823,23.7L0,189.568H27.645Z" transform="translate(0)" fill="#66cbe4"/><path d="M55.291,473.919l13.823-23.7,13.822-23.7H27.646l13.822,23.7Z" transform="translate(0)" fill="#66cbe4"/><path d="M0,379.135l13.823,23.7,13.822,23.7,13.823-23.7,13.823-23.7H0Z" transform="translate(0)" fill="#66cbe4"/><path d="M248.808,331.744l13.823-23.7,13.822-23.7h-55.29l13.822,23.7Z" transform="translate(0)" fill="#66cbe4"/><path d="M55.291,284.352l13.823,23.7,13.822,23.7,13.823-23.7,13.823-23.7H55.291Z" transform="translate(0)" fill="#66cbe4"/><path d="M27.645,331.744l13.823-23.7,13.822-23.7H0l13.822,23.7Z" transform="translate(0)" fill="#66cbe4"/><path d="M138.226,236.96l13.823,23.7,13.822,23.7,13.823-23.7,13.823-23.7H138.226Z" transform="translate(0)" fill="#66cbe4"/><path d="M27.645,236.96l13.823,23.7,13.822,23.7,13.823-23.7,13.823-23.7H27.645Z" transform="translate(0)" fill="#66cbe4"/><path d="M13.823,260.656l13.823-23.7H0v47.392Z" transform="translate(0)" fill="#66cbe4"/><path d="M276.453,189.568l13.823,23.7,13.822,23.7,13.823-23.7,13.823-23.7H276.453Z" fill="#66cbe4"/><path d="M165.872,189.568H110.581l13.823,23.7,13.823,23.7,13.822-23.7Z" fill="#66cbe4"/><path d="M26.725,236.96l.46-.789,13.363-22.907,13.822-23.7H0v1.577l12.9,22.119Z" transform="translate(0)" fill="#66cbe4"/><path d="M248.808,142.176l13.823,23.7,13.822,23.7,13.823-23.7,13.823-23.7H248.808Z" transform="translate(0)" fill="#66cbe4"/><path d="M221.162,189.568l13.823-23.7,13.822-23.7h-55.29l13.822,23.7Z" fill="#66cbe4"/><path d="M138.226,142.176l13.823,23.7,13.822,23.7,13.823-23.7,13.823-23.7H138.226Z" transform="translate(0)" fill="#66cbe4"/><path d="M82.936,142.176H27.645l13.823,23.7,13.823,23.7,13.822-23.7Z" transform="translate(0)" fill="#66cbe4"/><path d="M27.645,142.176H0v47.392l13.822-23.7Z" transform="translate(0)" fill="#66cbe4"/><path d="M276.453,94.784l13.823,23.7,13.822,23.7,13.823-23.7,13.823-23.7H276.453Z" fill="#66cbe4"/><path d="M165.872,94.784l13.823,23.7,13.822,23.7,13.823-23.7,13.823-23.7H165.872Z" fill="#66cbe4"/><path d="M165.872,94.784H110.581l13.823,23.7,13.823,23.7,13.822-23.7Z" fill="#66cbe4"/><path d="M27.645,142.176l13.823-23.7,13.822-23.7H0l13.822,23.7Z" transform="translate(0)" fill="#66cbe4"/><path d="M359.389,47.392l13.823,23.7,13.822,23.7,13.823-23.7,13.823-23.7H359.389Z" transform="translate(0)" fill="#66cbe4"/><path d="M276.453,94.784l13.823-23.7,13.822-23.7h-55.29l13.822,23.7Z" fill="#66cbe4"/><path d="M221.162,94.784l13.823-23.7,13.822-23.7h-55.29l13.822,23.7Z" fill="#66cbe4"/><path d="M165.872,94.784l13.823-23.7,13.822-23.7h-55.29l13.822,23.7Z" fill="#66cbe4"/><path d="M82.936,47.392l13.823,23.7,13.822,23.7,13.823-23.7,13.823-23.7H82.936Z" transform="translate(0)" fill="#66cbe4"/><path d="M82.936,47.392H27.645l13.823,23.7,13.823,23.7,13.822-23.7Z" transform="translate(0)" fill="#66cbe4"/><path d="M27.645,47.392H0V94.784l13.822-23.7Z" transform="translate(0)" fill="#66cbe4"/><path d="M414.679,47.392,428.5,23.7,442.324,0h-55.29l13.822,23.7Z" transform="translate(0)" fill="#66cbe4"/><path d="M304.1,47.392l13.823-23.7L331.743,0h-55.29l13.822,23.7Z" fill="#66cbe4"/><path d="M221.162,0l13.823,23.7,13.822,23.7L262.63,23.7,276.453,0H221.162Z" transform="translate(0)" fill="#66cbe4"/><path d="M138.226,47.392l13.823-23.7L165.871,0h-55.29L124.4,23.7Z" fill="#66cbe4"/><path d="M82.936,47.392,96.759,23.7,110.581,0H55.291L69.113,23.7Z" transform="translate(0)" fill="#66cbe4"/><path d="M27.645,47.392,41.468,23.7,55.29,0H0L13.822,23.7Z" transform="translate(0)" fill="#66cbe4"/><path d="M165.872,94.784l-13.823,23.7-13.822,23.7h55.29l-13.822-23.7Z" fill="#d9f2f8"/><path d="M55.291,284.352h55.291l-13.823-23.7-13.823-23.7-13.822,23.7Z" transform="translate(0)" fill="#b5e6f2"/><path d="M110.581,189.568l-13.823,23.7-13.822,23.7h55.29l-13.822-23.7Z" fill="#6dcde5"/><path d="M165.872,94.784h55.291l-13.823-23.7-13.823-23.7-13.822,23.7Z" fill="#6dcde5"/><path d="M110.581,94.784l-13.823,23.7-13.822,23.7h55.29L124.4,118.48Z" fill="#f4fbfd"/><path d="M110.581,94.784h55.291l-13.823-23.7-13.823-23.7L124.4,71.088Z" fill="#6dcde5"/><path d="M359.389,47.392l-13.823,23.7-13.822,23.7h55.29l-13.822-23.7Z" transform="translate(0)" fill="#d9f2f8"/><path d="M138.226,426.527h55.291l-13.823-23.7-13.823-23.7-13.822,23.7Z" transform="translate(0)" fill="#d9f2f8"/><path d="M55.291,284.352l-13.823,23.7-13.822,23.7h55.29l-13.822-23.7Z" transform="translate(0)" fill="#6dcde5"/><path d="M82.936,142.176l-13.823-23.7-13.822-23.7-13.823,23.7-13.823,23.7H82.936Z" transform="translate(0)" fill="#b5e6f2"/><path d="M55.29,94.784l-13.823-23.7-13.822-23.7-13.823,23.7L0,94.784H55.29Z" transform="translate(0)" fill="#b5e6f2"/><path d="M27.645,189.568H55.29l-13.822-23.7-13.823-23.7-13.823,23.7L0,189.568H27.645Z" transform="translate(0)" fill="#2bb7d9"/><path d="M55.291,473.919l13.823-23.7,13.822-23.7H27.646l13.822,23.7Z" transform="translate(0)" fill="#f4fbfd"/><path d="M0,379.135l13.823,23.7,13.822,23.7,13.823-23.7,13.823-23.7H0Z" transform="translate(0)" fill="#d9f2f8"/><path d="M248.808,331.744l13.823-23.7,13.822-23.7h-55.29l13.822,23.7Z" transform="translate(0)" fill="#f4fbfd"/><path d="M55.291,284.352l13.823,23.7,13.822,23.7,13.823-23.7,13.823-23.7H55.291Z" transform="translate(0)" fill="#d9f2f8"/><path d="M27.645,331.744l13.823-23.7,13.822-23.7H0l13.822,23.7Z" transform="translate(0)" fill="#2bb7d9"/><path d="M138.226,236.96l13.823,23.7,13.822,23.7,13.823-23.7,13.823-23.7H138.226Z" transform="translate(0)" fill="#6dcde5"/><path d="M27.645,236.96l13.823,23.7,13.822,23.7,13.823-23.7,13.823-23.7H27.645Z" transform="translate(0)" fill="#eaf8fb"/><path d="M13.823,260.656l13.823-23.7H0v47.392Z" transform="translate(0)" fill="#b5e6f2"/><path d="M276.453,189.568l13.823,23.7,13.822,23.7,13.823-23.7,13.823-23.7H276.453Z" fill="#eaf8fb"/><path d="M165.872,189.568H110.581l13.823,23.7,13.823,23.7,13.822-23.7Z" fill="#2bb7d9"/><path d="M26.725,236.96l.46-.789,13.363-22.907,13.822-23.7H0v1.577l12.9,22.119Z" transform="translate(0)" fill="#b5e6f2"/><path d="M248.808,142.176l13.823,23.7,13.822,23.7,13.823-23.7,13.823-23.7H248.808Z" transform="translate(0)" fill="#6dcde5"/><path d="M221.162,189.568l13.823-23.7,13.822-23.7h-55.29l13.822,23.7Z" fill="#d9f2f8"/><path d="M138.226,142.176l13.823,23.7,13.822,23.7,13.823-23.7,13.823-23.7H138.226Z" transform="translate(0)" fill="#6dcde5"/><path d="M82.936,142.176H27.645l13.823,23.7,13.823,23.7,13.822-23.7Z" transform="translate(0)" fill="#6dcde5"/><path d="M27.645,142.176H0v47.392l13.822-23.7Z" transform="translate(0)" fill="#6dcde5"/><path d="M276.453,94.784l13.823,23.7,13.822,23.7,13.823-23.7,13.823-23.7H276.453Z" fill="#d9f2f8"/><path d="M165.872,94.784l13.823,23.7,13.822,23.7,13.823-23.7,13.823-23.7H165.872Z" fill="#b5e6f2"/><path d="M165.872,94.784H110.581l13.823,23.7,13.823,23.7,13.822-23.7Z" fill="#b5e6f2"/><path d="M27.645,142.176l13.823-23.7,13.822-23.7H0l13.822,23.7Z" transform="translate(0)" fill="#d9f2f8"/><path d="M359.389,47.392l13.823,23.7,13.822,23.7,13.823-23.7,13.823-23.7H359.389Z" transform="translate(0)" fill="#f4fbfd"/><path d="M276.453,94.784l13.823-23.7,13.822-23.7h-55.29l13.822,23.7Z" fill="#6dcde5"/><path d="M221.162,94.784l13.823-23.7,13.822-23.7h-55.29l13.822,23.7Z" fill="#2bb7d9"/><path d="M165.872,94.784l13.823-23.7,13.822-23.7h-55.29l13.822,23.7Z" fill="#b5e6f2"/><path d="M82.936,47.392l13.823,23.7,13.822,23.7,13.823-23.7,13.823-23.7H82.936Z" transform="translate(0)" fill="#2bb7d9"/><path d="M82.936,47.392H27.645l13.823,23.7,13.823,23.7,13.822-23.7Z" transform="translate(0)" fill="#6dcde5"/><path d="M27.645,47.392H0V94.784l13.822-23.7Z" transform="translate(0)" fill="#d9f2f8"/><path d="M414.679,47.392,428.5,23.7,442.324,0h-55.29l13.822,23.7Z" transform="translate(0)" fill="#d9f2f8"/><path d="M304.1,47.392l13.823-23.7L331.743,0h-55.29l13.822,23.7Z" fill="#d9f2f8"/><path d="M221.162,0l13.823,23.7,13.822,23.7L262.63,23.7,276.453,0H221.162Z" transform="translate(0)" fill="#2bb7d9"/><path d="M138.226,47.392l13.823-23.7L165.871,0h-55.29L124.4,23.7Z" fill="#b5e6f2"/><path d="M82.936,47.392,96.759,23.7,110.581,0H55.291L69.113,23.7Z" transform="translate(0)" fill="#6dcde5"/><path d="M27.645,47.392,41.468,23.7,55.29,0H0L13.822,23.7Z" transform="translate(0)" fill="#b5e6f2"/></g></g></g></g></svg>