<svg xmlns="http://www.w3.org/2000/svg" xmlns:xlink="http://www.w3.org/1999/xlink" width="1241.82" height="774.068" viewBox="0 0 1241.82 774.068"><defs><clipPath id="a"><rect width="1241.82" height="774.068" fill="none"/></clipPath></defs><g clip-path="url(#a)"><g opacity="0.8"><g clip-path="url(#a)"><path d="M27.186,236.96h.92l13.822-23.7,13.363-22.907-.46-.789-13.822,23.7Z" transform="translate(1159.344 347.54)" fill="#66cbe4"/><path d="M165.872,142.176l13.823-23.7,13.822-23.7h-55.29l13.822,23.7Z" transform="translate(910.076 537.108)" fill="#66cbe4"/><path d="M110.581,236.96H55.291l13.823,23.7,13.823,23.7,13.822-23.7Z" transform="translate(1075.948 252.756)" fill="#66cbe4"/><path d="M110.581,236.96l13.823-23.7,13.822-23.7H82.936l13.822,23.7Z" transform="translate(1020.658 347.54)" fill="#66cbe4"/><path d="M221.163,47.392H165.872l13.823,23.7,13.823,23.7,13.822-23.7Z" transform="translate(854.785 631.892)" fill="#66cbe4"/><path d="M110.581,142.176l13.823-23.7,13.822-23.7H82.936l13.822,23.7Z" transform="translate(1020.658 537.108)" fill="#66cbe4"/><path d="M165.872,47.392H110.581l13.823,23.7,13.823,23.7,13.822-23.7Z" transform="translate(965.367 631.892)" fill="#66cbe4"/><path d="M359.389,94.784l13.823-23.7,13.822-23.7h-55.29l13.822,23.7Z" transform="translate(523.042 631.892)" fill="#66cbe4"/><path d="M193.517,379.135H138.226l13.823,23.7,13.823,23.7,13.822-23.7Z" transform="translate(910.076 -31.595)" fill="#66cbe4"/><path d="M55.291,331.744l13.823-23.7,13.822-23.7H27.646l13.822,23.7Z" transform="translate(1131.239 157.972)" fill="#66cbe4"/><path d="M27.645,94.784l13.823,23.7,13.822,23.7,13.823-23.7,13.823-23.7H27.645Z" transform="translate(1131.239 537.108)" fill="#66cbe4"/><path d="M0,47.392l13.823,23.7,13.822,23.7,13.823-23.7,13.823-23.7H0Z" transform="translate(1186.53 631.892)" fill="#66cbe4"/><path d="M27.645,142.176H0l13.822,23.7,13.823,23.7,13.823-23.7,13.822-23.7H27.645Z" transform="translate(1186.529 442.324)" fill="#66cbe4"/><path d="M55.291,426.527l-13.823,23.7-13.822,23.7h55.29l-13.822-23.7Z" transform="translate(1131.239 -126.379)" fill="#66cbe4"/><path d="M55.291,426.527l-13.823-23.7-13.822-23.7-13.823,23.7L0,426.527H55.291Z" transform="translate(1186.529 -31.595)" fill="#66cbe4"/><path d="M248.807,284.352l-13.823,23.7-13.822,23.7h55.29l-13.822-23.7Z" transform="translate(744.205 157.973)" fill="#66cbe4"/><path d="M110.581,331.744l-13.823-23.7-13.822-23.7-13.823,23.7-13.823,23.7h55.291Z" transform="translate(1075.948 157.972)" fill="#66cbe4"/><path d="M27.645,284.352l-13.823,23.7L0,331.744H55.29l-13.822-23.7Z" transform="translate(1186.529 157.973)" fill="#66cbe4"/><path d="M193.517,284.352l-13.823-23.7-13.822-23.7-13.823,23.7-13.823,23.7h55.291Z" transform="translate(910.076 252.756)" fill="#66cbe4"/><path d="M82.936,284.352l-13.823-23.7-13.822-23.7-13.823,23.7-13.823,23.7H82.936Z" transform="translate(1131.238 252.756)" fill="#66cbe4"/><path d="M13.823,260.656,0,284.352H27.646V236.96Z" transform="translate(1214.175 252.757)" fill="#66cbe4"/><path d="M331.744,236.96l-13.823-23.7-13.822-23.7-13.823,23.7-13.823,23.7h55.291Z" transform="translate(633.623 347.54)" fill="#66cbe4"/><path d="M110.581,236.96h55.291l-13.823-23.7-13.823-23.7-13.822,23.7Z" transform="translate(965.367 347.54)" fill="#66cbe4"/><path d="M27.645,189.568l-.46.789L13.822,213.264,0,236.96H54.37v-1.577l-12.9-22.119Z" transform="translate(1187.449 347.54)" fill="#66cbe4"/><path d="M304.1,189.568l-13.823-23.7-13.822-23.7-13.823,23.7-13.823,23.7H304.1Z" transform="translate(688.914 442.324)" fill="#66cbe4"/><path d="M221.162,142.176l-13.823,23.7-13.822,23.7h55.29l-13.822-23.7Z" transform="translate(799.495 442.324)" fill="#66cbe4"/><path d="M193.517,189.568l-13.823-23.7-13.822-23.7-13.823,23.7-13.823,23.7h55.291Z" transform="translate(910.076 442.324)" fill="#66cbe4"/><path d="M27.645,189.568H82.936l-13.823-23.7-13.823-23.7-13.822,23.7Z" transform="translate(1131.239 442.324)" fill="#66cbe4"/><path d="M0,189.568H27.645V142.176l-13.822,23.7Z" transform="translate(1214.174 442.324)" fill="#66cbe4"/><path d="M331.744,142.176l-13.823-23.7L304.1,94.784l-13.823,23.7-13.823,23.7h55.291Z" transform="translate(633.623 537.108)" fill="#66cbe4"/><path d="M221.163,142.176l-13.823-23.7-13.822-23.7-13.823,23.7-13.823,23.7h55.291Z" transform="translate(854.785 537.108)" fill="#66cbe4"/><path d="M110.581,142.176h55.291l-13.823-23.7-13.823-23.7L124.4,118.48Z" transform="translate(965.367 537.108)" fill="#66cbe4"/><path d="M27.645,94.784l-13.823,23.7L0,142.176H55.29l-13.822-23.7Z" transform="translate(1186.529 537.108)" fill="#66cbe4"/><path d="M414.68,94.784l-13.823-23.7-13.822-23.7-13.823,23.7-13.823,23.7H414.68Z" transform="translate(467.751 631.892)" fill="#66cbe4"/><path d="M276.453,47.392l-13.823,23.7-13.822,23.7H304.1l-13.822-23.7Z" transform="translate(688.914 631.892)" fill="#66cbe4"/><path d="M221.162,47.392l-13.823,23.7-13.822,23.7h55.29l-13.822-23.7Z" transform="translate(799.495 631.892)" fill="#66cbe4"/><path d="M165.872,47.392l-13.823,23.7-13.822,23.7h55.29l-13.822-23.7Z" transform="translate(910.076 631.892)" fill="#66cbe4"/><path d="M138.227,94.784,124.4,71.088l-13.822-23.7-13.823,23.7-13.823,23.7h55.291Z" transform="translate(1020.657 631.892)" fill="#66cbe4"/><path d="M27.645,94.784H82.936l-13.823-23.7L55.29,47.392l-13.822,23.7Z" transform="translate(1131.239 631.892)" fill="#66cbe4"/><path d="M0,94.784H27.645V47.392l-13.822,23.7Z" transform="translate(1214.174 631.892)" fill="#66cbe4"/><path d="M414.679,0,400.856,23.7l-13.822,23.7h55.29L428.5,23.7Z" transform="translate(412.461 726.676)" fill="#66cbe4"/><path d="M304.1,0,290.275,23.7l-13.822,23.7h55.29L317.921,23.7Z" transform="translate(633.624 726.676)" fill="#66cbe4"/><path d="M276.453,47.392,262.63,23.7,248.808,0,234.985,23.7l-13.823,23.7h55.291Z" transform="translate(744.204 726.676)" fill="#66cbe4"/><path d="M138.226,0,124.4,23.7l-13.822,23.7h55.29L152.049,23.7Z" transform="translate(965.367 726.676)" fill="#66cbe4"/><path d="M82.936,0,69.113,23.7l-13.822,23.7h55.29L96.759,23.7Z" transform="translate(1075.948 726.676)" fill="#66cbe4"/><path d="M27.645,0,13.822,23.7,0,47.392H55.29L41.468,23.7Z" transform="translate(1186.529 726.676)" fill="#66cbe4"/><path d="M165.872,142.176l13.823-23.7,13.822-23.7h-55.29l13.822,23.7Z" transform="translate(910.076 537.108)" fill="#d9f2f8"/><path d="M110.581,236.96H55.291l13.823,23.7,13.823,23.7,13.822-23.7Z" transform="translate(1075.948 252.756)" fill="#b5e6f2"/><path d="M110.581,236.96l13.823-23.7,13.822-23.7H82.936l13.822,23.7Z" transform="translate(1020.658 347.54)" fill="#6dcde5"/><path d="M221.163,47.392H165.872l13.823,23.7,13.823,23.7,13.822-23.7Z" transform="translate(854.785 631.892)" fill="#6dcde5"/><path d="M110.581,142.176l13.823-23.7,13.822-23.7H82.936l13.822,23.7Z" transform="translate(1020.658 537.108)" fill="#f4fbfd"/><path d="M165.872,47.392H110.581l13.823,23.7,13.823,23.7,13.822-23.7Z" transform="translate(965.367 631.892)" fill="#6dcde5"/><path d="M359.389,94.784l13.823-23.7,13.822-23.7h-55.29l13.822,23.7Z" transform="translate(523.042 631.892)" fill="#d9f2f8"/><path d="M193.517,379.135H138.226l13.823,23.7,13.823,23.7,13.822-23.7Z" transform="translate(910.076 -31.595)" fill="#d9f2f8"/><path d="M55.291,331.744l13.823-23.7,13.822-23.7H27.646l13.822,23.7Z" transform="translate(1131.239 157.972)" fill="#6dcde5"/><path d="M27.645,94.784l13.823,23.7,13.822,23.7,13.823-23.7,13.823-23.7H27.645Z" transform="translate(1131.239 537.108)" fill="#b5e6f2"/><path d="M0,47.392l13.823,23.7,13.822,23.7,13.823-23.7,13.823-23.7H0Z" transform="translate(1186.53 631.892)" fill="#b5e6f2"/><path d="M27.645,142.176H0l13.822,23.7,13.823,23.7,13.823-23.7,13.822-23.7H27.645Z" transform="translate(1186.529 442.324)" fill="#2bb7d9"/><path d="M55.291,426.527l-13.823,23.7-13.822,23.7h55.29l-13.822-23.7Z" transform="translate(1131.239 -126.379)" fill="#f4fbfd"/><path d="M55.291,426.527l-13.823-23.7-13.822-23.7-13.823,23.7L0,426.527H55.291Z" transform="translate(1186.529 -31.595)" fill="#d9f2f8"/><path d="M248.807,284.352l-13.823,23.7-13.822,23.7h55.29l-13.822-23.7Z" transform="translate(744.205 157.973)" fill="#f4fbfd"/><path d="M110.581,331.744l-13.823-23.7-13.822-23.7-13.823,23.7-13.823,23.7h55.291Z" transform="translate(1075.948 157.972)" fill="#d9f2f8"/><path d="M27.645,284.352l-13.823,23.7L0,331.744H55.29l-13.822-23.7Z" transform="translate(1186.529 157.973)" fill="#2bb7d9"/><path d="M193.517,284.352l-13.823-23.7-13.822-23.7-13.823,23.7-13.823,23.7h55.291Z" transform="translate(910.076 252.756)" fill="#6dcde5"/><path d="M82.936,284.352l-13.823-23.7-13.822-23.7-13.823,23.7-13.823,23.7H82.936Z" transform="translate(1131.238 252.756)" fill="#eaf8fb"/><path d="M13.823,260.656,0,284.352H27.646V236.96Z" transform="translate(1214.175 252.757)" fill="#b5e6f2"/><path d="M331.744,236.96l-13.823-23.7-13.822-23.7-13.823,23.7-13.823,23.7h55.291Z" transform="translate(633.623 347.54)" fill="#eaf8fb"/><path d="M110.581,236.96h55.291l-13.823-23.7-13.823-23.7-13.822,23.7Z" transform="translate(965.367 347.54)" fill="#2bb7d9"/><path d="M27.645,189.568l-.46.789L13.822,213.264,0,236.96H54.37v-1.577l-12.9-22.119Z" transform="translate(1187.449 347.54)" fill="#b5e6f2"/><path d="M304.1,189.568l-13.823-23.7-13.822-23.7-13.823,23.7-13.823,23.7H304.1Z" transform="translate(688.914 442.324)" fill="#6dcde5"/><path d="M221.162,142.176l-13.823,23.7-13.822,23.7h55.29l-13.822-23.7Z" transform="translate(799.495 442.324)" fill="#d9f2f8"/><path d="M193.517,189.568l-13.823-23.7-13.822-23.7-13.823,23.7-13.823,23.7h55.291Z" transform="translate(910.076 442.324)" fill="#6dcde5"/><path d="M27.645,189.568H82.936l-13.823-23.7-13.823-23.7-13.822,23.7Z" transform="translate(1131.239 442.324)" fill="#6dcde5"/><path d="M0,189.568H27.645V142.176l-13.822,23.7Z" transform="translate(1214.174 442.324)" fill="#6dcde5"/><path d="M331.744,142.176l-13.823-23.7L304.1,94.784l-13.823,23.7-13.823,23.7h55.291Z" transform="translate(633.623 537.108)" fill="#d9f2f8"/><path d="M221.163,142.176l-13.823-23.7-13.822-23.7-13.823,23.7-13.823,23.7h55.291Z" transform="translate(854.785 537.108)" fill="#b5e6f2"/><path d="M110.581,142.176h55.291l-13.823-23.7-13.823-23.7L124.4,118.48Z" transform="translate(965.367 537.108)" fill="#b5e6f2"/><path d="M27.645,94.784l-13.823,23.7L0,142.176H55.29l-13.822-23.7Z" transform="translate(1186.529 537.108)" fill="#d9f2f8"/><path d="M414.68,94.784l-13.823-23.7-13.822-23.7-13.823,23.7-13.823,23.7H414.68Z" transform="translate(467.751 631.892)" fill="#f4fbfd"/><path d="M276.453,47.392l-13.823,23.7-13.822,23.7H304.1l-13.822-23.7Z" transform="translate(688.914 631.892)" fill="#6dcde5"/><path d="M221.162,47.392l-13.823,23.7-13.822,23.7h55.29l-13.822-23.7Z" transform="translate(799.495 631.892)" fill="#2bb7d9"/><path d="M165.872,47.392l-13.823,23.7-13.822,23.7h55.29l-13.822-23.7Z" transform="translate(910.076 631.892)" fill="#b5e6f2"/><path d="M138.227,94.784,124.4,71.088l-13.822-23.7-13.823,23.7-13.823,23.7h55.291Z" transform="translate(1020.657 631.892)" fill="#2bb7d9"/><path d="M27.645,94.784H82.936l-13.823-23.7L55.29,47.392l-13.822,23.7Z" transform="translate(1131.239 631.892)" fill="#6dcde5"/><path d="M0,94.784H27.645V47.392l-13.822,23.7Z" transform="translate(1214.174 631.892)" fill="#d9f2f8"/><path d="M414.679,0,400.856,23.7l-13.822,23.7h55.29L428.5,23.7Z" transform="translate(412.461 726.676)" fill="#d9f2f8"/><path d="M304.1,0,290.275,23.7l-13.822,23.7h55.29L317.921,23.7Z" transform="translate(633.624 726.676)" fill="#d9f2f8"/><path d="M276.453,47.392,262.63,23.7,248.808,0,234.985,23.7l-13.823,23.7h55.291Z" transform="translate(744.204 726.676)" fill="#2bb7d9"/><path d="M138.226,0,124.4,23.7l-13.822,23.7h55.29L152.049,23.7Z" transform="translate(965.367 726.676)" fill="#b5e6f2"/><path d="M82.936,0,69.113,23.7l-13.822,23.7h55.29L96.759,23.7Z" transform="translate(1075.948 726.676)" fill="#6dcde5"/><path d="M27.645,0,13.822,23.7,0,47.392H55.29L41.468,23.7Z" transform="translate(1186.529 726.676)" fill="#b5e6f2"/></g></g></g></svg>