<svg xmlns="http://www.w3.org/2000/svg" xmlns:xlink="http://www.w3.org/1999/xlink" width="1241.82" height="774.068" viewBox="0 0 1241.82 774.068">
  <defs>
    <clipPath id="clip-path">
      <rect id="長方形_191" data-name="長方形 191" width="1241.82" height="774.068" transform="translate(-706 384.386)" fill="none"/>
    </clipPath>
    <clipPath id="clip-path-2">
      <rect id="長方形_190" data-name="長方形 190" width="1241.82" height="774.068" fill="none"/>
    </clipPath>
  </defs>
  <g id="グループ_361" data-name="グループ 361" transform="translate(706 -384.386)" clip-path="url(#clip-path)">
    <g id="グループ_360" data-name="グループ 360">
      <g id="グループ_359" data-name="グループ 359" clip-path="url(#clip-path-2)">
        <g id="グループ_358" data-name="グループ 358" opacity="0.8">
          <g id="グループ_357" data-name="グループ 357">
            <g id="グループ_356" data-name="グループ 356" transform="translate(-55 -1)" clip-path="url(#clip-path-2)">
              <path id="パス_1266" data-name="パス 1266" d="M55.291,236.96h-.92l-13.822-23.7L27.186,190.357l.46-.789,13.822,23.7Z" transform="translate(0 347.54)" fill="#66cbe4"/>
              <path id="パス_1267" data-name="パス 1267" d="M165.872,142.176l-13.823-23.7-13.822-23.7h55.29l-13.822,23.7Z" transform="translate(0 537.108)" fill="#66cbe4"/>
              <path id="パス_1268" data-name="パス 1268" d="M55.291,236.96h55.291l-13.823,23.7-13.823,23.7-13.822-23.7Z" transform="translate(0 252.756)" fill="#66cbe4"/>
              <path id="パス_1269" data-name="パス 1269" d="M110.581,236.96l-13.823-23.7-13.822-23.7h55.29l-13.822,23.7Z" transform="translate(0 347.54)" fill="#66cbe4"/>
              <path id="パス_1270" data-name="パス 1270" d="M165.872,47.392h55.291l-13.823,23.7-13.823,23.7-13.822-23.7Z" transform="translate(0 631.892)" fill="#66cbe4"/>
              <path id="パス_1271" data-name="パス 1271" d="M110.581,142.176l-13.823-23.7-13.822-23.7h55.29L124.4,118.48Z" transform="translate(0 537.108)" fill="#66cbe4"/>
              <path id="パス_1272" data-name="パス 1272" d="M110.581,47.392h55.291l-13.823,23.7-13.823,23.7L124.4,71.088Z" transform="translate(0 631.892)" fill="#66cbe4"/>
              <path id="パス_1273" data-name="パス 1273" d="M359.389,94.784l-13.823-23.7-13.822-23.7h55.29l-13.822,23.7Z" transform="translate(0 631.892)" fill="#66cbe4"/>
              <path id="パス_1274" data-name="パス 1274" d="M138.226,379.135h55.291l-13.823,23.7-13.823,23.7-13.822-23.7Z" transform="translate(0 -31.595)" fill="#66cbe4"/>
              <path id="パス_1275" data-name="パス 1275" d="M55.291,331.744l-13.823-23.7-13.822-23.7h55.29l-13.822,23.7Z" transform="translate(0 157.972)" fill="#66cbe4"/>
              <path id="パス_1276" data-name="パス 1276" d="M82.936,94.784l-13.823,23.7-13.822,23.7-13.823-23.7-13.823-23.7H82.936Z" transform="translate(0 537.108)" fill="#66cbe4"/>
              <path id="パス_1277" data-name="パス 1277" d="M55.29,47.392l-13.823,23.7-13.822,23.7-13.823-23.7L0,47.392H55.29Z" transform="translate(0 631.892)" fill="#66cbe4"/>
              <path id="パス_1278" data-name="パス 1278" d="M27.645,142.176H55.29l-13.822,23.7-13.823,23.7-13.823-23.7L0,142.176H27.645Z" transform="translate(0 442.324)" fill="#66cbe4"/>
              <path id="パス_1279" data-name="パス 1279" d="M55.291,426.527l13.823,23.7,13.822,23.7H27.646l13.822-23.7Z" transform="translate(0 -126.379)" fill="#66cbe4"/>
              <path id="パス_1280" data-name="パス 1280" d="M0,426.527l13.823-23.7,13.822-23.7,13.823,23.7,13.823,23.7H0Z" transform="translate(0 -31.595)" fill="#66cbe4"/>
              <path id="パス_1281" data-name="パス 1281" d="M248.808,284.352l13.823,23.7,13.822,23.7h-55.29l13.822-23.7Z" transform="translate(0 157.973)" fill="#66cbe4"/>
              <path id="パス_1282" data-name="パス 1282" d="M55.291,331.744l13.823-23.7,13.822-23.7,13.823,23.7,13.823,23.7H55.291Z" transform="translate(0 157.972)" fill="#66cbe4"/>
              <path id="パス_1283" data-name="パス 1283" d="M27.645,284.352l13.823,23.7,13.822,23.7H0l13.822-23.7Z" transform="translate(0 157.973)" fill="#66cbe4"/>
              <path id="パス_1284" data-name="パス 1284" d="M138.226,284.352l13.823-23.7,13.822-23.7,13.823,23.7,13.823,23.7H138.226Z" transform="translate(0 252.756)" fill="#66cbe4"/>
              <path id="パス_1285" data-name="パス 1285" d="M27.645,284.352l13.823-23.7,13.822-23.7,13.823,23.7,13.823,23.7H27.645Z" transform="translate(0 252.756)" fill="#66cbe4"/>
              <path id="パス_1286" data-name="パス 1286" d="M13.823,260.656l13.823,23.7H0V236.96Z" transform="translate(0 252.757)" fill="#66cbe4"/>
              <path id="パス_1287" data-name="パス 1287" d="M276.453,236.96l13.823-23.7,13.822-23.7,13.823,23.7,13.823,23.7H276.453Z" transform="translate(0 347.54)" fill="#66cbe4"/>
              <path id="パス_1288" data-name="パス 1288" d="M165.872,236.96H110.581l13.823-23.7,13.823-23.7,13.822,23.7Z" transform="translate(0 347.54)" fill="#66cbe4"/>
              <path id="パス_1289" data-name="パス 1289" d="M26.725,189.568l.46.789,13.363,22.907,13.822,23.7H0v-1.577l12.9-22.119Z" transform="translate(0 347.54)" fill="#66cbe4"/>
              <path id="パス_1290" data-name="パス 1290" d="M248.808,189.568l13.823-23.7,13.822-23.7,13.823,23.7,13.823,23.7H248.808Z" transform="translate(0 442.324)" fill="#66cbe4"/>
              <path id="パス_1291" data-name="パス 1291" d="M221.162,142.176l13.823,23.7,13.822,23.7h-55.29l13.822-23.7Z" transform="translate(0 442.324)" fill="#66cbe4"/>
              <path id="パス_1292" data-name="パス 1292" d="M138.226,189.568l13.823-23.7,13.822-23.7,13.823,23.7,13.823,23.7H138.226Z" transform="translate(0 442.324)" fill="#66cbe4"/>
              <path id="パス_1293" data-name="パス 1293" d="M82.936,189.568H27.645l13.823-23.7,13.823-23.7,13.822,23.7Z" transform="translate(0 442.324)" fill="#66cbe4"/>
              <path id="パス_1294" data-name="パス 1294" d="M27.645,189.568H0V142.176l13.822,23.7Z" transform="translate(0 442.324)" fill="#66cbe4"/>
              <path id="パス_1295" data-name="パス 1295" d="M276.453,142.176l13.823-23.7,13.822-23.7,13.823,23.7,13.823,23.7H276.453Z" transform="translate(0 537.108)" fill="#66cbe4"/>
              <path id="パス_1296" data-name="パス 1296" d="M165.872,142.176l13.823-23.7,13.822-23.7,13.823,23.7,13.823,23.7H165.872Z" transform="translate(0 537.108)" fill="#66cbe4"/>
              <path id="パス_1297" data-name="パス 1297" d="M165.872,142.176H110.581l13.823-23.7,13.823-23.7,13.822,23.7Z" transform="translate(0 537.108)" fill="#66cbe4"/>
              <path id="パス_1298" data-name="パス 1298" d="M27.645,94.784l13.823,23.7,13.822,23.7H0l13.822-23.7Z" transform="translate(0 537.108)" fill="#66cbe4"/>
              <path id="パス_1299" data-name="パス 1299" d="M359.389,94.784l13.823-23.7,13.822-23.7,13.823,23.7,13.823,23.7H359.389Z" transform="translate(0 631.892)" fill="#66cbe4"/>
              <path id="パス_1300" data-name="パス 1300" d="M276.453,47.392l13.823,23.7,13.822,23.7h-55.29l13.822-23.7Z" transform="translate(0 631.892)" fill="#66cbe4"/>
              <path id="パス_1301" data-name="パス 1301" d="M221.162,47.392l13.823,23.7,13.822,23.7h-55.29l13.822-23.7Z" transform="translate(0 631.892)" fill="#66cbe4"/>
              <path id="パス_1302" data-name="パス 1302" d="M165.872,47.392l13.823,23.7,13.822,23.7h-55.29l13.822-23.7Z" transform="translate(0 631.892)" fill="#66cbe4"/>
              <path id="パス_1303" data-name="パス 1303" d="M82.936,94.784l13.823-23.7,13.822-23.7,13.823,23.7,13.823,23.7H82.936Z" transform="translate(0 631.892)" fill="#66cbe4"/>
              <path id="パス_1304" data-name="パス 1304" d="M82.936,94.784H27.645l13.823-23.7,13.823-23.7,13.822,23.7Z" transform="translate(0 631.892)" fill="#66cbe4"/>
              <path id="パス_1305" data-name="パス 1305" d="M27.645,94.784H0V47.392l13.822,23.7Z" transform="translate(0 631.892)" fill="#66cbe4"/>
              <path id="パス_1306" data-name="パス 1306" d="M414.679,0,428.5,23.7l13.822,23.7h-55.29l13.822-23.7Z" transform="translate(0 726.676)" fill="#66cbe4"/>
              <path id="パス_1307" data-name="パス 1307" d="M304.1,0l13.823,23.7,13.822,23.7h-55.29l13.822-23.7Z" transform="translate(0 726.676)" fill="#66cbe4"/>
              <path id="パス_1308" data-name="パス 1308" d="M221.162,47.392l13.823-23.7L248.807,0,262.63,23.7l13.823,23.7H221.162Z" transform="translate(0 726.676)" fill="#66cbe4"/>
              <path id="パス_1309" data-name="パス 1309" d="M138.226,0l13.823,23.7,13.822,23.7h-55.29L124.4,23.7Z" transform="translate(0 726.676)" fill="#66cbe4"/>
              <path id="パス_1310" data-name="パス 1310" d="M82.936,0,96.759,23.7l13.822,23.7H55.291L69.113,23.7Z" transform="translate(0 726.676)" fill="#66cbe4"/>
              <path id="パス_1311" data-name="パス 1311" d="M27.645,0,41.468,23.7l13.822,23.7H0L13.822,23.7Z" transform="translate(0 726.676)" fill="#66cbe4"/>
              <path id="パス_1312" data-name="パス 1312" d="M165.872,142.176l-13.823-23.7-13.822-23.7h55.29l-13.822,23.7Z" transform="translate(0 537.108)" fill="#d9f2f8"/>
              <path id="パス_1313" data-name="パス 1313" d="M55.291,236.96h55.291l-13.823,23.7-13.823,23.7-13.822-23.7Z" transform="translate(0 252.756)" fill="#b5e6f2"/>
              <path id="パス_1314" data-name="パス 1314" d="M110.581,236.96l-13.823-23.7-13.822-23.7h55.29l-13.822,23.7Z" transform="translate(0 347.54)" fill="#6dcde5"/>
              <path id="パス_1315" data-name="パス 1315" d="M165.872,47.392h55.291l-13.823,23.7-13.823,23.7-13.822-23.7Z" transform="translate(0 631.892)" fill="#6dcde5"/>
              <path id="パス_1316" data-name="パス 1316" d="M110.581,142.176l-13.823-23.7-13.822-23.7h55.29L124.4,118.48Z" transform="translate(0 537.108)" fill="#f4fbfd"/>
              <path id="パス_1317" data-name="パス 1317" d="M110.581,47.392h55.291l-13.823,23.7-13.823,23.7L124.4,71.088Z" transform="translate(0 631.892)" fill="#6dcde5"/>
              <path id="パス_1318" data-name="パス 1318" d="M359.389,94.784l-13.823-23.7-13.822-23.7h55.29l-13.822,23.7Z" transform="translate(0 631.892)" fill="#d9f2f8"/>
              <path id="パス_1319" data-name="パス 1319" d="M138.226,379.135h55.291l-13.823,23.7-13.823,23.7-13.822-23.7Z" transform="translate(0 -31.595)" fill="#d9f2f8"/>
              <path id="パス_1320" data-name="パス 1320" d="M55.291,331.744l-13.823-23.7-13.822-23.7h55.29l-13.822,23.7Z" transform="translate(0 157.972)" fill="#6dcde5"/>
              <path id="パス_1321" data-name="パス 1321" d="M82.936,94.784l-13.823,23.7-13.822,23.7-13.823-23.7-13.823-23.7H82.936Z" transform="translate(0 537.108)" fill="#b5e6f2"/>
              <path id="パス_1322" data-name="パス 1322" d="M55.29,47.392l-13.823,23.7-13.822,23.7-13.823-23.7L0,47.392H55.29Z" transform="translate(0 631.892)" fill="#b5e6f2"/>
              <path id="パス_1323" data-name="パス 1323" d="M27.645,142.176H55.29l-13.822,23.7-13.823,23.7-13.823-23.7L0,142.176H27.645Z" transform="translate(0 442.324)" fill="#2bb7d9"/>
              <path id="パス_1324" data-name="パス 1324" d="M55.291,426.527l13.823,23.7,13.822,23.7H27.646l13.822-23.7Z" transform="translate(0 -126.379)" fill="#f4fbfd"/>
              <path id="パス_1325" data-name="パス 1325" d="M0,426.527l13.823-23.7,13.822-23.7,13.823,23.7,13.823,23.7H0Z" transform="translate(0 -31.595)" fill="#d9f2f8"/>
              <path id="パス_1326" data-name="パス 1326" d="M248.808,284.352l13.823,23.7,13.822,23.7h-55.29l13.822-23.7Z" transform="translate(0 157.973)" fill="#f4fbfd"/>
              <path id="パス_1327" data-name="パス 1327" d="M55.291,331.744l13.823-23.7,13.822-23.7,13.823,23.7,13.823,23.7H55.291Z" transform="translate(0 157.972)" fill="#d9f2f8"/>
              <path id="パス_1328" data-name="パス 1328" d="M27.645,284.352l13.823,23.7,13.822,23.7H0l13.822-23.7Z" transform="translate(0 157.973)" fill="#2bb7d9"/>
              <path id="パス_1329" data-name="パス 1329" d="M138.226,284.352l13.823-23.7,13.822-23.7,13.823,23.7,13.823,23.7H138.226Z" transform="translate(0 252.756)" fill="#6dcde5"/>
              <path id="パス_1330" data-name="パス 1330" d="M27.645,284.352l13.823-23.7,13.822-23.7,13.823,23.7,13.823,23.7H27.645Z" transform="translate(0 252.756)" fill="#eaf8fb"/>
              <path id="パス_1331" data-name="パス 1331" d="M13.823,260.656l13.823,23.7H0V236.96Z" transform="translate(0 252.757)" fill="#b5e6f2"/>
              <path id="パス_1332" data-name="パス 1332" d="M276.453,236.96l13.823-23.7,13.822-23.7,13.823,23.7,13.823,23.7H276.453Z" transform="translate(0 347.54)" fill="#eaf8fb"/>
              <path id="パス_1333" data-name="パス 1333" d="M165.872,236.96H110.581l13.823-23.7,13.823-23.7,13.822,23.7Z" transform="translate(0 347.54)" fill="#2bb7d9"/>
              <path id="パス_1334" data-name="パス 1334" d="M26.725,189.568l.46.789,13.363,22.907,13.822,23.7H0v-1.577l12.9-22.119Z" transform="translate(0 347.54)" fill="#b5e6f2"/>
              <path id="パス_1335" data-name="パス 1335" d="M248.808,189.568l13.823-23.7,13.822-23.7,13.823,23.7,13.823,23.7H248.808Z" transform="translate(0 442.324)" fill="#6dcde5"/>
              <path id="パス_1336" data-name="パス 1336" d="M221.162,142.176l13.823,23.7,13.822,23.7h-55.29l13.822-23.7Z" transform="translate(0 442.324)" fill="#d9f2f8"/>
              <path id="パス_1337" data-name="パス 1337" d="M138.226,189.568l13.823-23.7,13.822-23.7,13.823,23.7,13.823,23.7H138.226Z" transform="translate(0 442.324)" fill="#6dcde5"/>
              <path id="パス_1338" data-name="パス 1338" d="M82.936,189.568H27.645l13.823-23.7,13.823-23.7,13.822,23.7Z" transform="translate(0 442.324)" fill="#6dcde5"/>
              <path id="パス_1339" data-name="パス 1339" d="M27.645,189.568H0V142.176l13.822,23.7Z" transform="translate(0 442.324)" fill="#6dcde5"/>
              <path id="パス_1340" data-name="パス 1340" d="M276.453,142.176l13.823-23.7,13.822-23.7,13.823,23.7,13.823,23.7H276.453Z" transform="translate(0 537.108)" fill="#d9f2f8"/>
              <path id="パス_1341" data-name="パス 1341" d="M165.872,142.176l13.823-23.7,13.822-23.7,13.823,23.7,13.823,23.7H165.872Z" transform="translate(0 537.108)" fill="#b5e6f2"/>
              <path id="パス_1342" data-name="パス 1342" d="M165.872,142.176H110.581l13.823-23.7,13.823-23.7,13.822,23.7Z" transform="translate(0 537.108)" fill="#b5e6f2"/>
              <path id="パス_1343" data-name="パス 1343" d="M27.645,94.784l13.823,23.7,13.822,23.7H0l13.822-23.7Z" transform="translate(0 537.108)" fill="#d9f2f8"/>
              <path id="パス_1344" data-name="パス 1344" d="M359.389,94.784l13.823-23.7,13.822-23.7,13.823,23.7,13.823,23.7H359.389Z" transform="translate(0 631.892)" fill="#f4fbfd"/>
              <path id="パス_1345" data-name="パス 1345" d="M276.453,47.392l13.823,23.7,13.822,23.7h-55.29l13.822-23.7Z" transform="translate(0 631.892)" fill="#6dcde5"/>
              <path id="パス_1346" data-name="パス 1346" d="M221.162,47.392l13.823,23.7,13.822,23.7h-55.29l13.822-23.7Z" transform="translate(0 631.892)" fill="#2bb7d9"/>
              <path id="パス_1347" data-name="パス 1347" d="M165.872,47.392l13.823,23.7,13.822,23.7h-55.29l13.822-23.7Z" transform="translate(0 631.892)" fill="#b5e6f2"/>
              <path id="パス_1348" data-name="パス 1348" d="M82.936,94.784l13.823-23.7,13.822-23.7,13.823,23.7,13.823,23.7H82.936Z" transform="translate(0 631.892)" fill="#2bb7d9"/>
              <path id="パス_1349" data-name="パス 1349" d="M82.936,94.784H27.645l13.823-23.7,13.823-23.7,13.822,23.7Z" transform="translate(0 631.892)" fill="#6dcde5"/>
              <path id="パス_1350" data-name="パス 1350" d="M27.645,94.784H0V47.392l13.822,23.7Z" transform="translate(0 631.892)" fill="#d9f2f8"/>
              <path id="パス_1351" data-name="パス 1351" d="M414.679,0,428.5,23.7l13.822,23.7h-55.29l13.822-23.7Z" transform="translate(0 726.676)" fill="#d9f2f8"/>
              <path id="パス_1352" data-name="パス 1352" d="M304.1,0l13.823,23.7,13.822,23.7h-55.29l13.822-23.7Z" transform="translate(0 726.676)" fill="#d9f2f8"/>
              <path id="パス_1353" data-name="パス 1353" d="M221.162,47.392l13.823-23.7L248.807,0,262.63,23.7l13.823,23.7H221.162Z" transform="translate(0 726.676)" fill="#2bb7d9"/>
              <path id="パス_1354" data-name="パス 1354" d="M138.226,0l13.823,23.7,13.822,23.7h-55.29L124.4,23.7Z" transform="translate(0 726.676)" fill="#b5e6f2"/>
              <path id="パス_1355" data-name="パス 1355" d="M82.936,0,96.759,23.7l13.822,23.7H55.291L69.113,23.7Z" transform="translate(0 726.676)" fill="#6dcde5"/>
              <path id="パス_1356" data-name="パス 1356" d="M27.645,0,41.468,23.7l13.822,23.7H0L13.822,23.7Z" transform="translate(0 726.676)" fill="#b5e6f2"/>
            </g>
          </g>
        </g>
      </g>
    </g>
  </g>
</svg>
