<svg xmlns="http://www.w3.org/2000/svg" xmlns:xlink="http://www.w3.org/1999/xlink" width="528.27" height="151.765" viewBox="0 0 528.27 151.765"><defs><clipPath id="a"><rect width="162.27" height="151.765" fill="none"/></clipPath><clipPath id="b"><rect width="162.27" height="151.765" transform="translate(183)" fill="none"/></clipPath><clipPath id="c"><rect width="162.27" height="151.765" transform="translate(366)" fill="none"/></clipPath></defs><g transform="translate(264.135 75.883)"><g transform="translate(-264.135 -75.882)"><g clip-path="url(#a)"><path d="M35.24,23.669a23.387,23.387,0,0,0,8.645-2.55,6.448,6.448,0,0,0-2.485-2.29,7.115,7.115,0,0,0-1.8-.645,10.133,10.133,0,0,0-2.168-.237,13.629,13.629,0,0,0-3.078.45q-.768.229-1.542.54a11.739,11.739,0,0,0-1.524.714,57.134,57.134,0,0,1,8.542-5.8,7.055,7.055,0,0,0,2.509,2.069,11.881,11.881,0,0,0,3.653,1.18,23.546,23.546,0,0,0,8.954-.279,6.458,6.458,0,0,0-1.818-2.85,7.09,7.09,0,0,0-1.569-1.078,10.079,10.079,0,0,0-2.034-.778,12.826,12.826,0,0,0-1.594-.263c-.275-.029-.553-.05-.836-.063a7.123,7.123,0,0,0-.852,0c-.568.029-1.147.087-1.732.173-.292.044-.588.09-.881.152s-.579.147-.868.231c.329-.157.653-.327.987-.473l1.007-.429,1.007-.43c.169-.07.334-.147.505-.211l.514-.188A18.681,18.681,0,0,0,49,10.74c.761.022,1.545.026,2.334-.03q.3-.02.6-.048c.2-.017.4-.023.606-.039q.609-.044,1.226-.123c.412-.047.821-.131,1.242-.183s.843-.123,1.267-.2A31.542,31.542,0,0,0,65.859,6.83,14.2,14.2,0,0,0,61.14,5.3q-.67-.1-1.372-.162-.7-.025-1.42-.01c-.481.01-.971.036-1.465.075a14.884,14.884,0,0,0-1.485.231q-.7.132-1.368.3c-.448.107-.878.269-1.3.415s-.837.314-1.239.483c-.2.087-.4.167-.593.265s-.381.2-.567.3a17.842,17.842,0,0,0-2.067,1.317,16.577,16.577,0,0,0-1.679,1.533c-.6.2-1.176.455-1.76.692l-.874.362c-.29.122-.586.234-.868.376-1.136.547-2.292,1.056-3.39,1.68a30.036,30.036,0,0,0,5.014-4.9l.369-.5c.121-.159.238-.317.349-.476q.334-.477.612-.953A10.7,10.7,0,0,0,46.9,4.445,6.21,6.21,0,0,0,47.223.994c-.493.169-.991.325-1.465.538s-.943.429-1.4.659-.908.467-1.341.725-.843.551-1.244.838-.787.584-1.157.887a13.635,13.635,0,0,0-1.038.973q-.49.5-.923,1.017a9.965,9.965,0,0,0-.794,1.058A12.066,12.066,0,0,0,36.8,9.7a9.181,9.181,0,0,0-.329.954,7.477,7.477,0,0,0-.185.938,5.975,5.975,0,0,0,.423,3.269,58.711,58.711,0,0,0-8.311,6.2l.986-1.372q.48-.687.9-1.4c.274-.486.56-.942.812-1.421s.487-.961.695-1.452l.233-.572q.116-.274.218-.548.2-.544.352-1.075a10.566,10.566,0,0,0,.373-2.041A6.217,6.217,0,0,0,32.4,7.765c-.432.286-.871.563-1.274.886s-.8.648-1.184.984-.757.676-1.109,1.032-.675.739-.989,1.115-.614.758-.9,1.141a14,14,0,0,0-.759,1.194q-.349.6-.64,1.208a10.1,10.1,0,0,0-.506,1.217,12.038,12.038,0,0,0-.535,2.183,9.173,9.173,0,0,0-.088.994,7.44,7.44,0,0,0,.042.944,6.038,6.038,0,0,0,1.158,3.054,62.333,62.333,0,0,0-6.417,7.7c.1-.251.2-.494.305-.737s.2-.49.291-.736q.277-.74.5-1.492a20.311,20.311,0,0,0,.732-2.965c.062-.416.126-.809.171-1.193s.072-.76.084-1.126a10.516,10.516,0,0,0-.13-2.067,6.214,6.214,0,0,0-1.372-3.178c-.349.379-.7.752-1.018,1.158s-.618.816-.908,1.231-.567.835-.826,1.259-.476.873-.691,1.312A15.355,15.355,0,0,0,15.3,25.53a15.053,15.053,0,0,0-.543,2.615,9.887,9.887,0,0,0,.381,4.091,6.12,6.12,0,0,0,1.791,2.7l-.631,1.036c-.2.351-.39.708-.585,1.062L15.127,38.1l-.29.533-.266.545-1.059,2.183-.96,2.229a25.694,25.694,0,0,0,.346-2.954,18.6,18.6,0,0,0,.019-2.881,12.587,12.587,0,0,0-.878-4.289,6.192,6.192,0,0,0-2.073-2.776,18.548,18.548,0,0,0-2.56,11.067A10.05,10.05,0,0,0,8.673,45.61a6.11,6.11,0,0,0,2.306,2.23l-.362,1.119c-.12.373-.247.745-.343,1.125l-.618,2.27c-.193.76-.347,1.53-.522,2.295-.08.384-.18.764-.245,1.151l-.2,1.16q-.049-.709-.143-1.41c-.046-.464-.1-.923-.173-1.378s-.161-.905-.265-1.349c-.051-.222-.109-.443-.166-.661s-.106-.432-.166-.645c-.92-3.177-2.423-5.366-4.458-6.222a21.188,21.188,0,0,0-.91,5.927,21.546,21.546,0,0,0,.216,2.825A14.761,14.761,0,0,0,3.3,56.629a9.448,9.448,0,0,0,2.049,3.449,6.061,6.061,0,0,0,2.667,1.68c-.106,1.517-.268,3.032-.28,4.554L7.7,67.451l-.017.57.009.57.037,2.287a21.089,21.089,0,0,0-.87-2.494,21.784,21.784,0,0,0-1.08-2.319,13.535,13.535,0,0,0-2.634-3.487A6.347,6.347,0,0,0,.054,60.966,18.759,18.759,0,0,0,2.487,72.007C4.109,74.586,6.181,75.831,8.128,76c.065.737.183,1.467.294,2.2s.2,1.465.361,2.188l.43,2.177.522,2.157A22.29,22.29,0,0,0,8.4,82.609,18.014,18.014,0,0,0,6.927,80.69a18.551,18.551,0,0,0-1.641-1.653A10.406,10.406,0,0,0,3.6,77.843a7.672,7.672,0,0,0-1.68-.713,5.414,5.414,0,0,0-1.66-.2A19.8,19.8,0,0,0,.906,79.9c.143.482.275.96.46,1.422s.37.915.572,1.356.414.87.636,1.284a13.454,13.454,0,0,0,.747,1.189q.388.571.8,1.091c.139.173.277.342.421.505s.3.319.455.471c2.122,2.142,4.381,2.917,6.3,2.686.218.686.487,1.352.746,2.023s.507,1.346.808,2,.573,1.319.87,1.974l.951,1.937A20.969,20.969,0,0,0,13,96.188a18.512,18.512,0,0,0-1.758-1.455c-2.657-1.962-5.216-2.771-7.331-2.217a20.281,20.281,0,0,0,1.281,2.767,18.209,18.209,0,0,0,1.623,2.49c.3.386.585.764.91,1.113s.654.683.989,1,.676.613,1.021.891a13.141,13.141,0,0,0,2.921,1.715,8.324,8.324,0,0,0,1.758.494,6.23,6.23,0,0,0,3.063-.209,66.91,66.91,0,0,0,4.931,6.794,24.63,24.63,0,0,0-3.821-2.1,13.607,13.607,0,0,0-4.232-1.133,7.435,7.435,0,0,0-1.837.087,5.425,5.425,0,0,0-1.586.532,25.156,25.156,0,0,0,1.868,2.421,22.552,22.552,0,0,0,2.149,2.067,15.771,15.771,0,0,0,4.768,2.757,9.58,9.58,0,0,0,3.793.6,6.8,6.8,0,0,0,1.57-.268,5.812,5.812,0,0,0,1.345-.6l1.481,1.414c.5.461,1.025.9,1.538,1.353.26.221.509.455.778.666l.8.638c.539.419,1.058.866,1.62,1.254-.677-.211-1.322-.444-1.99-.615s-1.345-.3-1.99-.433a14.556,14.556,0,0,0-2.328-.244h-.545c-.179,0-.348,0-.519.014a9.383,9.383,0,0,0-.989.1,6.283,6.283,0,0,0-3.189,1.389,18.42,18.42,0,0,0,10.279,5.02,10.266,10.266,0,0,0,3.79-.305,6.361,6.361,0,0,0,2.619-1.523c1.132.7,2.326,1.292,3.5,1.92,1.207.561,2.4,1.159,3.641,1.642a26.848,26.848,0,0,0-3.868-.009c-.209.019-.414.04-.616.065s-.394.04-.587.066q-.577.077-1.115.194a10.648,10.648,0,0,0-1.979.63A6.181,6.181,0,0,0,34,129.27c.456.249.911.5,1.381.711s.951.4,1.43.584.954.353,1.438.492.974.251,1.456.353.96.189,1.434.256a12.942,12.942,0,0,0,1.421.1,12.786,12.786,0,0,0,2.694-.141,12.175,12.175,0,0,0,1.956-.474,6.651,6.651,0,0,0,.846-.342q.39-.186.759-.409a6.291,6.291,0,0,0,2.145-2.072c.309.1.625.176.941.255l.946.237.946.237c.315.081.637.132.954.2l1.913.38,1.93.284q-.909.169-1.793.418c-.588.163-1.158.312-1.719.512a14.164,14.164,0,0,0-3.916,2.011,7.49,7.49,0,0,0-1.315,1.3,5.369,5.369,0,0,0-.827,1.456,24.992,24.992,0,0,0,3.062.541,22.623,22.623,0,0,0,3.025.077,12.728,12.728,0,0,0,1.459-.141q.717-.1,1.4-.248c.227-.049.452-.1.673-.157a1.587,1.587,0,0,0,.275-.1l.252-.1c.334-.142.666-.3.991-.457a10.662,10.662,0,0,0,4.669-3.978,43.23,43.23,0,0,1,6.838,2.35,12.073,12.073,0,0,0-1.625.014,10.947,10.947,0,0,0-1.549.244,6.963,6.963,0,0,0-5.374,4.653,24.7,24.7,0,0,0,8.642.4,14.2,14.2,0,0,0,3.156-.813,8.538,8.538,0,0,0,2.447-1.452,26.37,26.37,0,0,1,3.78,2.926,20.752,20.752,0,0,1,3.045,3.6,33.944,33.944,0,0,1,3.916,8.791l2.646-.834a47.286,47.286,0,0,0-2.161-5.6,26.754,26.754,0,0,0-3.2-5.217,24,24,0,0,0-2.07-2.288c-.376-.348-.753-.7-1.141-1.031s-.783-.658-1.195-.956a37.325,37.325,0,0,0-5.116-3.2,7.656,7.656,0,0,0-2.006-6.2,15.247,15.247,0,0,0-4.407-3.6,20.252,20.252,0,0,0-5.905-2.14c-.186,2.2,1.111,4.566,3.47,6.932a28.616,28.616,0,0,0,2.6,2.308,45.892,45.892,0,0,0-7.445-1.89,6.179,6.179,0,0,0-1.084-2.766,8.341,8.341,0,0,0-.524-.675q-.144-.168-.3-.334l-.161-.166c-.052-.055-.091-.109-.138-.164a13.3,13.3,0,0,0-1.213-1.266A23.78,23.78,0,0,0,51.07,118.1a7.121,7.121,0,0,0,2.027,6.873,13.083,13.083,0,0,0,1.263,1.16,12.331,12.331,0,0,0,1.477.982l-.924-.173-.462-.087-.451-.1-1.829-.437c-.609-.151-1.206-.345-1.809-.515l-.9-.263-.89-.306a7.738,7.738,0,0,0-.4-2.9,12.581,12.581,0,0,0-1.472-3.065,23.38,23.38,0,0,0-6.3-6.414,6.4,6.4,0,0,0-.847,3.266,7.37,7.37,0,0,0,.065.939,7.993,7.993,0,0,0,.2.956,10.368,10.368,0,0,0,.811,2.022,12.616,12.616,0,0,0,1.005,1.514q.283.371.6.732c.21.24.439.456.672.68a53.453,53.453,0,0,1-6.753-3.767,7.962,7.962,0,0,0,.374-2.944,10.637,10.637,0,0,0-.208-1.649q-.086-.422-.207-.85c-.077-.29-.159-.592-.256-.891a23.613,23.613,0,0,0-4.61-7.786,6.3,6.3,0,0,0-1.589,2.962,7.984,7.984,0,0,0-.2,1.918,9.606,9.606,0,0,0,.315,2.146q.119.463.274.928t.372.906a15.987,15.987,0,0,0,.966,1.79,64.248,64.248,0,0,1-5.82-5.442,7.675,7.675,0,0,0,1.109-2.8,10.564,10.564,0,0,0,.183-1.664,13.125,13.125,0,0,0-.032-1.839,23.259,23.259,0,0,0-2.7-8.7c-1.843,1.192-3.108,3.387-3.056,6.515a13.318,13.318,0,0,0,.218,2.06,16.746,16.746,0,0,0,.6,2.072l-1.229-1.642L19.5,102.6c-.4-.557-.739-1.15-1.1-1.729L17.859,100c-.184-.288-.339-.594-.51-.89A7.457,7.457,0,0,0,19.1,96.626c.112-.248.211-.5.308-.771s.192-.548.274-.835a12.95,12.95,0,0,0,.377-1.818,23.044,23.044,0,0,0-.674-9.107,6.446,6.446,0,0,0-2.756,1.974,7.782,7.782,0,0,0-1,1.629,9.676,9.676,0,0,0-.39.984,7.93,7.93,0,0,0-.3,1.092,13.682,13.682,0,0,0-.242,2.183,9.181,9.181,0,0,0,.029,1.137q.044.571.124,1.157c-.284-.645-.592-1.279-.857-1.933l-.785-1.964c-.257-.657-.472-1.329-.71-1.992-.114-.334-.239-.664-.343-1l-.3-1.013a7.33,7.33,0,0,0,2.289-2.035,11.954,11.954,0,0,0,1.72-3.167A22.834,22.834,0,0,0,17.2,72.078a6.445,6.445,0,0,0-3.12,1.331,8.9,8.9,0,0,0-2.455,3.252,13.828,13.828,0,0,0-.745,2.206,9.391,9.391,0,0,0-.221,1.189q-.081.6-.123,1.231A61.354,61.354,0,0,1,9.285,72.66,7.274,7.274,0,0,0,12,71.178a12.406,12.406,0,0,0,1.252-1.228A12.8,12.8,0,0,0,14.4,68.425a22.6,22.6,0,0,0,3.23-8.583,6.255,6.255,0,0,0-3.3.638,7.989,7.989,0,0,0-1.614,1.057,7.7,7.7,0,0,0-.772.728,11.156,11.156,0,0,0-.711.868,12.368,12.368,0,0,0-1.272,2.123A18.019,18.019,0,0,0,9.084,67.7l.041-2.251.011-.563.037-.561.074-1.123.076-1.128c.019-.375.078-.746.116-1.12L9.7,58.725a7.384,7.384,0,0,0,3.036-.847,10.064,10.064,0,0,0,1.49-.939c.122-.092.242-.187.364-.286s.252-.2.377-.3q.375-.313.74-.665.406-.392.779-.813c.247-.281.483-.572.734-.864a16.171,16.171,0,0,0,1.333-1.862,18.334,18.334,0,0,0,1.171-2l.52-1.04q.254-.525.472-1.065a6.351,6.351,0,0,0-3.372-.11,7.826,7.826,0,0,0-.9.27,6.431,6.431,0,0,0-.9.405,10.383,10.383,0,0,0-1.794,1.233,10.944,10.944,0,0,0-1.777,1.916q-.406.539-.779,1.127c-.237.4-.448.808-.655,1.231A60.53,60.53,0,0,1,13.151,45.2a9.463,9.463,0,0,0,6.584-1.629,23.435,23.435,0,0,0,6.58-6.3,6.408,6.408,0,0,0-3.267-.872,7.055,7.055,0,0,0-1.9.258,10.481,10.481,0,0,0-2.037.791,13.082,13.082,0,0,0-2.275,1.574,9.891,9.891,0,0,0-1.04,1.007q-.5.539-.964,1.131A59.292,59.292,0,0,1,19.5,32.764a7.091,7.091,0,0,0,3.13.6,11.714,11.714,0,0,0,3.712-.672A23.265,23.265,0,0,0,34.173,28.1,6.442,6.442,0,0,0,31.2,26.489a8.738,8.738,0,0,0-4.067.107,14.136,14.136,0,0,0-2.74,1.082,17.753,17.753,0,0,0-2.561,1.773,60.7,60.7,0,0,1,6.688-7.365,7.069,7.069,0,0,0,2.923,1.353,11.809,11.809,0,0,0,3.8.228" fill="#2bb7d9"/><path d="M134.437,14.256a16.628,16.628,0,0,0-1.282-2.357q-.19-.292-.394-.585a6.073,6.073,0,0,0-.439-.557q-.452-.555-.954-1.1A14.371,14.371,0,0,0,130.313,8.6q-.562-.5-1.165-.974c-.4-.314-.81-.63-1.238-.919s-.877-.55-1.327-.809a6.2,6.2,0,0,0-.367,3.447,12.012,12.012,0,0,0,.49,2.013,14.992,14.992,0,0,0,.93,2.141,19.925,19.925,0,0,0,1.692,2.824q.467.7.99,1.377c.347.45.724.874,1.083,1.328a57.875,57.875,0,0,0-8.716-5.78,6.007,6.007,0,0,0,.248-3.3,9.855,9.855,0,0,0-1.808-3.821,16.676,16.676,0,0,0-1.834-1.97c-.172-.158-.349-.316-.53-.47s-.374-.289-.568-.431q-.581-.424-1.206-.826a14.434,14.434,0,0,0-1.294-.758q-.673-.34-1.381-.65c-.471-.2-.949-.4-1.437-.579s-.992-.309-1.5-.446a6.2,6.2,0,0,0,.527,3.427,11.924,11.924,0,0,0,.988,1.827,15.245,15.245,0,0,0,1.444,1.838q.563.657,1.191,1.267.313.3.643.6c.219.194.445.381.666.585q.67.6,1.394,1.14c.24.182.487.355.733.532s.489.367.739.543c-.335-.155-.664-.324-1-.468l-1.023-.423-1.023-.423c-.171-.069-.34-.145-.513-.208l-.522-.185a16.578,16.578,0,0,0-1.679-1.533A18.03,18.03,0,0,0,111.87,7.2q-.279-.154-.567-.3c-.193-.1-.392-.178-.593-.265q-.6-.255-1.239-.483c-.425-.147-.855-.308-1.3-.415s-.9-.209-1.368-.3c-.5-.091-.992-.182-1.485-.231s-.983-.065-1.465-.075-.956-.008-1.421.01q-.7.062-1.371.162a14.2,14.2,0,0,0-4.719,1.528,31.542,31.542,0,0,0,9.584,3.287q.637.122,1.267.2c.421.053.83.136,1.242.184s.82.093,1.226.123c.2.016.407.022.606.039s.4.035.6.048c.79.056,1.573.052,2.334.03a18.569,18.569,0,0,0,2.211-.131c.591.2,1.158.463,1.733.7l.86.367c.286.124.577.238.854.381,1.117.554,2.254,1.068,3.332,1.7a13.286,13.286,0,0,0-6.653-.584c-.19.034-.373.068-.555.114s-.361.1-.535.158a9.6,9.6,0,0,0-.984.378,7.693,7.693,0,0,0-1.63.981,6.44,6.44,0,0,0-1.985,2.739,23.536,23.536,0,0,0,8.928.814A12.731,12.731,0,0,0,120.743,18q.467-.125.9-.282c.289-.1.564-.2.831-.322a7.107,7.107,0,0,0,2.626-1.92,58.005,58.005,0,0,1,8.133,6.209c-.237-.147-.476-.288-.715-.423s-.5-.245-.745-.359q-.748-.34-1.5-.6a10.015,10.015,0,0,0-1.514-.4,13.183,13.183,0,0,0-1.494-.206c-.193-.014-.38-.026-.567-.028s-.376.008-.558.018a9.7,9.7,0,0,0-1.049.118,7.725,7.725,0,0,0-1.828.538,6.432,6.432,0,0,0-2.616,2.146,23.357,23.357,0,0,0,8.5,3.044,12.766,12.766,0,0,0,1.982.139,8.73,8.73,0,0,0,.937-.049c.3-.027.592-.058.878-.107a7.127,7.127,0,0,0,2.993-1.19,61.507,61.507,0,0,1,6.237,7.65,7.414,7.414,0,0,0-.585-.522q-.3-.249-.609-.483-.613-.467-1.243-.867A13.3,13.3,0,0,0,137.1,28.9a7.621,7.621,0,0,0-1.094-.277,9.725,9.725,0,0,0-1.048-.138,7.757,7.757,0,0,0-1.907.081,6.429,6.429,0,0,0-3.06,1.45,23.114,23.114,0,0,0,7.575,5.012,11.983,11.983,0,0,0,3.659.868,7.141,7.141,0,0,0,3.155-.433l.61,1.025c.193.347.376.7.564,1.051l.561,1.053.28.527.255.539,1.018,2.157.92,2.2a16.106,16.106,0,0,0-1.873-2.2,14.085,14.085,0,0,0-2.166-1.662,8.857,8.857,0,0,0-3.875-1.254,6.444,6.444,0,0,0-3.314.7,23.123,23.123,0,0,0,6.254,6.639,11.825,11.825,0,0,0,3.332,1.66,7.251,7.251,0,0,0,3.137.309l.344,1.1c.114.367.235.733.324,1.108l.583,2.234c.181.748.324,1.5.488,2.256.075.377.169.751.228,1.131l.185,1.139q-.276-.641-.588-1.244c-.224-.4-.467-.78-.717-1.147s-.512-.717-.784-1.048c-.137-.166-.273-.327-.417-.482s-.3-.3-.457-.446a7.257,7.257,0,0,0-6.879-2.149,23.673,23.673,0,0,0,4.621,7.889,13.024,13.024,0,0,0,2.849,2.334,7.407,7.407,0,0,0,2.982,1c.087,1.488.231,2.972.226,4.463l.021,1.117.01.559-.015.559-.061,2.233a18.07,18.07,0,0,0-.76-2.449,12.209,12.209,0,0,0-1.155-2.152,8.439,8.439,0,0,0-2.963-2.8,6.281,6.281,0,0,0-3.264-.8,22.634,22.634,0,0,0,2.8,8.737,9.555,9.555,0,0,0,4.9,4.477c-.07.719-.194,1.431-.31,2.144s-.215,1.429-.376,2.133l-.442,2.12-.533,2.1a16.8,16.8,0,0,0-.225-2.4,13.961,13.961,0,0,0-.64-2.213,8.882,8.882,0,0,0-1.024-1.93,7.9,7.9,0,0,0-1.269-1.439,6.363,6.363,0,0,0-3.042-1.48,22.938,22.938,0,0,0,.882,9.11,9.655,9.655,0,0,0,3.735,5.39c-.219.666-.489,1.312-.748,1.963s-.507,1.305-.808,1.938-.572,1.278-.868,1.912l-.946,1.874a17.035,17.035,0,0,0,.261-2.251,13.426,13.426,0,0,0-.142-2.167c-.5-3.092-2.118-5.037-4.14-5.892a23.144,23.144,0,0,0-1.143,9.051,12.93,12.93,0,0,0,.292,1.835,11.465,11.465,0,0,0,.485,1.623,7.571,7.571,0,0,0,1.616,2.573,65.09,65.09,0,0,1-4.856,6.541,12.8,12.8,0,0,0,1-4.038,8.4,8.4,0,0,0-.612-4.022,6.509,6.509,0,0,0-.891-1.491,6.29,6.29,0,0,0-1.2-1.145,23.41,23.41,0,0,0-3.147,8.526,13.273,13.273,0,0,0-.036,3.5,8.654,8.654,0,0,0,.354,1.523,6.84,6.84,0,0,0,.59,1.326l-1.448,1.352c-.491.441-1,.86-1.5,1.292-.253.211-.5.435-.758.636l-.781.608c-.525.4-1.03.825-1.577,1.194a11.639,11.639,0,0,0,1.046-1.706,10.272,10.272,0,0,0,1.164-3.9c.015-.168.024-.333.028-.5s0-.331-.012-.492a7.72,7.72,0,0,0-.109-.934,6.356,6.356,0,0,0-1.433-3.048,23.375,23.375,0,0,0-5.01,7.525,12.112,12.112,0,0,0-.857,3.336,7.642,7.642,0,0,0,.2,2.942c-1.1.664-2.254,1.219-3.389,1.813-1.168.526-2.319,1.091-3.519,1.541a11.888,11.888,0,0,0,2.394-2.759q.154-.244.291-.486c.089-.167.17-.335.246-.5a9.854,9.854,0,0,0,.389-.981,7.7,7.7,0,0,0,.382-1.864,6.466,6.466,0,0,0-.667-3.318,23.586,23.586,0,0,0-6.65,6.028,12.99,12.99,0,0,0-.947,1.495q-.2.383-.38.741a7.069,7.069,0,0,0-.316.729,7.868,7.868,0,0,0-.565,2.879c-.3.093-.6.163-.9.235l-.909.217-.909.217c-.3.075-.612.119-.917.18l-1.837.344-1.852.252a15.7,15.7,0,0,0,1.508-.886,10.746,10.746,0,0,0,1.309-1.071,8.173,8.173,0,0,0,2.234-3.376,6.439,6.439,0,0,0,.329-1.7,6.354,6.354,0,0,0-.133-1.656,20.446,20.446,0,0,0-2.135.761,20.1,20.1,0,0,0-2.056.933c-.331.187-.665.342-.99.527s-.645.376-.958.582q-.235.154-.465.318a2.9,2.9,0,0,1-.283.169l-.3.175a12.039,12.039,0,0,0-1.122.75c-2.312,1.733-3.356,3.756-3.449,5.582a45.675,45.675,0,0,0-7.252,2.4c.424-.4.845-.787,1.241-1.2s.783-.827,1.149-1.247c2.18-2.54,3.311-4.985,2.968-7.17a20.293,20.293,0,0,0-5.744,2.565,15.285,15.285,0,0,0-4.138,3.91,9.583,9.583,0,0,0-1.564,3.375,6.15,6.15,0,0,0,.007,2.942,28.836,28.836,0,0,0-4.188,3.173,23.409,23.409,0,0,0-3.472,4.017,28.779,28.779,0,0,0-2.534,4.611,50.048,50.048,0,0,0-1.82,4.839l2.646.834a44.432,44.432,0,0,1,1.973-5.288,24.056,24.056,0,0,1,2.826-4.726,26.217,26.217,0,0,1,8.621-6.878,10.838,10.838,0,0,0,5.443,2.68,24.724,24.724,0,0,0,8.663.224,6.987,6.987,0,0,0-5.032-5.03,11.2,11.2,0,0,0-3.2-.485,43.383,43.383,0,0,1,7.035-1.867,8.193,8.193,0,0,0,1.723,2.327q.277.271.584.531c.1.086.206.171.313.255l.161.124c.057.041.129.078.194.117a12.214,12.214,0,0,0,1.805.838c.408.152.833.292,1.271.411a12.9,12.9,0,0,0,1.345.267,15.4,15.4,0,0,0,2.876.216,18.231,18.231,0,0,0,3.014-.257,19.829,19.829,0,0,0,3.022-.721c-.882-2-3.129-3.49-6.324-4.387a17.937,17.937,0,0,0-1.772-.417c-.6-.111-1.221-.238-1.841-.315l.962-.191.48-.1.476-.119,1.9-.477c.632-.165,1.253-.373,1.88-.557l.938-.285.923-.328a6.339,6.339,0,0,0,2.269,1.965,10.034,10.034,0,0,0,3.636,1.02,15.83,15.83,0,0,0,5.521-.544,18.264,18.264,0,0,0,2.837-1.009,19.676,19.676,0,0,0,2.728-1.45,6.252,6.252,0,0,0-2.874-1.952,9.811,9.811,0,0,0-.952-.282q-.505-.132-1.051-.223a14.558,14.558,0,0,0-2.33-.188c-.642-.018-1.3-.011-1.946.036-.326.023-.652.053-.979.092s-.664.063-1,.108a55.784,55.784,0,0,0,6.968-3.987,6.136,6.136,0,0,0,2.7,1.373,8.961,8.961,0,0,0,1.772.231c.319.011.651.008.994-.009s.684-.068,1.043-.125a14.676,14.676,0,0,0,2.6-.666,20.505,20.505,0,0,0,2.6-1.186,25.789,25.789,0,0,0,2.5-1.653,28.643,28.643,0,0,0,2.286-2.05A6.343,6.343,0,0,0,140.4,115.6a10.206,10.206,0,0,0-2.053,0,16.045,16.045,0,0,0-2.317.363q-.494.115-.985.261c-.327.1-.668.187-1,.3-.667.211-1.324.463-1.976.742a66.245,66.245,0,0,0,5.954-5.69,6.21,6.21,0,0,0,2.956.719,8.841,8.841,0,0,0,1.806-.177,12.125,12.125,0,0,0,1.96-.62c.4-.164.8-.346,1.2-.553a13.409,13.409,0,0,0,1.162-.7,15.631,15.631,0,0,0,2.245-1.751,18.523,18.523,0,0,0,2.036-2.174,20.3,20.3,0,0,0,1.746-2.509c-1.988-.913-4.648-.555-7.609.914a18.645,18.645,0,0,0-1.9,1.07,21.053,21.053,0,0,0-1.862,1.255l1.247-1.706,1.173-1.757c.4-.579.749-1.192,1.117-1.792l.546-.9c.186-.3.343-.615.515-.921a6.262,6.262,0,0,0,3.086.063,7.718,7.718,0,0,0,.858-.235,9.078,9.078,0,0,0,.866-.354,12.165,12.165,0,0,0,1.8-1.05A10.074,10.074,0,0,0,154,97.586q.5-.441.981-.938a13.874,13.874,0,0,0,.935-1.048q.437-.557.852-1.158t.8-1.24q.361-.648.691-1.328t.629-1.384c.19-.472.351-.956.51-1.442a6.185,6.185,0,0,0-3.44.343,10.568,10.568,0,0,0-1.865.891q-.47.282-.942.621c-.315.226-.622.474-.954.732a17.964,17.964,0,0,0-1.714,1.561c-.265.283-.549.564-.82.857s-.535.593-.792.9c.285-.665.594-1.321.859-2l.784-2.025c.256-.677.47-1.369.707-2.052.113-.344.237-.684.341-1.03l.3-1.042a6.275,6.275,0,0,0,3.066-.6,10.147,10.147,0,0,0,3.118-2.4,16.007,16.007,0,0,0,2.823-4.687c.18-.45.356-.91.508-1.382s.268-.954.384-1.442.219-.983.311-1.483.134-1.006.183-1.513a6.18,6.18,0,0,0-3.268,1.082,12.551,12.551,0,0,0-3.178,3.006,18.14,18.14,0,0,0-1.4,2.014c-.207.355-.431.714-.641,1.082s-.409.742-.6,1.123a62.834,62.834,0,0,0,1.185-8.842,6.238,6.238,0,0,0,2.9-1.23,7.789,7.789,0,0,0,1.342-1.281,12.16,12.16,0,0,0,1.219-1.752,9.652,9.652,0,0,0,.584-1.169q.263-.607.486-1.26t.408-1.338c.122-.458.2-.926.28-1.4s.14-.963.19-1.455a13.043,13.043,0,0,0,.086-1.492,27.24,27.24,0,0,0-.149-3.036,6.37,6.37,0,0,0-3.012,1.756,10.214,10.214,0,0,0-1.3,1.589c-.205.3-.386.62-.589.958s-.39.693-.573,1.066a21.624,21.624,0,0,0-.978,2.4,21.282,21.282,0,0,0-.758,2.571l-.067-2.3-.018-.574-.044-.573-.088-1.146-.088-1.146c-.024-.382-.088-.761-.13-1.141l-.288-2.279a6.077,6.077,0,0,0,2.591-1.809,8.913,8.913,0,0,0,1.071-1.555c.081-.148.162-.3.237-.459s.14-.318.206-.484q.2-.5.368-1.053.188-.616.327-1.273a10.477,10.477,0,0,0,.211-1.341,21.482,21.482,0,0,0,.08-2.836,24.468,24.468,0,0,0-.388-2.942,13.849,13.849,0,0,0-.361-1.475q-.212-.733-.463-1.46a6.26,6.26,0,0,0-2.534,2.375,9.272,9.272,0,0,0-.483.866c-.147.3-.29.627-.432.969a14.413,14.413,0,0,0-.693,2.232,27.426,27.426,0,0,0-.464,2.717q-.076.7-.1,1.4c-.031.474-.061.954-.068,1.434a61.565,61.565,0,0,0-2.76-9.058c1.747-1.041,3.013-3.117,3.267-6.267A18.424,18.424,0,0,0,150.26,27.6a6.219,6.219,0,0,0-1.926,2.881,12.188,12.188,0,0,0-.49,2,14.246,14.246,0,0,0-.161,2.325,20.468,20.468,0,0,0,.17,2.917c.073.485.135.985.215,1.484s.181.994.3,1.489a60.4,60.4,0,0,0-4.844-8.485,6.124,6.124,0,0,0,1.663-2.793,10.064,10.064,0,0,0,.165-4.114,18.484,18.484,0,0,0-5.583-9.946,6.2,6.2,0,0,0-1.2,3.25,12.8,12.8,0,0,0,.369,4.367,18.792,18.792,0,0,0,.9,2.964,23.811,23.811,0,0,0,1.273,2.939,61.669,61.669,0,0,0-6.869-7.4,6.062,6.062,0,0,0,1-3.123,9.967,9.967,0,0,0-.807-4.095" fill="#2bb7d9"/></g><g style="isolation:isolate"><g style="isolation:isolate"><path d="M48.353,40.87v7.521H47.064v-12.3h5.2V40.87Zm0-3.811V38h2.689v-.939Zm2.689,2.858V38.894H48.353v1.023Zm3.711,5.211v3.011H53.591V45.128H51.9a4.512,4.512,0,0,1-1.834,3.221,4.432,4.432,0,0,0-.84-.77,3.391,3.391,0,0,0,1.539-2.451h-1.6V44.049H50.8V42.718H49.417V41.681H56.21v1.037H54.753v1.331h1.739v1.079Zm-1.162-1.079V42.718H51.925v1.331Zm5.057,2.746c0,.714-.141,1.092-.6,1.316a5.516,5.516,0,0,1-2.2.238,4.253,4.253,0,0,0-.42-1.289c.713.015,1.428.015,1.653.015s.279-.084.279-.294V40.9h-4.02V36.092h5.309Zm-4.063-9.736V38h2.774v-.939Zm2.774,2.886V38.894H54.585v1.051Z" fill="#121212"/><path d="M60.658,37.885h4.72v1.037h-4.72Zm4.4,9.89h-2.73v.6h-1.08V43.671h3.81ZM65,40.841H61.261V39.833H65Zm-3.739.9H65v1.009H61.261Zm3.684-4.721H61.33V35.995h3.615Zm-2.619,7.7v2.018h1.638V44.721Zm11.261,1.541h-.742v.9c0,.588-.113.883-.547,1.051a6.01,6.01,0,0,1-1.974.168,4.074,4.074,0,0,0-.309-1.023c.6.027,1.219.027,1.4.027s.224-.069.224-.237v-.883H67.312v2.129H66.205V46.262h-.784V45.225h.784v-3.5h2.7v-.673H65.435V40.029h1.947v-.771h-1.3V38.32h1.3v-.742h-1.57v-.953h1.57V35.533h1.176v1.092H70.5V35.533h1.176v1.092h1.654v.953H71.681v.742h1.373v.938H71.681v.771h1.877v1.022H70.015v.673h2.83v3.5h.742Zm-6.275-3.6v.854h1.6v-.854Zm0,2.562h1.6v-.854h-1.6Zm1.246-6.9H70.5v-.742H68.558Zm0,1.709H70.5v-.771H68.558Zm1.457,2.634v.854H71.64v-.854Zm1.625,2.562v-.854H70.015v.854Z" fill="#121212"/></g><g style="isolation:isolate"><path d="M87.977,48.285H76.282V45.964L81.8,40.082a13.6,13.6,0,0,0,1.682-2.168,3.485,3.485,0,0,0,.545-1.758,2.609,2.609,0,0,0-.574-1.787,2.073,2.073,0,0,0-1.641-.651A2.238,2.238,0,0,0,80,34.509a3.137,3.137,0,0,0-.662,2.08h-3.4a5.591,5.591,0,0,1,.744-2.847,5.243,5.243,0,0,1,2.1-2.022,6.394,6.394,0,0,1,3.082-.732,6.051,6.051,0,0,1,4.1,1.266,4.475,4.475,0,0,1,1.459,3.574,5.729,5.729,0,0,1-.656,2.578,14.289,14.289,0,0,1-2.25,3.058l-3.879,4.09h7.336Z" fill="#121212"/></g><g style="isolation:isolate"><path d="M102.766,45.52h-4.79v3H96.252v-3h-6.3v-1.6h2.213v-3.67h4.089V38.572h-3a12.572,12.572,0,0,1-1.9,2.55,12.768,12.768,0,0,0-1.442-1.079,10.811,10.811,0,0,0,2.941-4.664l1.695.433a9.111,9.111,0,0,1-.462,1.15H102v1.61h-4.02v1.681h3.7v1.541h-3.7v2.129h4.79Zm-6.514-1.6V41.794H93.83v2.129Z" fill="#121212"/></g><g style="isolation:isolate"><path d="M104.658,38.634c1.163-.1,3.46-.307,6-.532,1.429-.112,2.941-.2,3.922-.238l.013,1.793a14.419,14.419,0,0,0-2.675.182,4.212,4.212,0,0,0-2.927,3.88c0,2.284,2.129,3.11,4.482,3.222l-.644,1.919c-2.914-.182-5.659-1.751-5.659-4.763a5.5,5.5,0,0,1,2.044-4.272c-1.2.126-4.118.434-5.728.785l-.183-1.9C103.86,38.691,104.392,38.663,104.658,38.634Zm9.105,4.273-1.064.476a10.875,10.875,0,0,0-1.093-1.947L112.642,41A18.092,18.092,0,0,1,113.763,42.907Zm1.625-.687-1.051.5a12.279,12.279,0,0,0-1.148-1.891l1.022-.477A20.967,20.967,0,0,1,115.388,42.22Z" fill="#121212"/></g></g><g style="isolation:isolate"><g style="isolation:isolate"><path d="M75.493,109.018c.952,1.33,2.563,2.031,5.127,2.241a6.152,6.152,0,0,0-1.065,1.653c-2.8-.406-4.427-1.387-5.491-3.25-.757,1.6-2.325,2.662-5.688,3.264a4.878,4.878,0,0,0-.854-1.5c2.956-.448,4.272-1.218,4.9-2.409H67.831v-1.527h5.043c.084-.477.111-.994.153-1.569H74.82c-.042.56-.084,1.079-.153,1.569h5.617v1.527Zm-2.186-6.387c-.294,2.227-1.092,3.6-4.608,4.328a5.171,5.171,0,0,0-.868-1.373c2.969-.491,3.473-1.414,3.7-2.955H69.736v1.4H68.054v-2.886h5.169V99.857h1.695v1.288h5.225v2.662H78.392v-1.176H76.375v1.96c0,.378.07.42.491.42h1.176c.336,0,.406-.153.462-.98a5.217,5.217,0,0,0,1.4.532c-.155,1.4-.588,1.779-1.681,1.779H76.6c-1.526,0-1.863-.42-1.863-1.751v-1.96Z" fill="#121212"/><path d="M94.1,105.544a11.057,11.057,0,0,1-2.017,4.609,8.452,8.452,0,0,0,2.521,1.429,5.7,5.7,0,0,0-1.05,1.33,9.366,9.366,0,0,1-2.508-1.611,9.577,9.577,0,0,1-2.437,1.625,5.638,5.638,0,0,0-.882-1.26,7.613,7.613,0,0,0,2.311-1.457,11.63,11.63,0,0,1-1.513-2.564,11.776,11.776,0,0,1-1.442,5.281,5.922,5.922,0,0,0-1.248-.812,5.8,5.8,0,0,0,.477-.869H83.946v1.037H82.517v-4.315c-.183.252-.364.5-.56.729a9.513,9.513,0,0,0-.6-1.989,11.591,11.591,0,0,0,1.863-4.721h-1.5v-1.513h4.875v1.513H84.828a24.013,24.013,0,0,1-.785,2.83h2.3v6.359a14.575,14.575,0,0,0,.826-5.519v-3.768h2.746V99.857h1.47v2.031h1.709l.252-.042,1.037.21a19.523,19.523,0,0,1-.742,3l-1.275-.294a14.467,14.467,0,0,0,.322-1.415h-1.3v1.92H92.9l.253-.056Zm-9.188.728h-.967v3.517h.967Zm3.683-2.928v1.92h1.317v-1.92Zm1.023,3.349a9.308,9.308,0,0,0,1.415,2.395,8.332,8.332,0,0,0,1.26-2.395Z" fill="#121212"/></g></g><g style="isolation:isolate"><g style="isolation:isolate"><path d="M45.711,91.411H39.5V67.477l-7.412,2.3V64.727l12.955-4.64h.666Z" fill="#2bb7d9"/><path d="M70.373,78.477q0,6.489-2.686,9.926T59.824,91.84q-5.114,0-7.821-3.373T49.232,78.8V73.042q0-6.554,2.718-9.948T59.781,59.7q5.112,0,7.82,3.362t2.772,9.657Zm-6.209-6.33A11.453,11.453,0,0,0,63.1,66.48a3.593,3.593,0,0,0-3.319-1.774,3.53,3.53,0,0,0-3.234,1.688,10.714,10.714,0,0,0-1.106,5.279v7.613a12.016,12.016,0,0,0,1.042,5.688,3.546,3.546,0,0,0,3.341,1.861,3.488,3.488,0,0,0,3.287-1.786,11.746,11.746,0,0,0,1.053-5.461Z" fill="#2bb7d9"/><path d="M95.22,78.477q0,6.489-2.685,9.926T84.671,91.84q-5.113,0-7.82-3.373T74.08,78.8V73.042q0-6.554,2.717-9.948A9.447,9.447,0,0,1,84.628,59.7q5.114,0,7.821,3.362t2.771,9.657Zm-6.209-6.33a11.455,11.455,0,0,0-1.063-5.667,3.594,3.594,0,0,0-3.32-1.774,3.527,3.527,0,0,0-3.233,1.688,10.714,10.714,0,0,0-1.106,5.279v7.613a12,12,0,0,0,1.042,5.688,3.545,3.545,0,0,0,3.34,1.861,3.488,3.488,0,0,0,3.288-1.786,11.747,11.747,0,0,0,1.052-5.461Z" fill="#2bb7d9"/><path d="M120.069,78.477q0,6.489-2.686,9.926T109.52,91.84q-5.113,0-7.82-3.373T98.928,78.8V73.042q0-6.554,2.718-9.948a9.447,9.447,0,0,1,7.831-3.394q5.112,0,7.82,3.362t2.772,9.657Zm-6.209-6.33A11.453,11.453,0,0,0,112.8,66.48a3.593,3.593,0,0,0-3.319-1.774,3.527,3.527,0,0,0-3.233,1.688,10.7,10.7,0,0,0-1.107,5.279v7.613a12.016,12.016,0,0,0,1.042,5.688,3.547,3.547,0,0,0,3.341,1.861,3.487,3.487,0,0,0,3.287-1.786,11.733,11.733,0,0,0,1.053-5.461Z" fill="#2bb7d9"/></g><g style="isolation:isolate"><path d="M126.945,78.767c-.014.224-.028.5-.042.8.112,1.934.812,7.971,6.037,10.422a5.474,5.474,0,0,0-1.288,1.415,11.11,11.11,0,0,1-5.52-7.032A11.965,11.965,0,0,1,120.95,91.4a5.843,5.843,0,0,0-1.4-1.331c5.589-3.1,5.393-9.455,5.491-11.3Z" fill="#121212"/></g></g><g clip-path="url(#b)"><path d="M218.24,23.669a23.387,23.387,0,0,0,8.645-2.55,6.448,6.448,0,0,0-2.485-2.29,7.115,7.115,0,0,0-1.8-.645,10.133,10.133,0,0,0-2.168-.237,13.629,13.629,0,0,0-3.078.45q-.768.229-1.542.54a11.74,11.74,0,0,0-1.524.714,57.134,57.134,0,0,1,8.542-5.8,7.055,7.055,0,0,0,2.509,2.069,11.881,11.881,0,0,0,3.653,1.18,23.546,23.546,0,0,0,8.954-.279,6.458,6.458,0,0,0-1.818-2.85,7.09,7.09,0,0,0-1.569-1.078,10.079,10.079,0,0,0-2.034-.778,12.826,12.826,0,0,0-1.594-.263c-.275-.029-.553-.05-.836-.063a7.123,7.123,0,0,0-.852,0c-.568.029-1.147.087-1.732.173-.292.044-.588.09-.881.152s-.579.147-.868.231c.329-.157.653-.327.987-.473l1.007-.429,1.007-.43c.169-.07.334-.147.505-.211l.514-.188A18.681,18.681,0,0,0,232,10.74c.761.022,1.545.026,2.334-.03q.3-.02.6-.048c.2-.017.4-.023.606-.039q.609-.044,1.226-.123c.412-.047.821-.131,1.242-.183s.843-.123,1.267-.2a31.542,31.542,0,0,0,9.584-3.287A14.2,14.2,0,0,0,244.14,5.3q-.671-.1-1.372-.162-.7-.025-1.42-.01c-.481.01-.971.036-1.465.075a14.884,14.884,0,0,0-1.485.231q-.7.132-1.368.3c-.448.107-.878.269-1.3.415s-.837.314-1.239.483c-.2.087-.4.167-.593.265s-.381.2-.567.3a17.842,17.842,0,0,0-2.067,1.317,16.575,16.575,0,0,0-1.679,1.533c-.6.2-1.176.455-1.76.692l-.874.362c-.29.122-.586.234-.868.376-1.136.547-2.292,1.056-3.39,1.68a30.036,30.036,0,0,0,5.014-4.9l.369-.5c.121-.159.238-.317.349-.476q.334-.477.612-.953a10.7,10.7,0,0,0,.863-1.885,6.21,6.21,0,0,0,.323-3.451c-.493.169-.991.325-1.465.538s-.943.429-1.4.659-.908.467-1.341.725-.843.551-1.244.838-.787.584-1.157.887a13.636,13.636,0,0,0-1.038.973q-.49.5-.923,1.017a9.967,9.967,0,0,0-.794,1.058A12.067,12.067,0,0,0,219.8,9.7a9.184,9.184,0,0,0-.329.954,7.481,7.481,0,0,0-.185.938,5.975,5.975,0,0,0,.423,3.269,58.711,58.711,0,0,0-8.311,6.2l.986-1.372q.48-.687.9-1.4c.274-.486.56-.942.812-1.421s.487-.961.7-1.452l.233-.572q.115-.274.218-.548.2-.544.352-1.075a10.565,10.565,0,0,0,.373-2.041,6.217,6.217,0,0,0-.563-3.419c-.432.286-.871.563-1.274.886s-.8.648-1.184.984-.757.676-1.109,1.032-.675.739-.989,1.115-.614.758-.9,1.141a13.994,13.994,0,0,0-.759,1.194q-.35.6-.64,1.208a10.1,10.1,0,0,0-.506,1.217,12.038,12.038,0,0,0-.535,2.183,9.174,9.174,0,0,0-.088.994,7.44,7.44,0,0,0,.042.944,6.038,6.038,0,0,0,1.158,3.054,62.333,62.333,0,0,0-6.417,7.7c.1-.251.2-.494.305-.737s.2-.49.291-.736q.277-.74.5-1.492a20.311,20.311,0,0,0,.732-2.965c.062-.416.126-.809.171-1.193s.072-.76.084-1.126a10.516,10.516,0,0,0-.13-2.067,6.214,6.214,0,0,0-1.372-3.178c-.349.379-.7.752-1.018,1.158s-.618.816-.908,1.231-.567.835-.826,1.259-.476.873-.691,1.312a15.355,15.355,0,0,0-1.05,2.647,15.052,15.052,0,0,0-.543,2.615,9.886,9.886,0,0,0,.381,4.091,6.12,6.12,0,0,0,1.791,2.7l-.631,1.036c-.2.351-.39.708-.585,1.062l-.582,1.064-.29.533-.266.545-1.059,2.183-.96,2.229a25.694,25.694,0,0,0,.346-2.954,18.6,18.6,0,0,0,.019-2.881,12.587,12.587,0,0,0-.878-4.289,6.192,6.192,0,0,0-2.073-2.776,18.547,18.547,0,0,0-2.56,11.067,10.05,10.05,0,0,0,1.267,3.855,6.11,6.11,0,0,0,2.306,2.23l-.362,1.119c-.12.373-.247.745-.343,1.125l-.618,2.27c-.193.76-.347,1.53-.522,2.295-.08.384-.18.764-.245,1.151l-.2,1.16q-.049-.709-.143-1.41c-.046-.464-.1-.923-.173-1.378s-.161-.905-.265-1.349c-.051-.222-.109-.443-.166-.661s-.106-.432-.166-.645c-.92-3.177-2.423-5.366-4.458-6.222a21.188,21.188,0,0,0-.91,5.927,21.547,21.547,0,0,0,.216,2.825,14.762,14.762,0,0,0,.671,2.582,9.448,9.448,0,0,0,2.049,3.449,6.061,6.061,0,0,0,2.667,1.68c-.106,1.517-.268,3.032-.28,4.554l-.031,1.139-.017.57.009.57.037,2.287a21.089,21.089,0,0,0-.87-2.494,21.783,21.783,0,0,0-1.08-2.319,13.536,13.536,0,0,0-2.634-3.487,6.347,6.347,0,0,0-3.091-1.612,18.759,18.759,0,0,0,2.433,11.041c1.622,2.579,3.694,3.824,5.641,3.993.065.737.183,1.467.294,2.2s.2,1.465.361,2.188l.43,2.177.522,2.157a22.288,22.288,0,0,0-1.335-2.113,18.012,18.012,0,0,0-1.473-1.919,18.551,18.551,0,0,0-1.641-1.653,10.406,10.406,0,0,0-1.686-1.194,7.672,7.672,0,0,0-1.68-.713,5.414,5.414,0,0,0-1.66-.2,19.8,19.8,0,0,0,.646,2.968c.143.482.275.96.46,1.422s.37.915.572,1.356.414.87.636,1.284a13.453,13.453,0,0,0,.747,1.189q.389.571.8,1.091c.139.173.277.342.421.505s.3.319.455.471c2.122,2.142,4.381,2.917,6.3,2.686.218.686.487,1.352.746,2.023s.507,1.346.808,2,.573,1.319.87,1.974l.951,1.937A20.97,20.97,0,0,0,196,96.188a18.513,18.513,0,0,0-1.758-1.455c-2.657-1.962-5.216-2.771-7.331-2.217a20.281,20.281,0,0,0,1.281,2.767,18.209,18.209,0,0,0,1.623,2.49c.3.386.585.764.91,1.113s.654.683.989,1,.676.613,1.021.891a13.141,13.141,0,0,0,2.921,1.715,8.324,8.324,0,0,0,1.758.494,6.23,6.23,0,0,0,3.063-.209,66.908,66.908,0,0,0,4.931,6.794,24.63,24.63,0,0,0-3.821-2.1,13.607,13.607,0,0,0-4.232-1.133,7.435,7.435,0,0,0-1.837.087,5.425,5.425,0,0,0-1.586.532,25.155,25.155,0,0,0,1.868,2.421,22.552,22.552,0,0,0,2.149,2.067,15.771,15.771,0,0,0,4.768,2.757,9.58,9.58,0,0,0,3.793.6,6.8,6.8,0,0,0,1.57-.268,5.813,5.813,0,0,0,1.345-.6l1.481,1.414c.5.461,1.025.9,1.538,1.353.26.221.509.455.778.666l.8.638c.539.419,1.058.866,1.62,1.254-.677-.211-1.322-.444-1.99-.615s-1.345-.3-1.99-.433a14.556,14.556,0,0,0-2.328-.244h-.545c-.179,0-.348,0-.519.014a9.382,9.382,0,0,0-.989.1,6.283,6.283,0,0,0-3.189,1.389,18.42,18.42,0,0,0,10.279,5.02,10.266,10.266,0,0,0,3.79-.305,6.361,6.361,0,0,0,2.619-1.523c1.132.7,2.326,1.292,3.5,1.92,1.207.561,2.4,1.159,3.641,1.642a26.848,26.848,0,0,0-3.868-.009c-.209.019-.414.04-.616.065s-.394.04-.587.066q-.578.077-1.115.194a10.648,10.648,0,0,0-1.979.63,6.182,6.182,0,0,0-2.754,2.1c.456.249.911.5,1.381.711s.951.4,1.43.584.954.353,1.438.492.974.251,1.456.353.96.189,1.434.256a12.942,12.942,0,0,0,1.421.1,12.786,12.786,0,0,0,2.694-.141,12.175,12.175,0,0,0,1.956-.474,6.651,6.651,0,0,0,.846-.342q.39-.186.759-.409a6.291,6.291,0,0,0,2.145-2.072c.309.1.625.176.941.255l.946.237.946.237c.315.081.637.132.954.2l1.913.38,1.93.284q-.909.169-1.793.418c-.588.163-1.158.312-1.719.512a14.164,14.164,0,0,0-3.916,2.011,7.49,7.49,0,0,0-1.315,1.3,5.369,5.369,0,0,0-.827,1.456,24.992,24.992,0,0,0,3.062.541,22.623,22.623,0,0,0,3.025.077,12.727,12.727,0,0,0,1.459-.141q.717-.1,1.4-.248c.227-.049.452-.1.673-.157a1.587,1.587,0,0,0,.275-.1l.252-.1c.334-.142.666-.3.991-.457a10.662,10.662,0,0,0,4.669-3.978,43.23,43.23,0,0,1,6.838,2.35,12.073,12.073,0,0,0-1.625.014,10.947,10.947,0,0,0-1.549.244,6.963,6.963,0,0,0-5.374,4.653,24.7,24.7,0,0,0,8.642.4,14.2,14.2,0,0,0,3.156-.813,8.538,8.538,0,0,0,2.447-1.452,26.37,26.37,0,0,1,3.78,2.926,20.753,20.753,0,0,1,3.045,3.6,33.944,33.944,0,0,1,3.916,8.791l2.646-.834a47.288,47.288,0,0,0-2.161-5.6,26.753,26.753,0,0,0-3.2-5.217,24,24,0,0,0-2.07-2.288c-.376-.348-.753-.7-1.141-1.031s-.783-.658-1.2-.956a37.325,37.325,0,0,0-5.116-3.2,7.656,7.656,0,0,0-2.006-6.2,15.246,15.246,0,0,0-4.407-3.6,20.252,20.252,0,0,0-5.9-2.14c-.186,2.2,1.111,4.566,3.47,6.932a28.615,28.615,0,0,0,2.6,2.308,45.892,45.892,0,0,0-7.445-1.89,6.179,6.179,0,0,0-1.084-2.766,8.338,8.338,0,0,0-.524-.675q-.144-.168-.3-.334l-.161-.166c-.052-.055-.091-.109-.138-.164a13.3,13.3,0,0,0-1.213-1.266,23.78,23.78,0,0,0-7.684-4.577,7.121,7.121,0,0,0,2.027,6.873,13.084,13.084,0,0,0,1.263,1.16,12.332,12.332,0,0,0,1.477.982l-.924-.173-.462-.087-.451-.1-1.829-.437c-.609-.151-1.206-.345-1.809-.515l-.9-.263-.89-.306a7.738,7.738,0,0,0-.4-2.9,12.582,12.582,0,0,0-1.472-3.065,23.38,23.38,0,0,0-6.3-6.414,6.4,6.4,0,0,0-.847,3.266,7.368,7.368,0,0,0,.065.939,7.994,7.994,0,0,0,.2.956,10.368,10.368,0,0,0,.811,2.022,12.616,12.616,0,0,0,1.005,1.514q.283.371.6.732c.21.24.439.456.672.68a53.454,53.454,0,0,1-6.753-3.767,7.962,7.962,0,0,0,.374-2.944,10.637,10.637,0,0,0-.208-1.649q-.086-.422-.207-.85c-.077-.29-.159-.592-.256-.891a23.613,23.613,0,0,0-4.61-7.786,6.3,6.3,0,0,0-1.589,2.962,7.984,7.984,0,0,0-.2,1.918,9.606,9.606,0,0,0,.315,2.146q.119.463.274.928t.372.906a15.986,15.986,0,0,0,.966,1.79,64.248,64.248,0,0,1-5.82-5.442,7.675,7.675,0,0,0,1.109-2.8,10.562,10.562,0,0,0,.183-1.664,13.123,13.123,0,0,0-.032-1.839,23.259,23.259,0,0,0-2.7-8.7c-1.843,1.192-3.108,3.387-3.056,6.515a13.317,13.317,0,0,0,.218,2.06,16.745,16.745,0,0,0,.6,2.072l-1.229-1.642L202.5,102.6c-.4-.557-.739-1.15-1.1-1.729l-.541-.872c-.184-.288-.339-.594-.51-.89a7.458,7.458,0,0,0,1.751-2.483c.112-.248.211-.5.308-.771s.192-.548.274-.835a12.952,12.952,0,0,0,.377-1.818,23.044,23.044,0,0,0-.674-9.107,6.446,6.446,0,0,0-2.756,1.974,7.782,7.782,0,0,0-1,1.629,9.677,9.677,0,0,0-.39.984,7.932,7.932,0,0,0-.295,1.092,13.681,13.681,0,0,0-.242,2.183,9.182,9.182,0,0,0,.029,1.137q.043.571.124,1.157c-.284-.645-.592-1.279-.857-1.933l-.785-1.964c-.257-.657-.472-1.329-.71-1.992-.114-.334-.239-.664-.343-1l-.3-1.013a7.33,7.33,0,0,0,2.289-2.035,11.955,11.955,0,0,0,1.72-3.167,22.834,22.834,0,0,0,1.331-9.069,6.445,6.445,0,0,0-3.12,1.331,8.9,8.9,0,0,0-2.455,3.252,13.827,13.827,0,0,0-.745,2.206,9.392,9.392,0,0,0-.221,1.189q-.081.6-.123,1.231a61.352,61.352,0,0,1-1.251-8.627A7.274,7.274,0,0,0,195,71.178a12.406,12.406,0,0,0,1.252-1.228,12.8,12.8,0,0,0,1.148-1.525,22.6,22.6,0,0,0,3.23-8.583,6.255,6.255,0,0,0-3.3.638,7.989,7.989,0,0,0-1.614,1.057,7.7,7.7,0,0,0-.772.728,11.154,11.154,0,0,0-.711.868,12.368,12.368,0,0,0-1.272,2.123,18.019,18.019,0,0,0-.877,2.448l.041-2.251.011-.563.037-.561.074-1.123.076-1.128c.019-.375.078-.746.116-1.12l.261-2.233a7.384,7.384,0,0,0,3.036-.847,10.064,10.064,0,0,0,1.49-.939c.122-.092.242-.187.364-.286s.252-.2.377-.3q.375-.313.74-.665.406-.392.779-.813c.247-.281.483-.572.734-.864a16.172,16.172,0,0,0,1.333-1.862,18.332,18.332,0,0,0,1.171-2l.52-1.04q.253-.525.472-1.065a6.351,6.351,0,0,0-3.372-.11,7.827,7.827,0,0,0-.9.27,6.43,6.43,0,0,0-.9.405,10.383,10.383,0,0,0-1.794,1.233,10.943,10.943,0,0,0-1.777,1.916q-.407.539-.779,1.127c-.237.4-.448.808-.655,1.231a60.528,60.528,0,0,1,2.612-8.918,9.463,9.463,0,0,0,6.584-1.629,23.435,23.435,0,0,0,6.58-6.3,6.408,6.408,0,0,0-3.267-.872,7.055,7.055,0,0,0-1.9.258,10.481,10.481,0,0,0-2.037.791,13.082,13.082,0,0,0-2.275,1.574,9.889,9.889,0,0,0-1.04,1.007q-.5.539-.964,1.131a59.292,59.292,0,0,1,4.673-8.394,7.091,7.091,0,0,0,3.13.6,11.714,11.714,0,0,0,3.712-.672,23.265,23.265,0,0,0,7.826-4.591,6.442,6.442,0,0,0-2.974-1.612,8.738,8.738,0,0,0-4.067.107,14.136,14.136,0,0,0-2.74,1.082,17.753,17.753,0,0,0-2.561,1.773,60.7,60.7,0,0,1,6.688-7.365,7.069,7.069,0,0,0,2.923,1.353,11.809,11.809,0,0,0,3.8.228" fill="#2bb7d9"/><path d="M317.437,14.256a16.632,16.632,0,0,0-1.282-2.357q-.19-.292-.394-.585a6.067,6.067,0,0,0-.439-.557q-.451-.555-.954-1.1A14.368,14.368,0,0,0,313.313,8.6q-.562-.5-1.165-.974c-.4-.314-.81-.63-1.238-.919s-.877-.55-1.327-.809a6.2,6.2,0,0,0-.367,3.447,12.012,12.012,0,0,0,.49,2.013,14.993,14.993,0,0,0,.93,2.141,19.928,19.928,0,0,0,1.692,2.824q.467.7.99,1.377c.347.45.724.874,1.083,1.328a57.875,57.875,0,0,0-8.716-5.78,6.007,6.007,0,0,0,.248-3.3,9.855,9.855,0,0,0-1.808-3.821,16.675,16.675,0,0,0-1.834-1.97c-.172-.158-.349-.316-.53-.47s-.374-.289-.568-.431q-.58-.424-1.206-.826a14.435,14.435,0,0,0-1.294-.758q-.674-.34-1.381-.65c-.471-.2-.949-.4-1.437-.579s-.992-.309-1.5-.446a6.2,6.2,0,0,0,.527,3.427,11.922,11.922,0,0,0,.988,1.827,15.243,15.243,0,0,0,1.444,1.838q.563.657,1.191,1.267.314.3.643.6c.219.194.445.381.666.585q.67.6,1.394,1.14c.24.182.487.355.733.532s.489.367.739.543c-.335-.155-.664-.324-1-.468l-1.023-.423-1.023-.423c-.171-.069-.34-.145-.513-.208l-.522-.185a16.576,16.576,0,0,0-1.679-1.533A18.029,18.029,0,0,0,294.87,7.2q-.279-.154-.567-.3c-.193-.1-.392-.178-.593-.265q-.6-.255-1.239-.483c-.425-.147-.855-.308-1.3-.415s-.9-.209-1.368-.3c-.5-.091-.992-.182-1.485-.231s-.983-.065-1.465-.075-.956-.008-1.421.01q-.7.062-1.371.162a14.2,14.2,0,0,0-4.719,1.528,31.542,31.542,0,0,0,9.584,3.287q.638.122,1.267.2c.421.053.83.136,1.242.184s.82.093,1.226.123c.2.016.407.022.606.039s.4.035.6.048c.79.056,1.573.052,2.334.03a18.568,18.568,0,0,0,2.211-.131c.591.2,1.158.463,1.733.7l.86.367c.286.124.577.238.854.381,1.117.554,2.254,1.068,3.332,1.7a13.286,13.286,0,0,0-6.653-.584c-.19.034-.373.068-.555.114s-.361.1-.535.158a9.6,9.6,0,0,0-.984.378,7.692,7.692,0,0,0-1.63.981,6.44,6.44,0,0,0-1.985,2.739,23.536,23.536,0,0,0,8.928.814A12.731,12.731,0,0,0,303.743,18q.466-.125.9-.282c.289-.1.564-.2.831-.322a7.107,7.107,0,0,0,2.626-1.92,58.006,58.006,0,0,1,8.133,6.209c-.237-.147-.476-.288-.715-.423s-.5-.245-.745-.359q-.749-.34-1.5-.6a10.015,10.015,0,0,0-1.514-.4,13.182,13.182,0,0,0-1.494-.206c-.193-.014-.38-.026-.567-.028s-.376.008-.558.018a9.7,9.7,0,0,0-1.049.118,7.725,7.725,0,0,0-1.828.538,6.432,6.432,0,0,0-2.616,2.146,23.357,23.357,0,0,0,8.5,3.044,12.766,12.766,0,0,0,1.982.139,8.731,8.731,0,0,0,.937-.049c.3-.027.592-.058.878-.107a7.127,7.127,0,0,0,2.993-1.19,61.51,61.51,0,0,1,6.237,7.65,7.414,7.414,0,0,0-.585-.522q-.3-.249-.609-.483-.613-.467-1.243-.867A13.3,13.3,0,0,0,320.1,28.9a7.62,7.62,0,0,0-1.094-.277,9.724,9.724,0,0,0-1.048-.138,7.757,7.757,0,0,0-1.907.081,6.428,6.428,0,0,0-3.06,1.45,23.113,23.113,0,0,0,7.575,5.012,11.983,11.983,0,0,0,3.659.868,7.141,7.141,0,0,0,3.155-.433l.61,1.025c.193.347.376.7.564,1.051l.561,1.053.28.527.255.539,1.018,2.157.92,2.2a16.108,16.108,0,0,0-1.873-2.2,14.085,14.085,0,0,0-2.166-1.662,8.857,8.857,0,0,0-3.875-1.254,6.444,6.444,0,0,0-3.314.7,23.123,23.123,0,0,0,6.254,6.639,11.824,11.824,0,0,0,3.332,1.66,7.251,7.251,0,0,0,3.137.309l.344,1.1c.114.367.235.733.324,1.108l.583,2.234c.181.748.324,1.5.488,2.256.075.377.169.751.228,1.131l.185,1.139q-.276-.641-.588-1.244c-.224-.4-.467-.78-.717-1.147s-.512-.717-.784-1.048c-.137-.166-.273-.327-.417-.482s-.3-.3-.457-.446a7.257,7.257,0,0,0-6.879-2.149,23.673,23.673,0,0,0,4.621,7.889,13.025,13.025,0,0,0,2.849,2.334,7.407,7.407,0,0,0,2.982,1c.087,1.488.231,2.972.226,4.463l.021,1.117.01.559-.015.559-.061,2.233a18.068,18.068,0,0,0-.76-2.449,12.209,12.209,0,0,0-1.155-2.152,8.439,8.439,0,0,0-2.963-2.8,6.281,6.281,0,0,0-3.264-.8,22.634,22.634,0,0,0,2.8,8.737,9.555,9.555,0,0,0,4.9,4.477c-.07.719-.194,1.431-.31,2.144s-.215,1.429-.376,2.133l-.442,2.12-.533,2.1a16.8,16.8,0,0,0-.225-2.4,13.961,13.961,0,0,0-.64-2.213,8.882,8.882,0,0,0-1.024-1.93,7.9,7.9,0,0,0-1.269-1.439,6.363,6.363,0,0,0-3.042-1.48,22.938,22.938,0,0,0,.882,9.11,9.655,9.655,0,0,0,3.735,5.39c-.219.666-.489,1.312-.748,1.963s-.507,1.305-.808,1.938-.572,1.278-.868,1.912l-.946,1.874a17.027,17.027,0,0,0,.261-2.251,13.43,13.43,0,0,0-.142-2.167c-.5-3.092-2.118-5.037-4.14-5.892a23.143,23.143,0,0,0-1.143,9.051,12.93,12.93,0,0,0,.292,1.835,11.469,11.469,0,0,0,.485,1.623,7.571,7.571,0,0,0,1.616,2.573,65.088,65.088,0,0,1-4.856,6.541,12.8,12.8,0,0,0,1-4.038,8.4,8.4,0,0,0-.612-4.022,6.509,6.509,0,0,0-.891-1.491,6.291,6.291,0,0,0-1.2-1.145,23.409,23.409,0,0,0-3.147,8.526,13.274,13.274,0,0,0-.036,3.5,8.653,8.653,0,0,0,.354,1.523,6.84,6.84,0,0,0,.59,1.326l-1.448,1.352c-.491.441-1,.86-1.5,1.292-.253.211-.5.435-.758.636l-.781.608c-.525.4-1.03.825-1.577,1.194a11.639,11.639,0,0,0,1.046-1.706,10.273,10.273,0,0,0,1.164-3.9c.015-.168.024-.333.028-.5s0-.331-.012-.492a7.723,7.723,0,0,0-.109-.934,6.357,6.357,0,0,0-1.433-3.048,23.375,23.375,0,0,0-5.01,7.525,12.112,12.112,0,0,0-.857,3.336,7.642,7.642,0,0,0,.2,2.942c-1.1.664-2.254,1.219-3.389,1.813-1.168.526-2.319,1.091-3.519,1.541a11.888,11.888,0,0,0,2.394-2.759q.154-.244.291-.486c.089-.167.17-.335.246-.5a9.854,9.854,0,0,0,.389-.981,7.7,7.7,0,0,0,.382-1.864,6.466,6.466,0,0,0-.667-3.318,23.586,23.586,0,0,0-6.65,6.028,12.992,12.992,0,0,0-.947,1.495q-.2.383-.38.741a7.064,7.064,0,0,0-.316.729,7.868,7.868,0,0,0-.565,2.879c-.3.093-.6.163-.9.235l-.909.217-.909.217c-.3.075-.612.119-.917.18l-1.837.344-1.852.252a15.7,15.7,0,0,0,1.508-.886,10.747,10.747,0,0,0,1.309-1.071,8.173,8.173,0,0,0,2.234-3.376,6.439,6.439,0,0,0,.329-1.7,6.353,6.353,0,0,0-.133-1.656,20.445,20.445,0,0,0-2.135.761,20.1,20.1,0,0,0-2.056.933c-.331.187-.665.342-.99.527s-.645.376-.958.582q-.235.154-.465.318a2.9,2.9,0,0,1-.283.169l-.3.175a12.036,12.036,0,0,0-1.122.75c-2.312,1.733-3.356,3.756-3.449,5.582a45.675,45.675,0,0,0-7.252,2.4c.424-.4.845-.787,1.241-1.2s.783-.827,1.149-1.247c2.18-2.54,3.311-4.985,2.968-7.17a20.293,20.293,0,0,0-5.744,2.565,15.285,15.285,0,0,0-4.138,3.91,9.583,9.583,0,0,0-1.564,3.375,6.15,6.15,0,0,0,.007,2.942,28.836,28.836,0,0,0-4.188,3.173,23.409,23.409,0,0,0-3.472,4.017,28.777,28.777,0,0,0-2.534,4.611,50.05,50.05,0,0,0-1.82,4.839l2.646.834a44.431,44.431,0,0,1,1.973-5.288,24.056,24.056,0,0,1,2.826-4.726,26.217,26.217,0,0,1,8.621-6.878,10.838,10.838,0,0,0,5.443,2.68,24.724,24.724,0,0,0,8.663.224,6.987,6.987,0,0,0-5.032-5.03,11.2,11.2,0,0,0-3.2-.485,43.383,43.383,0,0,1,7.035-1.867,8.193,8.193,0,0,0,1.723,2.327q.277.271.584.531c.1.086.206.171.313.255l.161.124c.057.041.129.078.194.117a12.214,12.214,0,0,0,1.8.838c.408.152.833.292,1.271.411a12.9,12.9,0,0,0,1.345.267,15.4,15.4,0,0,0,2.876.216,18.231,18.231,0,0,0,3.014-.257,19.829,19.829,0,0,0,3.022-.721c-.882-2-3.129-3.49-6.324-4.387a17.938,17.938,0,0,0-1.772-.417c-.6-.111-1.221-.238-1.841-.315l.962-.191.48-.1.476-.119,1.9-.477c.632-.165,1.253-.373,1.88-.557l.938-.285.923-.328a6.339,6.339,0,0,0,2.269,1.965,10.034,10.034,0,0,0,3.636,1.02,15.83,15.83,0,0,0,5.521-.544,18.263,18.263,0,0,0,2.837-1.009,19.675,19.675,0,0,0,2.728-1.45,6.251,6.251,0,0,0-2.874-1.952,9.811,9.811,0,0,0-.952-.282q-.506-.132-1.051-.223a14.558,14.558,0,0,0-2.33-.188c-.642-.018-1.295-.011-1.946.036-.326.023-.652.053-.979.092s-.664.063-1,.108a55.782,55.782,0,0,0,6.968-3.987,6.136,6.136,0,0,0,2.7,1.373,8.961,8.961,0,0,0,1.772.231c.319.011.651.008.994-.009s.684-.068,1.043-.125a14.676,14.676,0,0,0,2.6-.666,20.506,20.506,0,0,0,2.6-1.186,25.787,25.787,0,0,0,2.5-1.653,28.646,28.646,0,0,0,2.286-2.05A6.343,6.343,0,0,0,323.4,115.6a10.207,10.207,0,0,0-2.053,0,16.044,16.044,0,0,0-2.317.363q-.494.115-.985.261c-.327.1-.668.187-1,.3-.667.211-1.324.463-1.976.742a66.25,66.25,0,0,0,5.954-5.69,6.21,6.21,0,0,0,2.956.719,8.841,8.841,0,0,0,1.806-.177,12.126,12.126,0,0,0,1.96-.62c.4-.164.8-.346,1.2-.553a13.409,13.409,0,0,0,1.162-.7,15.632,15.632,0,0,0,2.245-1.751,18.526,18.526,0,0,0,2.036-2.174,20.3,20.3,0,0,0,1.746-2.509c-1.988-.913-4.648-.555-7.609.914a18.645,18.645,0,0,0-1.9,1.07,21.053,21.053,0,0,0-1.862,1.255l1.247-1.706,1.173-1.757c.4-.579.749-1.192,1.117-1.792l.546-.9c.186-.3.343-.615.515-.921a6.262,6.262,0,0,0,3.086.063,7.719,7.719,0,0,0,.858-.235,9.078,9.078,0,0,0,.866-.354,12.166,12.166,0,0,0,1.8-1.05A10.077,10.077,0,0,0,337,97.586q.5-.441.981-.938a13.875,13.875,0,0,0,.935-1.048q.436-.557.852-1.158t.8-1.24q.361-.648.691-1.328t.629-1.384c.19-.472.351-.956.51-1.442a6.185,6.185,0,0,0-3.44.343,10.567,10.567,0,0,0-1.865.891q-.469.282-.942.621c-.315.226-.622.474-.954.732a17.962,17.962,0,0,0-1.714,1.561c-.265.283-.549.564-.82.857s-.535.593-.792.9c.285-.665.594-1.321.859-2l.784-2.025c.256-.677.47-1.369.707-2.052.113-.344.237-.684.341-1.03l.3-1.042a6.275,6.275,0,0,0,3.066-.6,10.147,10.147,0,0,0,3.118-2.4,16.007,16.007,0,0,0,2.823-4.687c.18-.45.356-.91.508-1.382s.268-.954.384-1.442.219-.983.311-1.483.134-1.006.183-1.513a6.18,6.18,0,0,0-3.268,1.082,12.551,12.551,0,0,0-3.178,3.006,18.144,18.144,0,0,0-1.4,2.014c-.207.355-.431.714-.641,1.082s-.409.742-.6,1.123a62.834,62.834,0,0,0,1.185-8.842,6.237,6.237,0,0,0,2.9-1.23,7.788,7.788,0,0,0,1.342-1.281,12.162,12.162,0,0,0,1.219-1.752,9.652,9.652,0,0,0,.584-1.169q.262-.607.486-1.26t.408-1.338c.122-.458.2-.926.28-1.4s.14-.963.19-1.455a13.039,13.039,0,0,0,.086-1.492,27.237,27.237,0,0,0-.149-3.036,6.37,6.37,0,0,0-3.012,1.756,10.212,10.212,0,0,0-1.3,1.589c-.2.3-.386.62-.589.958s-.39.693-.573,1.066a21.624,21.624,0,0,0-.978,2.4,21.282,21.282,0,0,0-.758,2.571l-.067-2.3-.018-.574-.044-.573-.088-1.146-.088-1.146c-.024-.382-.088-.761-.13-1.141l-.288-2.279a6.077,6.077,0,0,0,2.591-1.809,8.912,8.912,0,0,0,1.071-1.555c.081-.148.162-.3.237-.459s.14-.318.206-.484q.2-.5.368-1.053.188-.616.327-1.273a10.48,10.48,0,0,0,.211-1.341,21.482,21.482,0,0,0,.08-2.836,24.471,24.471,0,0,0-.388-2.942,13.845,13.845,0,0,0-.361-1.475q-.211-.733-.463-1.46a6.26,6.26,0,0,0-2.534,2.375,9.282,9.282,0,0,0-.483.866c-.147.3-.29.627-.432.969a14.413,14.413,0,0,0-.693,2.232,27.434,27.434,0,0,0-.464,2.717q-.076.7-.1,1.4c-.031.474-.061.954-.068,1.434a61.565,61.565,0,0,0-2.76-9.058c1.747-1.041,3.013-3.117,3.267-6.267A18.424,18.424,0,0,0,333.26,27.6a6.218,6.218,0,0,0-1.926,2.881,12.187,12.187,0,0,0-.49,2,14.243,14.243,0,0,0-.161,2.325,20.465,20.465,0,0,0,.17,2.917c.073.485.135.985.215,1.484s.181.994.3,1.489a60.407,60.407,0,0,0-4.844-8.485,6.124,6.124,0,0,0,1.663-2.793,10.064,10.064,0,0,0,.165-4.114,18.484,18.484,0,0,0-5.583-9.946,6.2,6.2,0,0,0-1.2,3.25,12.8,12.8,0,0,0,.369,4.367,18.792,18.792,0,0,0,.9,2.964,23.811,23.811,0,0,0,1.273,2.939,61.666,61.666,0,0,0-6.869-7.4,6.062,6.062,0,0,0,1.005-3.123,9.967,9.967,0,0,0-.807-4.095" fill="#2bb7d9"/></g><g style="isolation:isolate"><g style="isolation:isolate"><path d="M226.612,41.884a11.293,11.293,0,0,1,2.662-.364c2.129,0,3.81,1.135,3.81,3.04,0,1.639-.855,2.871-3.054,3.418a11.435,11.435,0,0,1-1.821.224l-.644-1.78a10.62,10.62,0,0,0,1.709-.1c1.12-.2,2.017-.771,2.017-1.779,0-.939-.84-1.485-2.045-1.485a9.857,9.857,0,0,0-2.606.378c.028,1.107.07,2.171.07,2.648,0,1.722-.63,2.17-1.527,2.17-1.358,0-3.277-1.162-3.277-2.632,0-1.219,1.415-2.466,3.109-3.208-.014-.323-.014-.645-.014-.967V40.288c-.266.013-.518.028-.742.028-.631,0-1.331-.015-1.933-.07l-.029-1.681a15.186,15.186,0,0,0,1.92.111c.252,0,.518-.013.8-.027.015-.49.015-.9.015-1.135a10.978,10.978,0,0,0-.1-1.218h1.9c-.028.251-.084.854-.112,1.2-.014.308-.028.644-.042.995a19.044,19.044,0,0,0,2.55-.519l.042,1.738a26.829,26.829,0,0,1-2.648.433c-.014.421-.014.841-.014,1.247Zm-1.527,3.9c0-.351-.013-.981-.042-1.709-.854.434-1.415,1.008-1.415,1.5,0,.421.645.813,1.009.813C224.889,46.381,225.085,46.255,225.085,45.779Zm5.715-7.984a30.529,30.529,0,0,1,3.4,1.946l-.841,1.43a20.9,20.9,0,0,0-3.334-2.018Z" fill="#121212"/></g><g style="isolation:isolate"><path d="M246.172,39.923a8.952,8.952,0,0,1-2.409,2.578,21.336,21.336,0,0,0,4.959,1.05,8.18,8.18,0,0,0-1.051,1.612c-.49-.071-.966-.155-1.428-.239v3.894H244.52v-.406h-4.665v.434H238.23V45.008c-.616.168-1.232.308-1.862.434a5.718,5.718,0,0,0-.771-1.471,19.872,19.872,0,0,0,4.916-1.386,11.5,11.5,0,0,1-1.261-1.051,13.825,13.825,0,0,1-1.709.939,4.645,4.645,0,0,0-1.106-1.233,8.138,8.138,0,0,0,3.937-2.816H237.8v1.555h-1.639V36.912h5.113V35.777h1.709v1.135h5.2v3.067h-1.709V38.424h-5.854l1.555.309c-.141.2-.294.392-.449.588h3.054l.28-.07ZM244.52,47.04V45.848h-4.665V47.04Zm-.028-2.564a15.288,15.288,0,0,1-2.4-.938,17.951,17.951,0,0,1-2.171.938Zm-4.034-3.852a8.067,8.067,0,0,0,1.638,1.148,8.027,8.027,0,0,0,1.541-1.2h-3.109Z" fill="#121212"/><path d="M254.08,44.434c-.168-.406-.463-1.037-.771-1.639v6.038H251.8v-5.24a11.767,11.767,0,0,1-1.275,2.76,7.9,7.9,0,0,0-.728-1.471,13.985,13.985,0,0,0,1.877-4.693h-1.555v-1.54H251.8V35.763h1.513v2.886h1.4v1.54h-1.4v.617c.378.518,1.387,2.059,1.625,2.437Zm3.824,1.891c-.981.574-2.073,1.19-2.97,1.681l-.715-1.4c.827-.378,2.06-1.009,3.25-1.625Zm4.944-2.774c-.588.6-1.3,1.275-1.848,1.723a5.737,5.737,0,0,0,2.184,1.583,6.263,6.263,0,0,0-1.051,1.345,6.651,6.651,0,0,1-2.478-2.465v1.456c0,.757-.141,1.149-.589,1.4a4.551,4.551,0,0,1-1.989.281,5.163,5.163,0,0,0-.449-1.486c.477.029,1.023.029,1.192.029s.223-.071.223-.239V42.4h-3.292V41.044h3.292v-.617H255.4V39.181h2.647v-.56h-3.025v-1.3h1.429a8.077,8.077,0,0,0-.547-1.093l1.317-.448a7.367,7.367,0,0,1,.8,1.541h1.737c.21-.477.491-1.12.63-1.569l1.654.379c-.252.419-.5.839-.729,1.19h1.359v1.3h-3.011v.56h2.717v1.246h-2.717v.617h3.263V42.4h-3.263v.546a7.4,7.4,0,0,0,.574,1.232,11.02,11.02,0,0,0,1.358-1.512Zm-6.695-.84a9.657,9.657,0,0,1,1.387,1.695l-1.192.841a9.783,9.783,0,0,0-1.33-1.793Z" fill="#121212"/><path d="M266.608,42.3a10.62,10.62,0,0,0-2.493-1.372l.882-1.26a9.088,9.088,0,0,1,2.536,1.232ZM264.479,47.7a47.74,47.74,0,0,0,2.241-4.483l1.317.995c-.631,1.5-1.359,3.109-2.087,4.468Zm1.288-11.822a10.712,10.712,0,0,1,2.409,1.484l-1.036,1.316a9.847,9.847,0,0,0-2.353-1.6Zm7.466,4.972v.84h3.684V47.25c0,.728-.14,1.106-.616,1.33a5.315,5.315,0,0,1-2.1.238,4.618,4.618,0,0,0-.378-1.387c.518.029,1.12.029,1.3.029s.238-.071.238-.225v-4.1h-2.312v2.227h.687V43.706h.967v3.319h-.967v-.462H271.2v.813h-.995v-3.67h.995v1.652h.63V43.131h-2.2v5.7h-1.47V41.688h3.473v-.84h-3.893V39.391h2.226V38.354h-1.793V36.912h1.793V35.777h1.555v1.135H273.4V35.777h1.61v1.135h1.822v1.442h-1.822v1.037h2.213v1.457Zm-1.709-1.457H273.4V38.354h-1.878Z" fill="#121212"/><path d="M285.973,46.956a13.542,13.542,0,0,0,2.171.153c.6.015,2.676,0,3.445-.014a6.155,6.155,0,0,0-.574,1.611h-2.97c-2.815,0-4.986-.5-6.443-2.647a7.04,7.04,0,0,1-1.919,2.745,6.918,6.918,0,0,0-1.177-1.134c1.513-1.191,2.13-3.474,2.326-5.379l1.737.2c-.084.546-.2,1.106-.336,1.667a4.24,4.24,0,0,0,2.017,2.255V41.45h-4.02v-5.1h9.861v5.1h-4.118v1.723h4.567v1.541h-4.567ZM281.9,39.868h6.415v-1.92H281.9Z" fill="#121212"/><path d="M295.462,40.946c0,2.269-.21,5.7-1.484,7.858a6.046,6.046,0,0,0-1.359-.91c1.163-1.989,1.247-4.9,1.247-6.948V37.024h4.986V35.777h1.737v1.247h4.973v1.484h-10.1Zm9.33,3.25a6.873,6.873,0,0,1-2.4,2.661,18.607,18.607,0,0,0,3.446.6,6.571,6.571,0,0,0-.98,1.428,14.8,14.8,0,0,1-4.259-1.106,19.037,19.037,0,0,1-4.608,1.093,5.627,5.627,0,0,0-.672-1.4,18.965,18.965,0,0,0,3.628-.63,7.1,7.1,0,0,1-1.612-1.554L298,45.05h-2.087v-1.3h7.549l.3-.071ZM297.7,43.187V41h-1.891V39.685H297.7V38.76h1.569v.925h2.549V38.76h1.653v.925h2.017V41h-2.017v2.185Zm1.316,1.863a5.577,5.577,0,0,0,1.64,1.149,6.4,6.4,0,0,0,1.68-1.149ZM299.273,41v.924h2.549V41Z" fill="#121212"/></g></g><g style="isolation:isolate"><g style="isolation:isolate"><path d="M258.3,108.787a7.129,7.129,0,0,0,4.778,2,6.409,6.409,0,0,0-.981,1.457c-2.662-.421-4.329-1.415-5.435-3.153-.826,1.247-2.381,2.354-5.239,3.124a6.763,6.763,0,0,0-1.037-1.344,8.511,8.511,0,0,0,4.469-2.087h-4.217v-1.444h5.03a6.4,6.4,0,0,0,.139-.881h-3.586v-1.345h3.6v-.841h-3.824v-.925h-1.247v-2.983h5.113V99.149h1.709v1.219h5.126v2.983h-1.12v.925h-4.091v.841h3.81v1.345h-3.824a4.659,4.659,0,0,1-.112.881h5.533v1.444Zm-2.478-5.856v-.8h1.666v.8h3.488v-1.106H252.4v1.106Z" fill="#121212"/><path d="M265.993,107.553a12.87,12.87,0,0,1-.827,3.615,6.9,6.9,0,0,0-1.219-.588,10.248,10.248,0,0,0,.715-3.25Zm1.625-1.12v5.785h-1.429v-5.672l-2,.139-.111-1.442,1.008-.057c.21-.252.42-.532.63-.826a12.952,12.952,0,0,0-1.6-1.961l.812-1.121c.1.1.21.2.322.295a17.08,17.08,0,0,0,1.008-2.424l1.444.5a32.177,32.177,0,0,1-1.583,2.857,7.037,7.037,0,0,1,.448.546,22.8,22.8,0,0,0,1.261-2.269l1.358.631c-.77,1.176-1.723,2.563-2.605,3.683l1.3-.084c-.139-.322-.294-.63-.448-.924l1.19-.476a12.1,12.1,0,0,1,1.206,2.941l-1.247.561a7.332,7.332,0,0,0-.2-.757Zm1.316.784a10.429,10.429,0,0,1,.714,2.466l-1.232.406a9.835,9.835,0,0,0-.645-2.521Zm6.079,2.747c.855.5,1.821,1.091,2.381,1.484l-1.456.784a24.472,24.472,0,0,0-2.312-1.639l.869-.629h-2.549l.938.616a12.411,12.411,0,0,1-3.362,1.694c-.252-.294-.714-.742-1.022-1.036a10.912,10.912,0,0,0,2.759-1.274h-1.218V104.22h6.471v5.744Zm-2.676-9.176h-2.815V99.78h2.815v-.631H274v.631h2.914v1.008H274v.476h2.579v.967H274v.476h3.18v1.037h-8.012v-1.037h3.165v-.476h-2.478v-.967h2.478Zm-.812,5.043h3.4v-.588h-3.4Zm0,1.554h3.4v-.6h-3.4Zm0,1.541h3.4v-.587h-3.4Z" fill="#121212"/></g></g><g style="isolation:isolate"><g style="isolation:isolate"><path d="M249.64,78.5a7.842,7.842,0,0,1-5.672,2.385,8.383,8.383,0,0,1-6.638-2.847,11.243,11.243,0,0,1-2.493-7.681,11.981,11.981,0,0,1,1.343-5.639,9.865,9.865,0,0,1,3.749-4,10.4,10.4,0,0,1,5.414-1.428,9.94,9.94,0,0,1,5.5,1.547,10.175,10.175,0,0,1,3.739,4.447,15.991,15.991,0,0,1,1.353,6.639v2.3q0,7.821-3.889,12.289t-11.021,4.77L239.5,91.3V86.123l1.375-.022Q248.974,85.737,249.64,78.5Zm-4.146-2.364a4.343,4.343,0,0,0,2.589-.773,5.19,5.19,0,0,0,1.643-1.869V70.933a8.537,8.537,0,0,0-1.2-4.9,3.736,3.736,0,0,0-3.223-1.74A3.623,3.623,0,0,0,242.228,66a7.254,7.254,0,0,0-1.2,4.286,7.063,7.063,0,0,0,1.171,4.2A3.812,3.812,0,0,0,245.494,76.132Z" fill="#2bb7d9"/><path d="M265.4,72.609h3.308a4.66,4.66,0,0,0,3.5-1.182,4.328,4.328,0,0,0,1.139-3.136,3.831,3.831,0,0,0-1.128-2.944,4.375,4.375,0,0,0-3.1-1.052,4.585,4.585,0,0,0-2.987.977,3.127,3.127,0,0,0-1.2,2.546h-6.209a7.638,7.638,0,0,1,1.322-4.394,8.809,8.809,0,0,1,3.7-3.04,12.335,12.335,0,0,1,5.231-1.095q4.963,0,7.778,2.374a8.1,8.1,0,0,1,2.814,6.542,6.586,6.586,0,0,1-1.31,3.953,8.513,8.513,0,0,1-3.438,2.771,7.785,7.785,0,0,1,3.942,2.836,7.691,7.691,0,0,1,1.3,4.469,8.234,8.234,0,0,1-3.04,6.682,12.229,12.229,0,0,1-8.046,2.513,11.589,11.589,0,0,1-7.659-2.47,8.069,8.069,0,0,1-2.975-6.532h6.209a3.6,3.6,0,0,0,1.321,2.879,5.513,5.513,0,0,0,6.724-.053,4.044,4.044,0,0,0,1.257-3.1q0-4.683-5.156-4.684H265.4Z" fill="#2bb7d9"/></g><g style="isolation:isolate"><path d="M282.585,81.239a2.373,2.373,0,0,1,.731-1.81,3.153,3.153,0,0,1,3.927,0,2.44,2.44,0,0,1,.721,1.855v.6a2.362,2.362,0,0,1-.721,1.8,2.731,2.731,0,0,1-1.951.681,2.8,2.8,0,0,1-1.963-.677,2.384,2.384,0,0,1-.744-1.854Zm1.8.637a1.006,1.006,0,0,0,.24.7.847.847,0,0,0,.665.267q.871,0,.871-1.1v-.5a1.057,1.057,0,0,0-.233-.7.805.805,0,0,0-.655-.277.827.827,0,0,0-.648.269,1.054,1.054,0,0,0-.24.729Zm1.436,8.22-1.3-.656,5.9-9.446,1.3.655Zm2.507-2.058a2.354,2.354,0,0,1,.734-1.811,2.767,2.767,0,0,1,1.955-.68,2.8,2.8,0,0,1,1.968.672,2.427,2.427,0,0,1,.73,1.876v.581a2.372,2.372,0,0,1-.722,1.81,2.741,2.741,0,0,1-1.959.681,2.8,2.8,0,0,1-1.963-.677,2.384,2.384,0,0,1-.743-1.855Zm1.793.636a.981.981,0,0,0,.265.681.842.842,0,0,0,.648.292.762.762,0,0,0,.871-.758l.009-.849a1.011,1.011,0,0,0-.242-.705.835.835,0,0,0-.655-.269.846.846,0,0,0-.64.252,1,1,0,0,0-.256.68Z" fill="#121212"/></g></g><g clip-path="url(#c)"><path d="M401.24,23.669a23.387,23.387,0,0,0,8.645-2.55,6.448,6.448,0,0,0-2.485-2.29,7.114,7.114,0,0,0-1.8-.645,10.133,10.133,0,0,0-2.168-.237,13.629,13.629,0,0,0-3.078.45q-.768.229-1.542.54a11.74,11.74,0,0,0-1.524.714,57.135,57.135,0,0,1,8.542-5.8,7.055,7.055,0,0,0,2.509,2.069,11.881,11.881,0,0,0,3.653,1.18,23.546,23.546,0,0,0,8.954-.279,6.458,6.458,0,0,0-1.818-2.85,7.09,7.09,0,0,0-1.569-1.078,10.078,10.078,0,0,0-2.034-.778,12.826,12.826,0,0,0-1.594-.263c-.275-.029-.553-.05-.836-.063a7.123,7.123,0,0,0-.852,0c-.568.029-1.147.087-1.732.173-.292.044-.588.09-.881.152s-.579.147-.868.231c.329-.157.653-.327.987-.473l1.007-.429,1.007-.43c.169-.07.334-.147.505-.211l.514-.188A18.681,18.681,0,0,0,415,10.74c.761.022,1.545.026,2.334-.03q.3-.02.6-.048c.2-.017.4-.023.606-.039q.609-.044,1.226-.123c.412-.047.821-.131,1.242-.183s.843-.123,1.267-.2a31.542,31.542,0,0,0,9.584-3.287A14.2,14.2,0,0,0,427.14,5.3q-.671-.1-1.372-.162-.7-.025-1.42-.01c-.481.01-.971.036-1.465.075a14.884,14.884,0,0,0-1.485.231q-.7.132-1.368.3c-.448.107-.878.269-1.3.415s-.837.314-1.239.483c-.2.087-.4.167-.593.265s-.381.2-.567.3a17.842,17.842,0,0,0-2.067,1.317,16.58,16.58,0,0,0-1.679,1.533c-.6.2-1.176.455-1.76.692l-.874.362c-.29.122-.586.234-.868.376-1.136.547-2.292,1.056-3.39,1.68a30.036,30.036,0,0,0,5.014-4.9l.369-.5c.121-.159.238-.317.349-.476q.335-.477.612-.953a10.7,10.7,0,0,0,.863-1.885,6.21,6.21,0,0,0,.323-3.451c-.493.169-.991.325-1.465.538s-.943.429-1.4.659-.908.467-1.341.725-.843.551-1.244.838-.787.584-1.157.887a13.636,13.636,0,0,0-1.038.973q-.49.5-.923,1.017a9.965,9.965,0,0,0-.794,1.058A12.067,12.067,0,0,0,402.8,9.7a9.18,9.18,0,0,0-.329.954,7.475,7.475,0,0,0-.185.938,5.974,5.974,0,0,0,.423,3.269,58.709,58.709,0,0,0-8.311,6.2l.986-1.372q.48-.687.9-1.4c.274-.486.56-.942.812-1.421s.487-.961.695-1.452l.233-.572q.116-.274.218-.548.2-.544.352-1.075a10.566,10.566,0,0,0,.373-2.041,6.217,6.217,0,0,0-.563-3.419c-.432.286-.871.563-1.274.886s-.8.648-1.184.984-.757.676-1.109,1.032-.675.739-.989,1.115-.614.758-.895,1.141a13.994,13.994,0,0,0-.759,1.194q-.35.6-.64,1.208a10.1,10.1,0,0,0-.506,1.217,12.037,12.037,0,0,0-.535,2.183,9.178,9.178,0,0,0-.088.994,7.443,7.443,0,0,0,.042.944,6.038,6.038,0,0,0,1.158,3.054,62.33,62.33,0,0,0-6.417,7.7c.1-.251.2-.494.3-.737s.2-.49.291-.736q.278-.74.5-1.492a20.309,20.309,0,0,0,.732-2.965c.062-.416.126-.809.171-1.193s.072-.76.084-1.126a10.515,10.515,0,0,0-.13-2.067,6.214,6.214,0,0,0-1.372-3.178c-.349.379-.7.752-1.018,1.158s-.618.816-.908,1.231-.567.835-.826,1.259-.476.873-.691,1.312a15.355,15.355,0,0,0-1.05,2.647,15.053,15.053,0,0,0-.543,2.615,9.887,9.887,0,0,0,.381,4.091,6.12,6.12,0,0,0,1.791,2.7l-.631,1.036c-.2.351-.39.708-.585,1.062l-.582,1.064-.29.533-.266.545-1.059,2.183-.96,2.229a25.7,25.7,0,0,0,.346-2.954,18.6,18.6,0,0,0,.019-2.881,12.587,12.587,0,0,0-.878-4.289,6.191,6.191,0,0,0-2.073-2.776,18.548,18.548,0,0,0-2.56,11.067,10.05,10.05,0,0,0,1.267,3.855,6.11,6.11,0,0,0,2.306,2.23l-.362,1.119c-.12.373-.247.745-.343,1.125l-.618,2.27c-.193.76-.347,1.53-.522,2.295-.08.384-.18.764-.245,1.151l-.2,1.16q-.049-.709-.143-1.41c-.046-.464-.1-.923-.173-1.378s-.161-.905-.265-1.349c-.051-.222-.109-.443-.166-.661s-.106-.432-.166-.645c-.92-3.177-2.423-5.366-4.458-6.222a21.188,21.188,0,0,0-.91,5.927,21.547,21.547,0,0,0,.216,2.825,14.761,14.761,0,0,0,.671,2.582,9.448,9.448,0,0,0,2.049,3.449,6.061,6.061,0,0,0,2.667,1.68c-.106,1.517-.268,3.032-.28,4.554l-.031,1.139-.017.57.009.57.037,2.287a21.094,21.094,0,0,0-.87-2.494,21.783,21.783,0,0,0-1.08-2.319,13.535,13.535,0,0,0-2.634-3.487,6.347,6.347,0,0,0-3.091-1.612,18.759,18.759,0,0,0,2.433,11.041c1.622,2.579,3.694,3.824,5.641,3.993.065.737.183,1.467.294,2.2s.2,1.465.361,2.188l.43,2.177.522,2.157a22.288,22.288,0,0,0-1.335-2.113,18.014,18.014,0,0,0-1.473-1.919,18.551,18.551,0,0,0-1.641-1.653,10.405,10.405,0,0,0-1.686-1.194,7.672,7.672,0,0,0-1.68-.713,5.414,5.414,0,0,0-1.66-.2,19.8,19.8,0,0,0,.646,2.968c.143.482.275.96.46,1.422s.37.915.572,1.356.414.87.636,1.284a13.45,13.45,0,0,0,.747,1.189q.388.571.8,1.091c.139.173.277.342.421.505s.3.319.455.471c2.122,2.142,4.381,2.917,6.3,2.686.218.686.487,1.352.746,2.023s.507,1.346.808,2,.573,1.319.87,1.974l.951,1.937A20.967,20.967,0,0,0,379,96.188a18.513,18.513,0,0,0-1.758-1.455c-2.657-1.962-5.216-2.771-7.331-2.217a20.283,20.283,0,0,0,1.281,2.767,18.211,18.211,0,0,0,1.623,2.49c.3.386.585.764.91,1.113s.654.683.989,1,.676.613,1.021.891a13.142,13.142,0,0,0,2.921,1.715,8.324,8.324,0,0,0,1.758.494,6.23,6.23,0,0,0,3.063-.209,66.91,66.91,0,0,0,4.931,6.794,24.629,24.629,0,0,0-3.821-2.1,13.607,13.607,0,0,0-4.232-1.133,7.435,7.435,0,0,0-1.837.087,5.425,5.425,0,0,0-1.586.532,25.157,25.157,0,0,0,1.868,2.421,22.552,22.552,0,0,0,2.149,2.067,15.771,15.771,0,0,0,4.768,2.757,9.58,9.58,0,0,0,3.793.6,6.8,6.8,0,0,0,1.57-.268,5.812,5.812,0,0,0,1.345-.6l1.481,1.414c.5.461,1.025.9,1.538,1.353.26.221.509.455.778.666l.8.638c.539.419,1.058.866,1.62,1.254-.677-.211-1.322-.444-1.99-.615s-1.345-.3-1.99-.433a14.556,14.556,0,0,0-2.328-.244h-.545c-.179,0-.348,0-.519.014a9.383,9.383,0,0,0-.989.1,6.283,6.283,0,0,0-3.189,1.389,18.42,18.42,0,0,0,10.279,5.02,10.266,10.266,0,0,0,3.79-.305,6.361,6.361,0,0,0,2.619-1.523c1.132.7,2.326,1.292,3.5,1.92,1.207.561,2.4,1.159,3.641,1.642a26.848,26.848,0,0,0-3.868-.009c-.209.019-.414.04-.616.065s-.394.04-.587.066q-.578.077-1.115.194a10.648,10.648,0,0,0-1.979.63,6.181,6.181,0,0,0-2.754,2.1c.456.249.911.5,1.381.711s.951.4,1.43.584.954.353,1.438.492.974.251,1.456.353.96.189,1.434.256a12.943,12.943,0,0,0,1.421.1,12.787,12.787,0,0,0,2.694-.141,12.175,12.175,0,0,0,1.956-.474,6.652,6.652,0,0,0,.846-.342q.39-.186.759-.409a6.291,6.291,0,0,0,2.145-2.072c.309.1.625.176.941.255l.946.237.946.237c.315.081.637.132.954.2l1.913.38,1.93.284q-.909.169-1.793.418c-.588.163-1.158.312-1.719.512a14.164,14.164,0,0,0-3.916,2.011,7.49,7.49,0,0,0-1.315,1.3,5.369,5.369,0,0,0-.827,1.456,24.992,24.992,0,0,0,3.062.541,22.623,22.623,0,0,0,3.025.077,12.728,12.728,0,0,0,1.459-.141q.717-.1,1.4-.248c.227-.049.452-.1.673-.157a1.586,1.586,0,0,0,.275-.1l.252-.1c.334-.142.666-.3.991-.457a10.662,10.662,0,0,0,4.669-3.978,43.23,43.23,0,0,1,6.838,2.35,12.073,12.073,0,0,0-1.625.014,10.947,10.947,0,0,0-1.549.244,6.963,6.963,0,0,0-5.374,4.653,24.7,24.7,0,0,0,8.642.4,14.2,14.2,0,0,0,3.156-.813,8.538,8.538,0,0,0,2.447-1.452,26.37,26.37,0,0,1,3.78,2.926,20.753,20.753,0,0,1,3.045,3.6,33.944,33.944,0,0,1,3.916,8.791l2.646-.834a47.288,47.288,0,0,0-2.161-5.6,26.753,26.753,0,0,0-3.2-5.217,24,24,0,0,0-2.07-2.288c-.376-.348-.753-.7-1.141-1.031s-.783-.658-1.2-.956a37.325,37.325,0,0,0-5.116-3.2,7.656,7.656,0,0,0-2.006-6.2,15.247,15.247,0,0,0-4.407-3.6,20.252,20.252,0,0,0-5.9-2.14c-.186,2.2,1.111,4.566,3.47,6.932a28.616,28.616,0,0,0,2.6,2.308,45.892,45.892,0,0,0-7.445-1.89,6.179,6.179,0,0,0-1.084-2.766,8.337,8.337,0,0,0-.524-.675q-.144-.168-.3-.334l-.161-.166c-.052-.055-.091-.109-.138-.164a13.3,13.3,0,0,0-1.213-1.266,23.78,23.78,0,0,0-7.684-4.577,7.121,7.121,0,0,0,2.027,6.873,13.087,13.087,0,0,0,1.263,1.16,12.332,12.332,0,0,0,1.477.982l-.924-.173-.462-.087-.451-.1-1.829-.437c-.609-.151-1.206-.345-1.809-.515l-.9-.263-.89-.306a7.737,7.737,0,0,0-.395-2.9,12.581,12.581,0,0,0-1.472-3.065,23.38,23.38,0,0,0-6.3-6.414,6.4,6.4,0,0,0-.847,3.266,7.368,7.368,0,0,0,.065.939,8,8,0,0,0,.2.956,10.368,10.368,0,0,0,.811,2.022,12.616,12.616,0,0,0,1.005,1.514q.283.371.6.732c.21.24.439.456.672.68a53.453,53.453,0,0,1-6.753-3.767,7.962,7.962,0,0,0,.374-2.944,10.637,10.637,0,0,0-.208-1.649q-.086-.422-.207-.85c-.077-.29-.159-.592-.256-.891a23.613,23.613,0,0,0-4.61-7.786,6.3,6.3,0,0,0-1.589,2.962,7.984,7.984,0,0,0-.2,1.918,9.605,9.605,0,0,0,.315,2.146q.118.463.274.928t.372.906a15.984,15.984,0,0,0,.966,1.79,64.248,64.248,0,0,1-5.82-5.442,7.675,7.675,0,0,0,1.109-2.8,10.566,10.566,0,0,0,.183-1.664,13.125,13.125,0,0,0-.032-1.839,23.259,23.259,0,0,0-2.7-8.7c-1.843,1.192-3.108,3.387-3.056,6.515a13.315,13.315,0,0,0,.218,2.06,16.747,16.747,0,0,0,.6,2.072l-1.229-1.642L385.5,102.6c-.4-.557-.739-1.15-1.1-1.729l-.541-.872c-.184-.288-.339-.594-.51-.89a7.458,7.458,0,0,0,1.751-2.483c.112-.248.211-.5.308-.771s.192-.548.274-.835a12.95,12.95,0,0,0,.377-1.818,23.044,23.044,0,0,0-.674-9.107,6.446,6.446,0,0,0-2.756,1.974,7.783,7.783,0,0,0-1,1.629,9.673,9.673,0,0,0-.39.984,7.925,7.925,0,0,0-.3,1.092,13.681,13.681,0,0,0-.242,2.183,9.182,9.182,0,0,0,.029,1.137q.044.571.124,1.157c-.284-.645-.592-1.279-.857-1.933l-.785-1.964c-.257-.657-.472-1.329-.71-1.992-.114-.334-.239-.664-.343-1l-.3-1.013a7.33,7.33,0,0,0,2.289-2.035,11.953,11.953,0,0,0,1.72-3.167,22.834,22.834,0,0,0,1.331-9.069,6.446,6.446,0,0,0-3.12,1.331,8.9,8.9,0,0,0-2.455,3.252,13.829,13.829,0,0,0-.745,2.206,9.392,9.392,0,0,0-.221,1.189q-.081.6-.123,1.231a61.354,61.354,0,0,1-1.251-8.627A7.274,7.274,0,0,0,378,71.178a12.4,12.4,0,0,0,1.252-1.228,12.8,12.8,0,0,0,1.148-1.525,22.6,22.6,0,0,0,3.23-8.583,6.256,6.256,0,0,0-3.3.638,7.99,7.99,0,0,0-1.614,1.057,7.7,7.7,0,0,0-.772.728,11.151,11.151,0,0,0-.711.868,12.368,12.368,0,0,0-1.272,2.123,18.013,18.013,0,0,0-.877,2.448l.041-2.251.011-.563.037-.561.074-1.123.076-1.128c.019-.375.078-.746.116-1.12l.261-2.233a7.384,7.384,0,0,0,3.036-.847,10.065,10.065,0,0,0,1.49-.939c.122-.092.242-.187.364-.286s.252-.2.377-.3q.375-.313.74-.665.406-.392.779-.813c.247-.281.483-.572.734-.864a16.17,16.17,0,0,0,1.333-1.862,18.336,18.336,0,0,0,1.171-2l.52-1.04q.254-.525.472-1.065a6.351,6.351,0,0,0-3.372-.11,7.827,7.827,0,0,0-.9.27,6.431,6.431,0,0,0-.9.405,10.383,10.383,0,0,0-1.794,1.233,10.945,10.945,0,0,0-1.777,1.916q-.406.539-.779,1.127c-.237.4-.448.808-.655,1.231a60.53,60.53,0,0,1,2.612-8.918,9.463,9.463,0,0,0,6.584-1.629,23.435,23.435,0,0,0,6.58-6.3,6.408,6.408,0,0,0-3.267-.872,7.055,7.055,0,0,0-1.9.258,10.481,10.481,0,0,0-2.037.791,13.082,13.082,0,0,0-2.275,1.574,9.892,9.892,0,0,0-1.04,1.007q-.5.539-.964,1.131a59.291,59.291,0,0,1,4.673-8.394,7.091,7.091,0,0,0,3.13.6,11.714,11.714,0,0,0,3.712-.672,23.265,23.265,0,0,0,7.826-4.591,6.442,6.442,0,0,0-2.974-1.612,8.738,8.738,0,0,0-4.067.107,14.136,14.136,0,0,0-2.74,1.082,17.754,17.754,0,0,0-2.561,1.773,60.7,60.7,0,0,1,6.688-7.365,7.069,7.069,0,0,0,2.923,1.353,11.809,11.809,0,0,0,3.8.228" fill="#2bb7d9"/><path d="M500.437,14.256a16.632,16.632,0,0,0-1.282-2.357q-.19-.292-.394-.585a6.067,6.067,0,0,0-.439-.557q-.451-.555-.954-1.1A14.368,14.368,0,0,0,496.313,8.6q-.562-.5-1.165-.974c-.4-.314-.81-.63-1.238-.919s-.877-.55-1.327-.809a6.2,6.2,0,0,0-.367,3.447,12.012,12.012,0,0,0,.49,2.013,14.993,14.993,0,0,0,.93,2.141,19.928,19.928,0,0,0,1.692,2.824q.467.7.99,1.377c.347.45.724.874,1.083,1.328a57.875,57.875,0,0,0-8.716-5.78,6.007,6.007,0,0,0,.248-3.3,9.855,9.855,0,0,0-1.808-3.821,16.675,16.675,0,0,0-1.834-1.97c-.172-.158-.349-.316-.53-.47s-.374-.289-.568-.431q-.58-.424-1.206-.826a14.435,14.435,0,0,0-1.294-.758q-.674-.34-1.381-.65c-.471-.2-.949-.4-1.437-.579s-.992-.309-1.5-.446a6.2,6.2,0,0,0,.527,3.427,11.922,11.922,0,0,0,.988,1.827,15.243,15.243,0,0,0,1.444,1.838q.563.657,1.191,1.267.314.3.643.6c.219.194.445.381.666.585q.67.6,1.394,1.14c.24.182.487.355.733.532s.489.367.739.543c-.335-.155-.664-.324-1-.468l-1.023-.423-1.023-.423c-.171-.069-.34-.145-.513-.208l-.522-.185a16.576,16.576,0,0,0-1.679-1.533A18.029,18.029,0,0,0,477.87,7.2q-.279-.154-.567-.3c-.193-.1-.392-.178-.593-.265q-.6-.255-1.239-.483c-.425-.147-.855-.308-1.3-.415s-.9-.209-1.368-.3c-.5-.091-.992-.182-1.485-.231s-.983-.065-1.465-.075-.956-.008-1.421.01q-.7.062-1.371.162a14.2,14.2,0,0,0-4.719,1.528,31.542,31.542,0,0,0,9.584,3.287q.638.122,1.267.2c.421.053.83.136,1.242.184s.82.093,1.226.123c.2.016.407.022.606.039s.4.035.6.048c.79.056,1.573.052,2.334.03a18.568,18.568,0,0,0,2.211-.131c.591.2,1.158.463,1.733.7l.86.367c.286.124.577.238.854.381,1.117.554,2.254,1.068,3.332,1.7a13.286,13.286,0,0,0-6.653-.584c-.19.034-.373.068-.555.114s-.361.1-.535.158a9.6,9.6,0,0,0-.984.378,7.692,7.692,0,0,0-1.63.981,6.44,6.44,0,0,0-1.985,2.739,23.536,23.536,0,0,0,8.928.814A12.731,12.731,0,0,0,486.743,18q.466-.125.9-.282c.289-.1.564-.2.831-.322a7.107,7.107,0,0,0,2.626-1.92,58.006,58.006,0,0,1,8.133,6.209c-.237-.147-.476-.288-.715-.423s-.5-.245-.745-.359q-.749-.34-1.5-.6a10.015,10.015,0,0,0-1.514-.4,13.182,13.182,0,0,0-1.494-.206c-.193-.014-.38-.026-.567-.028s-.376.008-.558.018a9.7,9.7,0,0,0-1.049.118,7.725,7.725,0,0,0-1.828.538,6.432,6.432,0,0,0-2.616,2.146,23.357,23.357,0,0,0,8.5,3.044,12.766,12.766,0,0,0,1.982.139,8.731,8.731,0,0,0,.937-.049c.3-.027.592-.058.878-.107a7.127,7.127,0,0,0,2.993-1.19,61.51,61.51,0,0,1,6.237,7.65,7.414,7.414,0,0,0-.585-.522q-.3-.249-.609-.483-.613-.467-1.243-.867A13.3,13.3,0,0,0,503.1,28.9a7.62,7.62,0,0,0-1.094-.277,9.724,9.724,0,0,0-1.048-.138,7.757,7.757,0,0,0-1.907.081,6.428,6.428,0,0,0-3.06,1.45,23.113,23.113,0,0,0,7.575,5.012,11.983,11.983,0,0,0,3.659.868,7.141,7.141,0,0,0,3.155-.433l.61,1.025c.193.347.376.7.564,1.051l.561,1.053.28.527.255.539,1.018,2.157.92,2.2a16.106,16.106,0,0,0-1.873-2.2,14.082,14.082,0,0,0-2.166-1.662,8.857,8.857,0,0,0-3.875-1.254,6.444,6.444,0,0,0-3.314.7,23.123,23.123,0,0,0,6.254,6.639,11.824,11.824,0,0,0,3.332,1.66,7.251,7.251,0,0,0,3.137.309l.344,1.1c.114.367.235.733.324,1.108l.583,2.234c.181.748.324,1.5.488,2.256.075.377.169.751.228,1.131l.185,1.139q-.276-.641-.588-1.244c-.224-.4-.467-.78-.717-1.147s-.512-.717-.784-1.048c-.137-.166-.273-.327-.417-.482s-.3-.3-.457-.446a7.257,7.257,0,0,0-6.879-2.149,23.673,23.673,0,0,0,4.621,7.889,13.024,13.024,0,0,0,2.849,2.334,7.407,7.407,0,0,0,2.982,1c.087,1.488.231,2.972.226,4.463l.021,1.117.01.559-.015.559-.061,2.233a18.073,18.073,0,0,0-.76-2.449,12.209,12.209,0,0,0-1.155-2.152,8.438,8.438,0,0,0-2.963-2.8,6.281,6.281,0,0,0-3.264-.8,22.635,22.635,0,0,0,2.8,8.737,9.555,9.555,0,0,0,4.9,4.477c-.07.719-.194,1.431-.31,2.144s-.215,1.429-.376,2.133l-.442,2.12-.533,2.1a16.8,16.8,0,0,0-.225-2.4,13.967,13.967,0,0,0-.64-2.213,8.882,8.882,0,0,0-1.024-1.93,7.9,7.9,0,0,0-1.269-1.439,6.363,6.363,0,0,0-3.042-1.48,22.938,22.938,0,0,0,.882,9.11,9.655,9.655,0,0,0,3.735,5.39c-.219.666-.489,1.312-.748,1.963s-.507,1.305-.808,1.938-.572,1.278-.868,1.912l-.946,1.874a17.027,17.027,0,0,0,.261-2.251,13.419,13.419,0,0,0-.142-2.167c-.5-3.092-2.118-5.037-4.14-5.892a23.143,23.143,0,0,0-1.143,9.051,12.93,12.93,0,0,0,.292,1.835,11.469,11.469,0,0,0,.485,1.623,7.571,7.571,0,0,0,1.616,2.573,65.088,65.088,0,0,1-4.856,6.541,12.8,12.8,0,0,0,1-4.038,8.4,8.4,0,0,0-.612-4.022,6.509,6.509,0,0,0-.891-1.491,6.291,6.291,0,0,0-1.2-1.145,23.409,23.409,0,0,0-3.147,8.526,13.274,13.274,0,0,0-.036,3.5,8.653,8.653,0,0,0,.354,1.523,6.84,6.84,0,0,0,.59,1.326l-1.448,1.352c-.491.441-1,.86-1.5,1.292-.253.211-.5.435-.758.636l-.781.608c-.525.4-1.03.825-1.577,1.194a11.639,11.639,0,0,0,1.046-1.706,10.273,10.273,0,0,0,1.164-3.9c.015-.168.024-.333.028-.5s0-.331-.012-.492a7.723,7.723,0,0,0-.109-.934,6.357,6.357,0,0,0-1.433-3.048,23.375,23.375,0,0,0-5.01,7.525,12.112,12.112,0,0,0-.857,3.336,7.642,7.642,0,0,0,.2,2.942c-1.1.664-2.254,1.219-3.389,1.813-1.168.526-2.319,1.091-3.519,1.541a11.888,11.888,0,0,0,2.394-2.759q.154-.244.291-.486c.089-.167.17-.335.246-.5a9.854,9.854,0,0,0,.389-.981,7.7,7.7,0,0,0,.382-1.864,6.466,6.466,0,0,0-.667-3.318,23.586,23.586,0,0,0-6.65,6.028,12.992,12.992,0,0,0-.947,1.495q-.2.383-.38.741a7.064,7.064,0,0,0-.316.729,7.868,7.868,0,0,0-.565,2.879c-.3.093-.6.163-.9.235l-.909.217-.909.217c-.3.075-.612.119-.917.18l-1.837.344-1.852.252a15.7,15.7,0,0,0,1.508-.886,10.747,10.747,0,0,0,1.309-1.071,8.173,8.173,0,0,0,2.234-3.376,6.439,6.439,0,0,0,.329-1.7,6.353,6.353,0,0,0-.133-1.656,20.445,20.445,0,0,0-2.135.761,20.1,20.1,0,0,0-2.056.933c-.331.187-.665.342-.99.527s-.645.376-.958.582q-.235.154-.465.318a2.9,2.9,0,0,1-.283.169l-.3.175a12.036,12.036,0,0,0-1.122.75c-2.312,1.733-3.356,3.756-3.449,5.582a45.675,45.675,0,0,0-7.252,2.4c.424-.4.845-.787,1.241-1.2s.783-.827,1.149-1.247c2.18-2.54,3.311-4.985,2.968-7.17a20.293,20.293,0,0,0-5.744,2.565,15.285,15.285,0,0,0-4.138,3.91,9.583,9.583,0,0,0-1.564,3.375,6.15,6.15,0,0,0,.007,2.942,28.836,28.836,0,0,0-4.188,3.173,23.409,23.409,0,0,0-3.472,4.017,28.777,28.777,0,0,0-2.534,4.611,50.05,50.05,0,0,0-1.82,4.839l2.646.834a44.431,44.431,0,0,1,1.973-5.288,24.056,24.056,0,0,1,2.826-4.726,26.217,26.217,0,0,1,8.621-6.878,10.838,10.838,0,0,0,5.443,2.68,24.724,24.724,0,0,0,8.663.224,6.987,6.987,0,0,0-5.032-5.03,11.2,11.2,0,0,0-3.2-.485,43.383,43.383,0,0,1,7.035-1.867,8.193,8.193,0,0,0,1.723,2.327q.277.271.584.531c.1.086.206.171.313.255l.161.124c.057.041.129.078.194.117a12.214,12.214,0,0,0,1.8.838c.408.152.833.292,1.271.411a12.9,12.9,0,0,0,1.345.267,15.4,15.4,0,0,0,2.876.216,18.231,18.231,0,0,0,3.014-.257,19.829,19.829,0,0,0,3.022-.721c-.882-2-3.129-3.49-6.324-4.387a17.938,17.938,0,0,0-1.772-.417c-.6-.111-1.221-.238-1.841-.315l.962-.191.48-.1.476-.119,1.9-.477c.632-.165,1.253-.373,1.88-.557l.938-.285.923-.328a6.339,6.339,0,0,0,2.269,1.965,10.034,10.034,0,0,0,3.636,1.02,15.83,15.83,0,0,0,5.521-.544,18.263,18.263,0,0,0,2.837-1.009,19.675,19.675,0,0,0,2.728-1.45,6.251,6.251,0,0,0-2.874-1.952,9.811,9.811,0,0,0-.952-.282q-.506-.132-1.051-.223a14.558,14.558,0,0,0-2.33-.188c-.642-.018-1.295-.011-1.946.036-.326.023-.652.053-.979.092s-.664.063-1,.108a55.782,55.782,0,0,0,6.968-3.987,6.136,6.136,0,0,0,2.7,1.373,8.961,8.961,0,0,0,1.772.231c.319.011.651.008.994-.009s.684-.068,1.043-.125a14.676,14.676,0,0,0,2.6-.666,20.506,20.506,0,0,0,2.6-1.186,25.787,25.787,0,0,0,2.5-1.653,28.646,28.646,0,0,0,2.286-2.05A6.343,6.343,0,0,0,506.4,115.6a10.207,10.207,0,0,0-2.053,0,16.044,16.044,0,0,0-2.317.363q-.494.115-.985.261c-.327.1-.668.187-1,.3-.667.211-1.324.463-1.976.742a66.25,66.25,0,0,0,5.954-5.69,6.21,6.21,0,0,0,2.956.719,8.841,8.841,0,0,0,1.806-.177,12.126,12.126,0,0,0,1.96-.62c.4-.164.8-.346,1.2-.553a13.414,13.414,0,0,0,1.162-.7,15.63,15.63,0,0,0,2.245-1.751,18.523,18.523,0,0,0,2.036-2.174,20.3,20.3,0,0,0,1.746-2.509c-1.988-.913-4.648-.555-7.609.914a18.645,18.645,0,0,0-1.9,1.07,21.053,21.053,0,0,0-1.862,1.255l1.247-1.706,1.173-1.757c.4-.579.749-1.192,1.117-1.792l.546-.9c.186-.3.343-.615.515-.921a6.262,6.262,0,0,0,3.086.063,7.72,7.72,0,0,0,.858-.235,9.085,9.085,0,0,0,.866-.354,12.168,12.168,0,0,0,1.8-1.05A10.077,10.077,0,0,0,520,97.586q.5-.441.981-.938a13.868,13.868,0,0,0,.935-1.048q.437-.557.852-1.158t.8-1.24q.361-.648.691-1.328t.629-1.384c.19-.472.351-.956.51-1.442a6.185,6.185,0,0,0-3.44.343,10.568,10.568,0,0,0-1.865.891q-.469.282-.942.621c-.315.226-.622.474-.954.732a17.962,17.962,0,0,0-1.714,1.561c-.265.283-.549.564-.82.857s-.535.593-.792.9c.285-.665.594-1.321.859-2l.784-2.025c.256-.677.47-1.369.707-2.052.113-.344.237-.684.341-1.03l.3-1.042a6.275,6.275,0,0,0,3.066-.6,10.147,10.147,0,0,0,3.118-2.4,16.007,16.007,0,0,0,2.823-4.687c.18-.45.356-.91.508-1.382s.268-.954.384-1.442.219-.983.311-1.483.134-1.006.183-1.513a6.18,6.18,0,0,0-3.268,1.082,12.55,12.55,0,0,0-3.178,3.006,18.139,18.139,0,0,0-1.4,2.014c-.207.355-.431.714-.641,1.082s-.409.742-.6,1.123a62.834,62.834,0,0,0,1.185-8.842,6.238,6.238,0,0,0,2.9-1.23,7.789,7.789,0,0,0,1.342-1.281,12.159,12.159,0,0,0,1.219-1.752,9.647,9.647,0,0,0,.584-1.169q.263-.607.486-1.26t.408-1.338c.122-.458.2-.926.28-1.4s.14-.963.19-1.455a13.039,13.039,0,0,0,.086-1.492,27.229,27.229,0,0,0-.149-3.036,6.37,6.37,0,0,0-3.012,1.756,10.217,10.217,0,0,0-1.3,1.589c-.205.3-.386.62-.589.958s-.39.693-.573,1.066a21.624,21.624,0,0,0-.978,2.4,21.287,21.287,0,0,0-.758,2.571l-.067-2.3-.018-.574-.044-.573-.088-1.146-.088-1.146c-.024-.382-.088-.761-.13-1.141l-.288-2.279a6.077,6.077,0,0,0,2.591-1.809,8.917,8.917,0,0,0,1.071-1.555c.081-.148.162-.3.237-.459s.14-.318.206-.484q.2-.5.368-1.053.188-.616.327-1.273a10.48,10.48,0,0,0,.211-1.341,21.493,21.493,0,0,0,.08-2.836,24.478,24.478,0,0,0-.388-2.942,13.86,13.86,0,0,0-.361-1.475q-.211-.733-.463-1.46a6.26,6.26,0,0,0-2.534,2.375,9.275,9.275,0,0,0-.483.866c-.147.3-.29.627-.432.969a14.41,14.41,0,0,0-.693,2.232,27.408,27.408,0,0,0-.464,2.717q-.077.7-.1,1.4c-.031.474-.061.954-.068,1.434a61.562,61.562,0,0,0-2.76-9.058c1.747-1.041,3.013-3.117,3.267-6.267A18.424,18.424,0,0,0,516.26,27.6a6.218,6.218,0,0,0-1.926,2.881,12.19,12.19,0,0,0-.49,2,14.243,14.243,0,0,0-.161,2.325,20.461,20.461,0,0,0,.17,2.917c.073.485.135.985.215,1.484s.181.994.3,1.489a60.4,60.4,0,0,0-4.844-8.485,6.124,6.124,0,0,0,1.663-2.793,10.064,10.064,0,0,0,.165-4.114,18.484,18.484,0,0,0-5.583-9.946,6.2,6.2,0,0,0-1.2,3.25,12.8,12.8,0,0,0,.369,4.367,18.792,18.792,0,0,0,.9,2.964,23.811,23.811,0,0,0,1.273,2.939,61.666,61.666,0,0,0-6.869-7.4,6.062,6.062,0,0,0,1.005-3.123,9.967,9.967,0,0,0-.807-4.095" fill="#2bb7d9"/></g><g style="isolation:isolate"><g style="isolation:isolate"><path d="M437.472,39.089c0,1.008-.237,1.485-.882,1.765a8.479,8.479,0,0,1-3.1.322,7.2,7.2,0,0,0-.7-1.751c.981.056,2.158.042,2.465.042.336,0,.449-.112.449-.406V37.03h-6a7.528,7.528,0,0,1-2.367,4.188,6.616,6.616,0,0,0-1.289-1.2c2.115-1.806,2.312-4.482,2.312-6.611V28.794h9.1Zm-1.764-3.669V33.711H430.09c-.013.532-.042,1.12-.1,1.709Zm-5.618-5v1.709h5.618V30.419Z" fill="#121212"/><path d="M453.335,38.922h-5.5v2.283h-1.709V38.922h-5.407V37.381h5.407v-.912h-4.174v-5.9h1.177a14.423,14.423,0,0,0-1.164-1.724l1.429-.658a11.784,11.784,0,0,1,1.415,1.961l-.868.421h2.479a9.47,9.47,0,0,0-1.05-1.934l1.5-.56a10.685,10.685,0,0,1,1.233,2.088l-1.009.406h2.144a12.917,12.917,0,0,0,1.316-2.438l1.864.533c-.421.671-.883,1.344-1.3,1.905h1.106v5.9h-4.384v.912h5.5Zm-7.213-6.991h-2.564v.939h2.564Zm0,3.166v-.953h-2.564V35.1Zm4.37-3.166h-2.661v.939h2.661Zm0,2.213h-2.661V35.1h2.661Z" fill="#121212"/><path d="M459.029,28.639a24.431,24.431,0,0,1-1.261,2.76v9.806H456.2V33.892a11.039,11.039,0,0,1-.855,1.037,12.678,12.678,0,0,0-.854-1.681,14.556,14.556,0,0,0,3.04-5.084Zm6.148,2.354v1.751h2.368v8.082h-1.6v-.714H460.4v.8H458.86V32.744h2.256V30.993h-2.4V29.508h8.895v1.485Zm-4.776,7.69h.869v-4.5H460.4Zm2.269-4.5v4.5h.939v-4.5Zm.939-3.193h-.925v1.751h.925Zm2.339,3.193h-.939v4.5h.939Z" fill="#121212"/></g></g><g style="isolation:isolate"><g style="isolation:isolate"><path d="M405.472,101.267c-1.849.826-3.922,1.709-5.5,2.367l-.56-1.779c.532-.182,1.163-.406,1.863-.685l-.28-8.181,1.736-.07.253,7.578c.7-.294,1.414-.588,2.115-.868Zm5.8,3.937a24.628,24.628,0,0,0-2.619-3.376,10,10,0,0,1-4.259,3.4,9.787,9.787,0,0,0-1.33-1.471c4.44-1.68,5.883-5.07,6.4-10.828l1.835.169a21.658,21.658,0,0,1-1.709,7.115,30.749,30.749,0,0,1,3.11,3.6Zm-5.253-7.187a14.247,14.247,0,0,0-2.087-3.473l1.513-.757a14.269,14.269,0,0,1,2.213,3.362Z" fill="#121212"/><path d="M426.377,102.85v1.681H413.645V102.85h5.015V92.3h1.793v4.006H425.4V98h-4.944v4.846Z" fill="#121212"/></g><g style="isolation:isolate"><path d="M432.637,103.088c.456-.061.792-.121,1.1-.193a3.215,3.215,0,0,0,2.7-3.178,2.939,2.939,0,0,0-2.483-3.142,25.968,25.968,0,0,1-.707,3.226c-.708,2.4-1.74,3.862-3.035,3.862s-2.423-1.451-2.423-3.454a5.3,5.3,0,0,1,5.469-5.085,4.532,4.532,0,0,1,4.8,4.641c0,2.494-1.535,4.27-4.534,4.726Zm-.923-3.6a19.049,19.049,0,0,0,.636-2.878,3.724,3.724,0,0,0-3.011,3.441c0,1.2.48,1.787.924,1.787C430.754,101.839,431.235,101.1,431.714,99.489Z" fill="#121212"/></g><g style="isolation:isolate"><path d="M444.8,101.771c-1.764.519-3.641,1.065-5.084,1.485l-.421-1.569c.561-.126,1.248-.307,2-.5V98.368h-1.554V96.84H441.3V94.4h-1.68V92.863h4.9V94.4h-1.61V96.84h1.457v1.528h-1.457v2.4c.546-.154,1.12-.308,1.667-.463Zm6.22,1.947c.252,0,.309-.223.336-1.625a4.288,4.288,0,0,0,1.387.617c-.14,1.919-.5,2.437-1.541,2.437h-1.05c-1.289,0-1.569-.476-1.569-1.891V100.51h-.855c-.252,2.284-.9,3.909-3.88,4.791a4.932,4.932,0,0,0-.925-1.373c2.536-.63,2.984-1.778,3.166-3.418h-1.022V92.667H451.9v7.843h-1.724v2.746c0,.407.029.462.267.462Zm-4.4-8.824h3.656v-.869h-3.656Zm0,2.129h3.656v-.868h-3.656Zm0,2.129h3.656v-.868h-3.656Z" fill="#121212"/><path d="M458.3,95.692a16.325,16.325,0,0,1-1.289,1.807V105.2H455.4v-5.94a13.657,13.657,0,0,1-1.232,1.078,10.153,10.153,0,0,0-.883-1.6,12.965,12.965,0,0,0,3.529-3.67Zm-.35-2.913a14.579,14.579,0,0,1-3.7,3.544,11.124,11.124,0,0,0-.828-1.4,10.435,10.435,0,0,0,2.956-2.774Zm7.761,5.812a9.246,9.246,0,0,1-2.41,3.965,10.382,10.382,0,0,0,3.4,1.218,6.9,6.9,0,0,0-1.065,1.485,10.11,10.11,0,0,1-3.67-1.611,12.949,12.949,0,0,1-3.515,1.611,6.377,6.377,0,0,0-.911-1.4,10.589,10.589,0,0,0,3.166-1.331,9.486,9.486,0,0,1-1.667-2.493l1.247-.379h-1.976v-1.5h5.968l.307-.07Zm-4.847-4.482a4.7,4.7,0,0,1-1.625,3.95,7.207,7.207,0,0,0-1.373-.938,3.407,3.407,0,0,0,1.415-3.054V92.625h5.07v3.039c0,.253,0,.379.042.434a.275.275,0,0,0,.2.057h.294a.468.468,0,0,0,.211-.043c.056-.027.112-.111.14-.308s.042-.644.056-1.163a4.577,4.577,0,0,0,1.247.659,6.14,6.14,0,0,1-.21,1.513,1.028,1.028,0,0,1-.532.6,2.051,2.051,0,0,1-.841.169h-.84a1.527,1.527,0,0,1-1.051-.365c-.266-.266-.392-.574-.392-1.5V94.082h-1.807Zm-.309,5.547a6.694,6.694,0,0,0,1.415,1.9,7.448,7.448,0,0,0,1.471-1.9Z" fill="#121212"/><path d="M472.309,95.818h-4.847V94.5h4.847Zm-.364,8.839H469.4v.547h-1.373v-4.778h3.922Zm-.042-6.9h-3.838V96.5H471.9Zm-3.838.7H471.9v1.261h-3.838Zm3.8-4.623h-3.712v-1.26h3.712Zm-2.465,7.915v1.6h1.162v-1.6Zm11.206,1.428h-.7v.575c0,.7-.141,1.036-.617,1.246a5.541,5.541,0,0,1-2.087.224,4.7,4.7,0,0,0-.378-1.289c.546.029,1.162.029,1.331.029s.237-.056.237-.225v-.56H474.4v2.045H473v-2.045h-.7v-1.317h.7V98.368h2.717v-.5h-3.389V96.6h1.82V96h-1.2V94.852h1.2v-.56h-1.456V93.115h1.456v-.981h1.485v.981h1.625v-.981h1.5v.981h1.57v1.177h-1.57v.56h1.276V96h-1.276v.6h1.822v1.261h-3.489v.5H479.9v3.487h.7ZM474.4,99.516v.658h1.317v-.658Zm0,2.339h1.317V101.2H474.4Zm1.233-7h1.625v-.56h-1.625Zm0,1.75h1.625V96h-1.625Zm1.456,2.914v.658h1.3v-.658Zm1.3,2.339V101.2h-1.3v.658Z" fill="#121212"/><path d="M483.522,99.335h3.1v4.509h-3.1v.87h-1.471V94.193h1.162a15.09,15.09,0,0,0,.393-2.059l1.849.155c-.224.658-.491,1.344-.743,1.9h1.765v4.23h-2.955Zm1.484-3.741h-1.484v1.429h1.484Zm-1.484,5.141v1.709h1.625v-1.709Zm7.914-6.443v1.246h2.648v6.051c0,.645-.1,1.051-.5,1.3a2.913,2.913,0,0,1-1.6.266,4.2,4.2,0,0,0-.42-1.429c.351.015.7.015.813.015s.167-.042.167-.183V97.037h-1.106V105.2h-1.555V97.037h-1.036v6.023h-1.513V95.538h2.549V94.292h-3.025V92.779h7.578v1.513Z" fill="#121212"/></g></g><g style="isolation:isolate"><g style="isolation:isolate"><path d="M436.266,60.544a7.276,7.276,0,0,1-1.139,4.039,8.189,8.189,0,0,1-3.136,2.814,9.09,9.09,0,0,1,3.609,3.019,7.744,7.744,0,0,1,1.332,4.522,8.2,8.2,0,0,1-2.836,6.585,13.523,13.523,0,0,1-15.447-.011,8.176,8.176,0,0,1-2.857-6.574,7.787,7.787,0,0,1,1.332-4.533,8.912,8.912,0,0,1,3.587-3.008,8.109,8.109,0,0,1-3.126-2.814,7.334,7.334,0,0,1-1.127-4.039,8.107,8.107,0,0,1,2.664-6.371,12.254,12.254,0,0,1,14.469-.021A8.074,8.074,0,0,1,436.266,60.544ZM430.7,74.487a4.511,4.511,0,0,0-1.182-3.266,4.729,4.729,0,0,0-6.338-.01,5.092,5.092,0,0,0-.021,6.5,4.848,4.848,0,0,0,6.391.043A4.487,4.487,0,0,0,430.7,74.487Zm-.645-13.643a4.3,4.3,0,0,0-.967-2.932,3.93,3.93,0,0,0-5.435-.032,4.27,4.27,0,0,0-.967,2.964,4.488,4.488,0,0,0,.967,3.008,3.824,3.824,0,0,0,5.446,0A4.525,4.525,0,0,0,430.057,60.844Z" fill="#2bb7d9"/><path d="M460.9,70.577q0,6.489-2.686,9.926t-7.863,3.437q-5.114,0-7.82-3.373T439.759,70.9V65.141q0-6.552,2.718-9.947t7.831-3.4q5.112,0,7.82,3.363t2.772,9.657Zm-6.209-6.33a11.45,11.45,0,0,0-1.064-5.667,3.593,3.593,0,0,0-3.319-1.775,3.528,3.528,0,0,0-3.233,1.689,10.7,10.7,0,0,0-1.107,5.279v7.612a12.021,12.021,0,0,0,1.042,5.689,3.547,3.547,0,0,0,3.341,1.86,3.488,3.488,0,0,0,3.287-1.785,11.738,11.738,0,0,0,1.053-5.462Z" fill="#2bb7d9"/></g><g style="isolation:isolate"><path d="M468.876,73.036c-.027.743-.055,1.513-.126,2.269h6.291s-.015.533-.042.742c-.211,4.3-.449,6-1,6.613a2.028,2.028,0,0,1-1.5.7,17.112,17.112,0,0,1-2.436.014,3.988,3.988,0,0,0-.589-1.639c.967.084,1.919.084,2.34.084a.9.9,0,0,0,.658-.182c.364-.35.588-1.723.742-4.72h-4.665a8.786,8.786,0,0,1-4.048,6.583,4.972,4.972,0,0,0-1.2-1.345c3.6-2.017,3.712-5.743,3.81-9.119h-3.264V71.4h12.313v1.639Z" fill="#121212"/><path d="M489.964,81.567c0,.91-.2,1.372-.784,1.639a6.471,6.471,0,0,1-2.647.308,6.8,6.8,0,0,0-.6-1.667c.8.056,1.709.042,1.989.042s.365-.1.365-.337V78.163h-8.461v5.351h-1.681V71.327h11.822ZM479.823,76.51h3.306V72.98h-3.306Zm8.461,0V72.98h-3.5v3.53Z" fill="#121212"/></g></g></g></g></svg>