<svg xmlns="http://www.w3.org/2000/svg" xmlns:xlink="http://www.w3.org/1999/xlink" width="248.871" height="111.472" viewBox="0 0 248.871 111.472">
  <defs>
    <clipPath id="clip-path">
      <rect width="248.871" height="51.862" fill="none"/>
    </clipPath>
    <clipPath id="clip-path-2">
      <rect id="長方形_187" data-name="長方形 187" width="40.871" height="51.862" fill="none"/>
    </clipPath>
    <clipPath id="clip-path-7">
      <rect width="194.871" height="51.862" fill="none"/>
    </clipPath>
  </defs>
  <g id="グループ_354" data-name="グループ 354" transform="translate(-626.129 -1318)">
    <g id="リピートグリッド_26" data-name="リピートグリッド 26" transform="translate(626.129 1377.61)" clip-path="url(#clip-path)">
      <g transform="translate(-605.51 -1389.857)">
        <g id="グループ_352" data-name="グループ 352" transform="translate(605.51 1389.857)" clip-path="url(#clip-path-2)">
          <path id="パス_1264" data-name="パス 1264" d="M24.715.369C-3.556-3.669-6.076,26.619,9.571,33.183,2,41.259,2,51.861,2,51.861H40.867s-3.534-12.624-8.076-19.182c10.1-5.8,10.1-28.272-8.076-32.31" transform="translate(-0.002 0.004)" fill="#fff"/>
        </g>
      </g>
      <g transform="translate(-554.51 -1389.857)">
        <g id="グループ_352-2" data-name="グループ 352" transform="translate(605.51 1389.857)" clip-path="url(#clip-path-2)">
          <path id="パス_1264-2" data-name="パス 1264" d="M24.715.369C-3.556-3.669-6.076,26.619,9.571,33.183,2,41.259,2,51.861,2,51.861H40.867s-3.534-12.624-8.076-19.182c10.1-5.8,10.1-28.272-8.076-32.31" transform="translate(-0.002 0.004)" fill="#fff"/>
        </g>
      </g>
      <g transform="translate(-503.51 -1389.857)">
        <g id="グループ_352-3" data-name="グループ 352" transform="translate(605.51 1389.857)" clip-path="url(#clip-path-2)">
          <path id="パス_1264-3" data-name="パス 1264" d="M24.715.369C-3.556-3.669-6.076,26.619,9.571,33.183,2,41.259,2,51.861,2,51.861H40.867s-3.534-12.624-8.076-19.182c10.1-5.8,10.1-28.272-8.076-32.31" transform="translate(-0.002 0.004)" fill="#fff"/>
        </g>
      </g>
      <g transform="translate(-452.51 -1389.857)">
        <g id="グループ_352-4" data-name="グループ 352" transform="translate(605.51 1389.857)" clip-path="url(#clip-path-2)">
          <path id="パス_1264-4" data-name="パス 1264" d="M24.715.369C-3.556-3.669-6.076,26.619,9.571,33.183,2,41.259,2,51.861,2,51.861H40.867s-3.534-12.624-8.076-19.182c10.1-5.8,10.1-28.272-8.076-32.31" transform="translate(-0.002 0.004)" fill="#fff"/>
        </g>
      </g>
      <g transform="translate(-401.51 -1389.857)">
        <g id="グループ_352-5" data-name="グループ 352" transform="translate(605.51 1389.857)" clip-path="url(#clip-path-2)">
          <path id="パス_1264-5" data-name="パス 1264" d="M24.715.369C-3.556-3.669-6.076,26.619,9.571,33.183,2,41.259,2,51.861,2,51.861H40.867s-3.534-12.624-8.076-19.182c10.1-5.8,10.1-28.272-8.076-32.31" transform="translate(-0.002 0.004)" fill="#fff"/>
        </g>
      </g>
    </g>
    <g id="リピートグリッド_27" data-name="リピートグリッド 27" transform="translate(653 1318)" clip-path="url(#clip-path-7)">
      <g transform="translate(-605.51 -1389.857)">
        <g id="グループ_352-6" data-name="グループ 352" transform="translate(605.51 1389.857)" clip-path="url(#clip-path-2)">
          <path id="パス_1264-6" data-name="パス 1264" d="M24.715.369C-3.556-3.669-6.076,26.619,9.571,33.183,2,41.259,2,51.861,2,51.861H40.867s-3.534-12.624-8.076-19.182c10.1-5.8,10.1-28.272-8.076-32.31" transform="translate(-0.002 0.004)" fill="#fff"/>
        </g>
      </g>
      <g transform="translate(-554.51 -1389.857)">
        <g id="グループ_352-7" data-name="グループ 352" transform="translate(605.51 1389.857)" clip-path="url(#clip-path-2)">
          <path id="パス_1264-7" data-name="パス 1264" d="M24.715.369C-3.556-3.669-6.076,26.619,9.571,33.183,2,41.259,2,51.861,2,51.861H40.867s-3.534-12.624-8.076-19.182c10.1-5.8,10.1-28.272-8.076-32.31" transform="translate(-0.002 0.004)" fill="#fff"/>
        </g>
      </g>
      <g transform="translate(-503.51 -1389.857)">
        <g id="グループ_352-8" data-name="グループ 352" transform="translate(605.51 1389.857)" clip-path="url(#clip-path-2)">
          <path id="パス_1264-8" data-name="パス 1264" d="M24.715.369C-3.556-3.669-6.076,26.619,9.571,33.183,2,41.259,2,51.861,2,51.861H40.867s-3.534-12.624-8.076-19.182c10.1-5.8,10.1-28.272-8.076-32.31" transform="translate(-0.002 0.004)" fill="#fff"/>
        </g>
      </g>
      <g transform="translate(-452.51 -1389.857)">
        <g id="グループ_352-9" data-name="グループ 352" transform="translate(605.51 1389.857)" clip-path="url(#clip-path-2)">
          <path id="パス_1264-9" data-name="パス 1264" d="M24.715.369C-3.556-3.669-6.076,26.619,9.571,33.183,2,41.259,2,51.861,2,51.861H40.867s-3.534-12.624-8.076-19.182c10.1-5.8,10.1-28.272-8.076-32.31" transform="translate(-0.002 0.004)" fill="#fff"/>
        </g>
      </g>
    </g>
  </g>
</svg>
