<svg id="グループ_68" data-name="グループ 68" xmlns="http://www.w3.org/2000/svg" xmlns:xlink="http://www.w3.org/1999/xlink" width="20.44" height="20.44" viewBox="0 0 20.44 20.44">
  <defs>
    <clipPath id="clip-path">
      <path id="パス_128" data-name="パス 128" d="M0,0H20.44V20.44H0Z" fill="#fff"/>
    </clipPath>
  </defs>
  <g id="マスクグループ_1" data-name="マスクグループ 1" clip-path="url(#clip-path)">
    <path id="パス_127" data-name="パス 127" d="M17.445,2.993a10.218,10.218,0,1,0,0,14.452,10.214,10.214,0,0,0,0-14.452M14.47,10.4c-.237.181-6.619,5.133-6.619,5.133a.241.241,0,0,1-.209-.265V14.028c1.9-1.475,4.591-3.566,4.737-3.682A.147.147,0,0,0,12.4,10.1c-.052-.047-4.756-3.686-4.756-3.686V5.175a.243.243,0,0,1,.209-.267l6.625,5.142a.2.2,0,0,1-.006.349" transform="translate(0 0)" fill="#fff"/>
  </g>
</svg>
