<svg id="グループ_201" data-name="グループ 201" xmlns="http://www.w3.org/2000/svg" xmlns:xlink="http://www.w3.org/1999/xlink" width="227.93" height="185.063" viewBox="0 0 227.93 185.063">
  <defs>
    <clipPath id="clip-path">
      <rect id="長方形_95" data-name="長方形 95" width="227.93" height="185.063" fill="none"/>
    </clipPath>
  </defs>
  <g id="グループ_200" data-name="グループ 200" clip-path="url(#clip-path)">
    <path id="パス_505" data-name="パス 505" d="M202.691,92.532A92.531,92.531,0,1,1,110.16,0a92.53,92.53,0,0,1,92.531,92.531" transform="translate(8.201 0)" fill="#2ab8d9"/>
    <path id="パス_506" data-name="パス 506" d="M32.06,91.515C23,97.059,25.037,110,27.624,115.356a88.962,88.962,0,0,1,4.62,12.937,52.362,52.362,0,0,0,18.112,1.663l2.957-5.36,2.588,5.36s7.543-1.056,12.642-3.486c3.251-21.094,4.73-32.923-3.4-36.618S32.06,91.515,32.06,91.515" transform="translate(11.83 41.199)" fill="#fff"/>
    <path id="パス_507" data-name="パス 507" d="M32.06,91.515C23,97.059,25.037,110,27.624,115.356a88.962,88.962,0,0,1,4.62,12.937,52.362,52.362,0,0,0,18.112,1.663l2.957-5.36,2.588,5.36s7.543-1.056,12.642-3.486c3.251-21.094,4.73-32.923-3.4-36.618S32.06,91.515,32.06,91.515Z" transform="translate(11.83 41.199)" fill="none" stroke="#131d34" stroke-linecap="round" stroke-linejoin="round" stroke-width="1.705"/>
    <path id="パス_508" data-name="パス 508" d="M5.526,88.653c7.14,26.777,29.638,41.181,54.957,35.329,29.333-6.781,41.1-27.078,32.679-57.816C84.032,32.849,60.929,23.658,36.881,30.043,5.323,38.419-1.614,61.875,5.526,88.653" transform="translate(1.378 13.096)" fill="#fff"/>
    <path id="パス_509" data-name="パス 509" d="M5.526,88.653c7.14,26.777,29.638,41.181,54.957,35.329,29.333-6.781,41.1-27.078,32.679-57.816C84.032,32.849,60.929,23.658,36.881,30.043,5.323,38.419-1.614,61.875,5.526,88.653Z" transform="translate(1.378 13.096)" fill="none" stroke="#131d34" stroke-miterlimit="10" stroke-width="2.157"/>
    <path id="パス_510" data-name="パス 510" d="M27.881,35.835C20.171,43.287,7.6,51.868,7.6,51.868" transform="translate(3.535 16.672)" fill="none" stroke="#fff" stroke-linecap="round" stroke-linejoin="round" stroke-width="0.539"/>
    <path id="パス_511" data-name="パス 511" d="M60.312,40.926C44.758,60.9,21.474,81.463,9.576,89.376,7.683,90.634,6.4,89.19,5.144,89.9c-9.3-36.291,9.419-57.992,40.57-61.6S88.911,51.474,92.5,64.323c-10.446-8.2-32.184-23.4-32.184-23.4" transform="translate(1.28 13.013)" fill="#131d34"/>
    <path id="パス_512" data-name="パス 512" d="M60.312,40.926C44.758,60.9,21.474,81.463,9.576,89.376,7.683,90.634,6.4,89.19,5.144,89.9c-9.3-36.291,9.419-57.992,40.57-61.6S88.911,51.474,92.5,64.323C82.051,56.12,60.312,40.926,60.312,40.926Z" transform="translate(1.28 13.013)" fill="none" stroke="#131d34" stroke-linecap="round" stroke-linejoin="round" stroke-width="2.248"/>
    <path id="パス_513" data-name="パス 513" d="M39.769,37.632C34.2,49.184,13.623,65.208,8.587,67.785" transform="translate(3.995 17.508)" fill="none" stroke="#fff" stroke-linecap="round" stroke-linejoin="round" stroke-width="0.539"/>
    <path id="パス_514" data-name="パス 514" d="M26.348,39.5A141.6,141.6,0,0,1,10.255,56.739" transform="translate(4.771 18.376)" fill="none" stroke="#fff" stroke-linecap="round" stroke-linejoin="round" stroke-width="0.539"/>
    <path id="パス_515" data-name="パス 515" d="M47.1,35.552A107.753,107.753,0,0,1,63.66,49.164" transform="translate(21.911 16.541)" fill="none" stroke="#fff" stroke-linecap="round" stroke-linejoin="round" stroke-width="0.539"/>
    <line id="線_80" data-name="線 80" x1="4.259" y2="1.051" transform="translate(36.867 88.663)" fill="#fff"/>
    <line id="線_81" data-name="線 81" x1="4.259" y2="1.051" transform="translate(36.867 88.663)" fill="none" stroke="#131d34" stroke-linecap="round" stroke-linejoin="round" stroke-width="1.642"/>
    <path id="パス_516" data-name="パス 516" d="M39.188,98.477s-1.294-4.8-.74-6.283a1.672,1.672,0,0,1,3.143.185,39.2,39.2,0,0,1,1.108,3.88l2.034-.369s4.62-4.8,7.023-5.729,3.511.554,2.217,2.034-5.358,5.174-5.358,5.174,2.957,1.849,1.848,4.62-8.132,3.328-8.132,3.328l-3.881-2.772Z" transform="translate(17.824 41.814)" fill="#fff"/>
    <path id="パス_517" data-name="パス 517" d="M39.188,98.477s-1.294-4.8-.74-6.283a1.672,1.672,0,0,1,3.143.185,39.2,39.2,0,0,1,1.108,3.88l2.034-.369s4.62-4.8,7.023-5.729,3.511.554,2.217,2.034-5.358,5.174-5.358,5.174,2.957,1.849,1.848,4.62-8.132,3.328-8.132,3.328l-3.881-2.772Z" transform="translate(17.824 41.814)" fill="none" stroke="#131d34" stroke-linecap="round" stroke-linejoin="round" stroke-width="1.29"/>
    <path id="パス_518" data-name="パス 518" d="M29.7,109.9s4.991,5.544,10.72,4.8S49.476,102.7,49.476,102.7l-7.948-4.806-4.8,5.731" transform="translate(13.818 45.543)" fill="#fff"/>
    <path id="パス_519" data-name="パス 519" d="M29.7,109.9s4.991,5.544,10.72,4.8S49.476,102.7,49.476,102.7l-7.948-4.806-4.8,5.731" transform="translate(13.818 45.543)" fill="none" stroke="#131d34" stroke-linecap="round" stroke-linejoin="round" stroke-width="1.705"/>
    <path id="パス_520" data-name="パス 520" d="M54.879,99.151l-5.545,8.317-9.8,3.326.925,6.654s10.164-.74,14.231-1.663,7.392-6.469,7.392-6.469" transform="translate(18.396 46.13)" fill="#fff"/>
    <path id="パス_521" data-name="パス 521" d="M54.879,99.151l-5.545,8.317-9.8,3.326.925,6.654s10.164-.74,14.231-1.663,7.392-6.469,7.392-6.469" transform="translate(18.396 46.13)" fill="none" stroke="#131d34" stroke-linecap="round" stroke-linejoin="round" stroke-width="1.705"/>
    <path id="パス_522" data-name="パス 522" d="M41.926,107.608c-5.729-1.663-7.577,2.032-7.023,4.066s4.8,3.881,7.763.738Z" transform="translate(16.195 49.87)" fill="#fff"/>
    <path id="パス_523" data-name="パス 523" d="M41.926,107.608c-5.729-1.663-7.577,2.032-7.023,4.066s4.8,3.881,7.763.738Z" transform="translate(16.195 49.87)" fill="none" stroke="#131d34" stroke-linecap="round" stroke-linejoin="round" stroke-width="1.705"/>
    <path id="パス_524" data-name="パス 524" d="M10.047,71.22c-6.793-3.226-11.867,4.4-7.526,9.328s9.722,5.593,13.2,4.785" transform="translate(0.423 32.776)" fill="#fff"/>
    <path id="パス_525" data-name="パス 525" d="M10.047,71.22c-6.793-3.226-11.867,4.4-7.526,9.328s9.722,5.593,13.2,4.785" transform="translate(0.423 32.776)" fill="none" stroke="#131d34" stroke-linecap="round" stroke-miterlimit="10" stroke-width="1.819"/>
    <path id="パス_526" data-name="パス 526" d="M28.78,65.366c-3.641,1.456-1.946,8.1,2.265,7.127s1.376-8.583-2.265-7.127" transform="translate(12.462 30.325)" fill="#131d34"/>
    <path id="パス_527" data-name="パス 527" d="M53.574,59.01c-3.641,1.456-1.946,8.1,2.265,7.127s1.376-8.583-2.265-7.127" transform="translate(23.998 27.368)" fill="#131d34"/>
    <path id="パス_528" data-name="パス 528" d="M57.11,73.967S34.932,78.958,33.269,79.7,35.857,94.3,47.5,92.079,57.11,73.967,57.11,73.967" transform="translate(15.317 34.413)" fill="#fff"/>
    <path id="パス_529" data-name="パス 529" d="M57.11,73.967S34.932,78.958,33.269,79.7,35.857,94.3,47.5,92.079,57.11,73.967,57.11,73.967Z" transform="translate(15.317 34.413)" fill="none" stroke="#131d34" stroke-linecap="round" stroke-linejoin="round" stroke-width="1.29"/>
    <path id="パス_530" data-name="パス 530" d="M54.069,58.894c.832,2.5.369,3.7-2.5,4.343,3.512-.738,3.442,1.1,4.17,2.539a3.329,3.329,0,0,1,2.207-4.295c-2.957.923-3.881-2.588-3.881-2.588" transform="translate(23.995 27.4)" fill="#fff"/>
    <path id="パス_531" data-name="パス 531" d="M29.158,65.264c.832,2.5.369,3.7-2.5,4.343,3.512-.738,3.442,1.106,4.17,2.539a3.329,3.329,0,0,1,2.207-4.295c-2.957.923-3.881-2.588-3.881-2.588" transform="translate(12.405 30.364)" fill="#fff"/>
    <path id="パス_532" data-name="パス 532" d="M115.2,66.219c-12.247-2.969-17.593-8.727-19.992-8.013s-3.7,15.8,6.219,24.342" transform="translate(43.503 27.052)" fill="#fff"/>
    <path id="パス_533" data-name="パス 533" d="M115.2,66.219c-12.247-2.969-17.593-8.727-19.992-8.013s-3.7,15.8,6.219,24.342" transform="translate(43.503 27.052)" fill="none" stroke="#131d34" stroke-linecap="round" stroke-linejoin="round" stroke-width="1.752"/>
    <path id="パス_534" data-name="パス 534" d="M157.194,50.544c-24.137-11.406-44.67.438-52.509,12.913a42.376,42.376,0,0,0-1.985,41.824c7.892,15.3,23.091,20.2,23.091,20.2s-.212,6.551,9.756,12.148c-4.356-3.767-11.048,1.64-9.005,5.394,3.344,6.147,13.214,3.065,13.214,3.065,6.5,4.746,17.133,2.213,17.035-1.751a7.137,7.137,0,0,0-3.146-5.773,68.161,68.161,0,0,0,23.135-28.15c7.8-18.323,4.553-48.468-19.585-59.872" transform="translate(45.646 21.371)" fill="#fff"/>
    <path id="パス_535" data-name="パス 535" d="M157.194,50.544c-24.137-11.406-44.67.438-52.509,12.913a42.376,42.376,0,0,0-1.985,41.824c7.892,15.3,23.091,20.2,23.091,20.2s-.212,6.551,9.756,12.148c-4.356-3.767-11.048,1.64-9.005,5.394,3.344,6.147,13.214,3.065,13.214,3.065,6.5,4.746,17.133,2.213,17.035-1.751a7.137,7.137,0,0,0-3.146-5.773,68.161,68.161,0,0,0,23.135-28.15C184.581,92.092,181.331,61.948,157.194,50.544Z" transform="translate(45.646 21.371)" fill="none" stroke="#131d34" stroke-linecap="round" stroke-linejoin="round" stroke-width="2.358"/>
    <path id="パス_536" data-name="パス 536" d="M117.336,64.366c.268,2.344,5.1,3.24,5.4-1.1-.853,4.11,4.4,5.427,5.537,3.275" transform="translate(54.591 29.432)" fill="#fff"/>
    <path id="パス_537" data-name="パス 537" d="M117.336,64.366c.268,2.344,5.1,3.24,5.4-1.1-.853,4.11,4.4,5.427,5.537,3.275" transform="translate(54.591 29.432)" fill="none" stroke="#131d34" stroke-linecap="round" stroke-linejoin="round" stroke-width="0.997"/>
    <path id="パス_538" data-name="パス 538" d="M122.885,61.475c6.862,1.216,2.171,4.378-.954,3.752s-5.177-4.935.954-3.752" transform="translate(55.33 28.506)" fill="#131d34"/>
    <path id="パス_539" data-name="パス 539" d="M118.744,65.447c.007,3.808,1.471,5.641,3.95,6.117s3.845-2.23,3.821-4.935" transform="translate(55.246 30.449)" fill="none" stroke="#131d34" stroke-linecap="round" stroke-linejoin="round" stroke-width="0.997"/>
    <path id="パス_540" data-name="パス 540" d="M113.5,57.974c-3.459-.569-4.391,4.762-1.08,5.429s4.538-4.86,1.08-5.429" transform="translate(51.35 26.953)" fill="#131d34"/>
    <path id="パス_541" data-name="パス 541" d="M134.171,61.084c-3.458-.569-4.391,4.762-1.08,5.429s4.539-4.86,1.08-5.429" transform="translate(60.965 28.4)" fill="#131d34"/>
    <path id="パス_542" data-name="パス 542" d="M122.754,35.452l-1.89,15.214,31.645,8.51,6.372-14.061Z" transform="translate(56.232 16.494)" fill="#2bb8d9"/>
    <path id="パス_543" data-name="パス 543" d="M122.754,35.452l-1.89,15.214,31.645,8.51,6.372-14.061Z" transform="translate(56.232 16.494)" fill="none" stroke="#131d34" stroke-linecap="round" stroke-linejoin="round" stroke-width="1.995"/>
    <path id="パス_544" data-name="パス 544" d="M116.472,33.774l23.56,18.28,30.682-2.419L146.933,31.445Z" transform="translate(54.189 14.63)" fill="#2bb8d9"/>
    <path id="パス_545" data-name="パス 545" d="M116.472,33.774l23.56,18.28,30.682-2.419L146.933,31.445Z" transform="translate(54.189 14.63)" fill="none" stroke="#131d34" stroke-linecap="round" stroke-linejoin="round" stroke-width="1.995"/>
    <path id="パス_546" data-name="パス 546" d="M132.764,39.8,139,41.958l-1.72-6.008Z" transform="translate(61.769 16.726)" fill="#fff"/>
    <path id="パス_547" data-name="パス 547" d="M149.9,79.744c-12.247-2.969-17.593-8.727-19.992-8.013s-3.7,15.8,6.219,24.342" transform="translate(59.648 33.344)" fill="#fff"/>
    <path id="パス_548" data-name="パス 548" d="M149.9,79.744c-12.247-2.969-17.593-8.727-19.992-8.013s-3.7,15.8,6.219,24.342" transform="translate(59.648 33.344)" fill="none" stroke="#131d34" stroke-linecap="round" stroke-linejoin="round" stroke-width="1.752"/>
  </g>
</svg>
