<svg id="グループ_184" data-name="グループ 184" xmlns="http://www.w3.org/2000/svg" xmlns:xlink="http://www.w3.org/1999/xlink" width="223" height="157.991" viewBox="0 0 223 157.991">
  <defs>
    <clipPath id="clip-path">
      <rect id="長方形_86" data-name="長方形 86" width="223" height="157.991" fill="none"/>
    </clipPath>
  </defs>
  <g id="グループ_183" data-name="グループ 183" transform="translate(0 0)" clip-path="url(#clip-path)">
    <path id="パス_373" data-name="パス 373" d="M155.694,78.476A77.847,77.847,0,1,1,77.847.63a77.846,77.846,0,0,1,77.846,77.846" transform="translate(0 0.191)" fill="#2ab8d9"/>
    <path id="パス_374" data-name="パス 374" d="M173.882,117.751H30.513V18.583a2.451,2.451,0,0,1,2.451-2.451H171.43a2.451,2.451,0,0,1,2.451,2.451Z" transform="translate(9.249 4.89)" fill="#2498b3"/>
    <path id="パス_375" data-name="パス 375" d="M173.882,117.751H30.513V18.583a2.451,2.451,0,0,1,2.451-2.451H171.43a2.451,2.451,0,0,1,2.451,2.451Z" transform="translate(9.249 4.89)" fill="none" stroke="#131d34" stroke-linecap="round" stroke-linejoin="round" stroke-width="1.912"/>
    <path id="パス_376" data-name="パス 376" d="M173.882,117.751H30.513V18.583a2.451,2.451,0,0,1,2.451-2.451H171.43a2.451,2.451,0,0,1,2.451,2.451Z" transform="translate(9.249 4.89)" fill="#fff"/>
    <path id="パス_377" data-name="パス 377" d="M173.882,117.751H30.513V18.583a2.451,2.451,0,0,1,2.451-2.451H171.43a2.451,2.451,0,0,1,2.451,2.451Z" transform="translate(9.249 4.89)" fill="none" stroke="#131d34" stroke-linecap="round" stroke-linejoin="round" stroke-width="2.268"/>
    <path id="パス_378" data-name="パス 378" d="M173.38,109.485H30.288v-90a2.451,2.451,0,0,1,2.451-2.451h138.19a2.451,2.451,0,0,1,2.451,2.451Z" transform="translate(9.181 5.163)" fill="#131d34"/>
    <path id="パス_379" data-name="パス 379" d="M180.4,94.113H37.034l-27.169,28.6a3.121,3.121,0,0,0,2.264,5.27H205.308a3.121,3.121,0,0,0,2.264-5.27Z" transform="translate(2.729 28.528)" fill="#2ab8d9"/>
    <path id="パス_380" data-name="パス 380" d="M180.4,94.113H37.034l-27.169,28.6a3.121,3.121,0,0,0,2.264,5.27H205.308a3.121,3.121,0,0,0,2.264-5.27Z" transform="translate(2.729 28.528)" fill="none" stroke="#131d34" stroke-linecap="round" stroke-linejoin="round" stroke-width="2.268"/>
    <rect id="長方形_80" data-name="長方形 80" width="26.688" height="4.223" transform="translate(58.656 41.198)" fill="#2ab8d9"/>
    <rect id="長方形_81" data-name="長方形 81" width="49.856" height="4.223" transform="translate(58.658 49.411)" fill="#2ab8d9"/>
    <rect id="長方形_82" data-name="長方形 82" width="49.856" height="4.223" transform="translate(58.658 82.844)" fill="#2ab8d9"/>
    <rect id="長方形_83" data-name="長方形 83" width="8.506" height="4.223" transform="translate(64.228 57.915)" fill="#2ab8d9"/>
    <rect id="長方形_84" data-name="長方形 84" width="23.755" height="4.223" transform="translate(64.23 74.631)" fill="#2ab8d9"/>
    <rect id="長方形_85" data-name="長方形 85" width="13.783" height="4.223" transform="translate(68.922 66.127)" fill="#2ab8d9"/>
    <path id="パス_381" data-name="パス 381" d="M76.07,102.729s14.3-9.238,18.037-9.458a4.073,4.073,0,0,1,3.739,6.379" transform="translate(23.059 28.27)" fill="none" stroke="#131d34" stroke-linecap="round" stroke-linejoin="round" stroke-width="2.885"/>
    <path id="パス_382" data-name="パス 382" d="M79.348,98.627c7.566-3.131,26.612-1.827,34.178,0s3.653,12.523-3.13,14.611-22.439,2.869-27.917-.261-10.7-11.219-3.131-14.35" transform="translate(22.905 29.323)" fill="#fff"/>
    <path id="パス_383" data-name="パス 383" d="M79.348,98.627c7.566-3.131,26.612-1.827,34.178,0s3.653,12.523-3.13,14.611-22.439,2.869-27.917-.261S71.783,101.758,79.348,98.627Z" transform="translate(22.905 29.323)" fill="none" stroke="#131d34" stroke-miterlimit="10" stroke-width="2.885"/>
    <path id="パス_384" data-name="パス 384" d="M151.447,98.627c-7.566-3.131-26.612-1.827-34.178,0s-3.653,12.523,3.13,14.611,22.439,2.869,27.917-.261,10.7-11.219,3.131-14.35" transform="translate(34.296 29.323)" fill="#fff"/>
    <path id="パス_385" data-name="パス 385" d="M151.447,98.627c-7.566-3.131-26.612-1.827-34.178,0s-3.653,12.523,3.13,14.611,22.439,2.869,27.917-.261S159.013,101.758,151.447,98.627Z" transform="translate(34.296 29.323)" fill="none" stroke="#131d34" stroke-miterlimit="10" stroke-width="2.885"/>
    <path id="パス_386" data-name="パス 386" d="M104.83,96.853a26.014,26.014,0,0,0,13.394.348l-2.783,7.479h-6.7s-.869-5.566-3.913-7.827" transform="translate(31.777 29.359)" fill="#131d34"/>
    <path id="パス_387" data-name="パス 387" d="M145.1,102.729s14.3-9.238,18.037-9.458a4.073,4.073,0,0,1,3.739,6.379" transform="translate(43.985 28.27)" fill="none" stroke="#131d34" stroke-linecap="round" stroke-linejoin="round" stroke-width="2.885"/>
    <path id="パス_388" data-name="パス 388" d="M156.2,26.194c-14.774,0-26.751,8.765-26.751,19.576,0,6.612,4.492,12.446,11.352,15.991a7.156,7.156,0,0,1-3.485,7.132s8.667.4,11.965-4.231a35.965,35.965,0,0,0,6.918.685c14.774,0,26.751-8.765,26.751-19.577S170.972,26.194,156.2,26.194" transform="translate(39.239 7.94)" fill="#2ab8d9"/>
    <path id="パス_389" data-name="パス 389" d="M156.2,26.194c-14.774,0-26.751,8.765-26.751,19.576,0,6.612,4.492,12.446,11.352,15.991a7.156,7.156,0,0,1-3.485,7.132s8.667.4,11.965-4.231a35.965,35.965,0,0,0,6.918.685c14.774,0,26.751-8.765,26.751-19.577S170.972,26.194,156.2,26.194Z" transform="translate(39.239 7.94)" fill="none" stroke="#131d34" stroke-linecap="round" stroke-linejoin="round" stroke-width="1.247"/>
    <path id="パス_390" data-name="パス 390" d="M169.169,20.2c0-10.812-11.976-19.576-26.751-19.576S115.669,9.388,115.669,20.2s11.976,19.576,26.749,19.576c.7,0,1.393-.038,2.082-.077,3.56,6.389,14.351,2.7,14.351,2.7a7.091,7.091,0,0,1-4.992-4.526c9.042-3.141,15.309-9.863,15.309-17.674" transform="translate(35.062 0.189)" fill="#fff"/>
    <path id="パス_391" data-name="パス 391" d="M169.169,20.2c0-10.812-11.976-19.576-26.751-19.576S115.669,9.388,115.669,20.2s11.976,19.576,26.749,19.576c.7,0,1.393-.038,2.082-.077,3.56,6.389,14.351,2.7,14.351,2.7a7.091,7.091,0,0,1-4.992-4.526C162.9,34.733,169.169,28.01,169.169,20.2Z" transform="translate(35.062 0.189)" fill="none" stroke="#131d34" stroke-linecap="round" stroke-linejoin="round" stroke-width="1.247"/>
    <path id="パス_392" data-name="パス 392" d="M145.21,39.782c0-10.812-11.977-19.576-26.751-19.576S91.71,28.97,91.71,39.782s11.976,19.576,26.749,19.576a36.434,36.434,0,0,0,5.2-.375c3.9,5.508,13.937,2.1,13.937,2.1a7.1,7.1,0,0,1-5.042-4.682c7.588-3.455,12.657-9.595,12.657-16.617" transform="translate(27.8 6.125)" fill="#fff"/>
    <path id="パス_393" data-name="パス 393" d="M145.21,39.782c0-10.812-11.977-19.576-26.751-19.576S91.71,28.97,91.71,39.782s11.976,19.576,26.749,19.576a36.434,36.434,0,0,0,5.2-.375c3.9,5.508,13.937,2.1,13.937,2.1a7.1,7.1,0,0,1-5.042-4.682C140.141,52.944,145.21,46.8,145.21,39.782Z" transform="translate(27.8 6.125)" fill="none" stroke="#131d34" stroke-linecap="round" stroke-linejoin="round" stroke-width="1.247"/>
  </g>
</svg>
