<svg xmlns="http://www.w3.org/2000/svg" xmlns:xlink="http://www.w3.org/1999/xlink" width="243.46" height="182.822" viewBox="0 0 243.46 182.822">
  <defs>
    <clipPath id="clip-path">
      <rect id="長方形_63" data-name="長方形 63" width="243.46" height="182.822" fill="none"/>
    </clipPath>
    <clipPath id="clip-path-2">
      <path id="パス_308" data-name="パス 308" d="M5.791,114.279l24.18-.531L27.362,99.177l-23.54-.022Z" transform="translate(-3.822 -99.155)" fill="none"/>
    </clipPath>
  </defs>
  <g id="グループ_162" data-name="グループ 162" transform="translate(-431 -2003)">
    <g id="グループ_3" data-name="グループ 3" transform="translate(9 -1486)">
      <g id="グループ_182" data-name="グループ 182" transform="translate(422 3489)">
        <g id="グループ_173" data-name="グループ 173">
          <g id="グループ_172" data-name="グループ 172" clip-path="url(#clip-path)">
            <path id="パス_305" data-name="パス 305" d="M202.666,88.759A86.091,86.091,0,1,1,116.575,2.668,86.09,86.09,0,0,1,202.666,88.759Z" transform="translate(11.074 0.969)" fill="none" stroke="#fff" stroke-linecap="round" stroke-linejoin="round" stroke-width="5.335"/>
            <path id="パス_306" data-name="パス 306" d="M98.475,104.8A46.584,46.584,0,1,1,51.891,58.212,46.585,46.585,0,0,1,98.475,104.8Z" transform="translate(1.928 21.147)" fill="none" stroke="#fff" stroke-linecap="round" stroke-linejoin="round" stroke-width="5.335"/>
          </g>
        </g>
        <g id="グループ_175" data-name="グループ 175" transform="translate(3.661 149.345)">
          <g id="グループ_174" data-name="グループ 174" clip-path="url(#clip-path-2)">
            <path id="パス_307" data-name="パス 307" d="M5.353,113.144l25.424-.884L29.114,97.628l-26.447.747Z" transform="translate(-3.773 -99.091)" fill="none" stroke="#fff" stroke-linecap="round" stroke-linejoin="round" stroke-width="5.335"/>
            <line id="線_49" data-name="線 49" y1="0.28" x2="14.564" transform="translate(4.561 1.888)" fill="none" stroke="#fff" stroke-linecap="round" stroke-linejoin="round" stroke-width="5.335"/>
            <line id="線_50" data-name="線 50" y1="0.342" x2="13.675" transform="translate(5.611 3.363)" fill="none" stroke="#fff" stroke-linecap="round" stroke-linejoin="round" stroke-width="5.335"/>
            <line id="線_51" data-name="線 51" y1="0.309" x2="12.797" transform="translate(6.651 4.837)" fill="none" stroke="#fff" stroke-linecap="round" stroke-linejoin="round" stroke-width="5.335"/>
            <line id="線_52" data-name="線 52" y1="0.203" x2="11.561" transform="translate(8.048 6.313)" fill="none" stroke="#fff" stroke-linecap="round" stroke-linejoin="round" stroke-width="5.335"/>
            <line id="線_53" data-name="線 53" y1="0.238" x2="13.303" transform="translate(6.467 7.787)" fill="none" stroke="#fff" stroke-linecap="round" stroke-linejoin="round" stroke-width="5.335"/>
            <line id="線_54" data-name="線 54" y1="0.242" x2="11.831" transform="translate(8.101 9.263)" fill="none" stroke="#fff" stroke-linecap="round" stroke-linejoin="round" stroke-width="5.335"/>
            <line id="線_55" data-name="線 55" y1="0.28" x2="14.564" transform="translate(5.53 10.738)" fill="none" stroke="#fff" stroke-linecap="round" stroke-linejoin="round" stroke-width="5.335"/>
          </g>
        </g>
        <g id="グループ_177" data-name="グループ 177">
          <g id="グループ_176" data-name="グループ 176" clip-path="url(#clip-path)">
            <path id="パス_309" data-name="パス 309" d="M21.855,120.027l32-1.7-13.877-3.964-33.841.849Z" transform="translate(2.23 41.545)" fill="none" stroke="#fff" stroke-linecap="round" stroke-linejoin="round" stroke-width="5.335"/>
            <path id="パス_310" data-name="パス 310" d="M75.412,110.169a26.878,26.878,0,0,0,4.955-16.7c-.278-21.057-12.511-29.7-27.694-29.224-19.924.628-29.918,12.194-27.14,30.615,1.085,7.189-4.248,6.726-.92,14.868s11.892,13.31,26.3,12.248a36.209,36.209,0,0,0,16.149-4.751A26.472,26.472,0,0,0,75.412,110.169Z" transform="translate(8.539 23.331)" fill="none" stroke="#fff" stroke-linecap="round" stroke-linejoin="round" stroke-width="5.335"/>
            <path id="パス_311" data-name="パス 311" d="M47.1,64.445s-18.407,1.416-21.947,18.69c5.239-1.275,11.327-7.5,11.327-7.5s-3.539,6.23-5.8,7.787A10.488,10.488,0,0,0,41.15,78.462s3.115,8.071,9.627,13.31l5.381,14.584,17.309,5.31a7.523,7.523,0,0,0,2.973-2.762c2.743-4.525,5.794-14.385,1.239-28.742C71.166,59.631,47.1,64.445,47.1,64.445Z" transform="translate(9.136 23.233)" fill="none" stroke="#fff" stroke-linecap="round" stroke-linejoin="round" stroke-width="5.335"/>
            <path id="パス_312" data-name="パス 312" d="M42.806,85.435c2.124-4.106,6.938-2.69,6.654,1.133s-2.973,6.514-5.663,6.514" transform="translate(15.55 30.135)" fill="none" stroke="#fff" stroke-linecap="round" stroke-linejoin="round" stroke-width="5.335"/>
            <path id="パス_313" data-name="パス 313" d="M32.313,85.312c-7.6.389-9.618,3.686-8.721,5.142s2.305,3.782,6.147,3.666,6.21-1.57,6.88-3.1S38.3,85.007,32.313,85.312Z" transform="translate(8.498 30.986)" fill="none" stroke="#fff" stroke-linecap="round" stroke-linejoin="round" stroke-width="5.335"/>
            <path id="パス_314" data-name="パス 314" d="M41.064,108.086c-4.248,8.071-4.767,26.283-4.767,26.283s5.851.915,14.935-1.032a38.263,38.263,0,0,0,14.388-6.071s.082-10.118-6.432-22.861Z" transform="translate(13.186 37.927)" fill="none" stroke="#fff" stroke-linecap="round" stroke-linejoin="round" stroke-width="5.335"/>
            <path id="パス_315" data-name="パス 315" d="M29.615,101.184c2.408,1.982,6.938.849,6.23-3.115" transform="translate(10.758 35.626)" fill="none" stroke="#fff" stroke-linecap="round" stroke-linejoin="round" stroke-width="5.335"/>
            <path id="パス_316" data-name="パス 316" d="M44.929,110.363a33.459,33.459,0,0,0-7.445,6.109l-8.95.672-1.042,5.347A63.786,63.786,0,0,0,38.065,124C43.018,124.18,51,118.8,51,118.8Z" transform="translate(9.987 40.092)" fill="none" stroke="#fff" stroke-linecap="round" stroke-linejoin="round" stroke-width="5.335"/>
            <path id="パス_317" data-name="パス 317" d="M31.129,117.2s-2.871-2.936-6.142-2.628-3.926,2.836-2.552,4.018,7.591,1.688,7.591,1.688Z" transform="translate(7.904 41.613)" fill="none" stroke="#fff" stroke-linecap="round" stroke-linejoin="round" stroke-width="5.335"/>
            <path id="パス_318" data-name="パス 318" d="M28.066,87.427c-1.487.284-.778,4.177.92,3.752S29.553,87.144,28.066,87.427Z" transform="translate(9.901 31.754)" fill="none" stroke="#fff" stroke-linecap="round" stroke-linejoin="round" stroke-width="5.335"/>
            <line id="線_56" data-name="線 56" x1="10.124" y2="2.195" transform="translate(45.684 116.208)" fill="none" stroke="#fff" stroke-linecap="round" stroke-linejoin="round" stroke-width="5.335"/>
            <path id="パス_319" data-name="パス 319" d="M65.629,65.92a51.32,51.32,0,0,0-.15-5.348l-19.785-3.9C47.029,67.083,53.35,72.965,58.952,74.98,63.412,85.826,71.3,94,74.623,95.27c4.721,1.8,8.319-19.335,8.319-19.335Z" transform="translate(16.599 20.588)" fill="none" stroke="#fff" stroke-linecap="round" stroke-linejoin="round" stroke-width="5.335"/>
            <path id="パス_320" data-name="パス 320" d="M65.629,65.92a51.32,51.32,0,0,0-.15-5.348l-19.785-3.9C47.029,67.083,53.35,72.965,58.952,74.98,63.412,85.826,71.3,94,74.623,95.27c4.721,1.8,8.319-19.335,8.319-19.335Z" transform="translate(16.599 20.588)" fill="none" stroke="#fff" stroke-linecap="round" stroke-linejoin="round" stroke-width="5.335"/>
            <path id="パス_321" data-name="パス 321" d="M65.629,65.92a51.32,51.32,0,0,0-.15-5.348l-19.785-3.9C47.029,67.083,53.35,72.965,58.952,74.98,63.412,85.826,71.3,94,74.623,95.27c4.721,1.8,8.319-19.335,8.319-19.335Z" transform="translate(16.599 20.588)" fill="none" stroke="#fff" stroke-linecap="round" stroke-linejoin="round" stroke-width="5.335"/>
            <rect id="長方形_64" data-name="長方形 64" width="70.56" height="55.128" transform="translate(169.263 66.367)" fill="none" stroke="#fff" stroke-linecap="round" stroke-linejoin="round" stroke-width="5.335"/>
            <rect id="長方形_65" data-name="長方形 65" width="18.562" height="2.938" transform="translate(190.678 77.585)" fill="none" stroke="#fff" stroke-linecap="round" stroke-linejoin="round" stroke-width="5.335"/>
            <rect id="長方形_66" data-name="長方形 66" width="34.678" height="2.938" transform="translate(190.677 83.296)" fill="none" stroke="#fff" stroke-linecap="round" stroke-linejoin="round" stroke-width="5.335"/>
            <rect id="長方形_67" data-name="長方形 67" width="34.678" height="2.938" transform="translate(190.677 106.551)" fill="none" stroke="#fff" stroke-linecap="round" stroke-linejoin="round" stroke-width="5.335"/>
            <rect id="長方形_68" data-name="長方形 68" width="5.915" height="2.938" transform="translate(194.554 89.211)" fill="none" stroke="#fff" stroke-linecap="round" stroke-linejoin="round" stroke-width="5.335"/>
            <rect id="長方形_69" data-name="長方形 69" width="16.523" height="2.938" transform="translate(194.553 100.839)" fill="none" stroke="#fff" stroke-linecap="round" stroke-linejoin="round" stroke-width="5.335"/>
            <rect id="長方形_70" data-name="長方形 70" width="9.587" height="2.938" transform="translate(197.818 94.923)" fill="none" stroke="#fff" stroke-linecap="round" stroke-linejoin="round" stroke-width="5.335"/>
            <path id="パス_322" data-name="パス 322" d="M146.329,93.417l-7.87,6.375A110.991,110.991,0,0,0,122,90.042C113.95,86.4,88.308,77.359,77.29,96.291s-11.75,52.134-11.75,52.134h9.668L80.379,121c0,7,2.923,27.421,2.923,27.421h38l2.744-36.483s8.312,3.242,15.274,1.846,14.207-14.826,14.207-14.826Z" transform="translate(23.809 30.759)" fill="none" stroke="#fff" stroke-linecap="round" stroke-linejoin="round" stroke-width="5.335"/>
            <path id="パス_323" data-name="パス 323" d="M59.486,53.981c-6.741-6.741-13.879.4-10.31,8.725a19.746,19.746,0,0,0,11.1,10.707" transform="translate(17.518 18.637)" fill="none" stroke="#fff" stroke-linecap="round" stroke-linejoin="round" stroke-width="5.335"/>
            <path id="パス_324" data-name="パス 324" d="M125.687,53.563c6.741-6.741,13.878.4,10.309,8.725A19.741,19.741,0,0,1,124.894,73" transform="translate(45.371 18.486)" fill="none" stroke="#fff" stroke-linecap="round" stroke-linejoin="round" stroke-width="5.335"/>
            <path id="パス_325" data-name="パス 325" d="M55.058,67.868c.188,30.014,19.86,50.959,48.016,51.263s50.5-17.968,50.048-52.479c-.493-37.405-22.221-53-49.188-52.44C68.543,14.944,54.869,37.854,55.058,67.868Z" transform="translate(20 5.158)" fill="none" stroke="#fff" stroke-linecap="round" stroke-linejoin="round" stroke-width="5.335"/>
            <path id="パス_326" data-name="パス 326" d="M80.693,72.142c3.709-1.012,25.068-1.236,29-.337s-.563,13.715-14.053,13.826S76.984,73.153,80.693,72.142Z" transform="translate(28.89 25.88)" fill="none" stroke="#fff" stroke-linecap="round" stroke-linejoin="round" stroke-width="5.335"/>
            <path id="パス_327" data-name="パス 327" d="M76.319,53.811c-4.934-.189-4.365,8.921.189,8.921S81.253,54,76.319,53.811Z" transform="translate(26.465 19.547)" fill="none" stroke="#fff" stroke-linecap="round" stroke-linejoin="round" stroke-width="5.335"/>
            <path id="パス_328" data-name="パス 328" d="M108.614,53.811c-4.934-.189-4.365,8.921.189,8.921S113.548,54,108.614,53.811Z" transform="translate(38.196 19.547)" fill="none" stroke="#fff" stroke-linecap="round" stroke-linejoin="round" stroke-width="5.335"/>
            <path id="パス_329" data-name="パス 329" d="M123.229,30.943c-2.975,10.02-16.708,17.269-31.46,18.667,7.884-6.995,12.208-16.786,12.208-16.786C88.9,47.052,78.972,51.2,71.422,52.153c3.134-5.026,7.91-11.053,9.666-16.4C67.923,49.339,55.281,62.795,55.281,62.795S52.984,14,104.359,14.258c45.441.225,48.811,40.467,48.385,50.235C136.394,52.6,123.229,30.943,123.229,30.943Z" transform="translate(20.076 5.179)" fill="none" stroke="#fff" stroke-linecap="round" stroke-linejoin="round" stroke-width="5.335"/>
            <path id="パス_330" data-name="パス 330" d="M93.667,52.995c-7.825-3.238-23.477-2.159-27.794,0s-.27,12.143,3.779,14.032,16.73,1.618,20.778-.27S99.334,54.884,93.667,52.995Z" transform="translate(23.257 18.509)" fill="none" stroke="#fff" stroke-linecap="round" stroke-linejoin="round" stroke-width="5.335"/>
            <path id="パス_331" data-name="パス 331" d="M98.132,52.995c7.825-3.238,23.477-2.159,27.794,0s.27,12.143-3.779,14.032-16.73,1.618-20.778-.27S92.465,54.884,98.132,52.995Z" transform="translate(34.712 18.509)" fill="none" stroke="#fff" stroke-linecap="round" stroke-linejoin="round" stroke-width="5.335"/>
            <line id="線_57" data-name="線 57" y1="1.696" x2="5.257" transform="translate(143.934 63.606)" fill="none" stroke="#fff" stroke-linecap="round" stroke-linejoin="round" stroke-width="5.335"/>
            <line id="線_58" data-name="線 58" x2="10.255" transform="translate(119.622 74.472)" fill="none" stroke="#fff" stroke-linecap="round" stroke-linejoin="round" stroke-width="5.335"/>
            <path id="パス_332" data-name="パス 332" d="M127.029,91.157c2.977-3.719,5.375-7.015,7.4-5.892,2.093,1.163-.225,4.123-.225,4.123s9.266-4.178,10.644,2.015-14.692,6.977-14.692,6.977l-5.246-3.746Z" transform="translate(45.376 30.893)" fill="none" stroke="#fff" stroke-linecap="round" stroke-linejoin="round" stroke-width="5.335"/>
            <path id="パス_333" data-name="パス 333" d="M142.005,91.465c-2.795-1.85-6.4-.3-6.4-.3s-3.719-1.6-5.963.215" transform="translate(47.097 32.883)" fill="none" stroke="#fff" stroke-linecap="round" stroke-linejoin="round" stroke-width="5.335"/>
            <path id="パス_334" data-name="パス 334" d="M202.666,88.759A86.091,86.091,0,1,1,116.575,2.668a86.09,86.09,0,0,1,86.091,86.091" transform="translate(11.074 0.969)" fill="#2ab8d9"/>
            <path id="パス_335" data-name="パス 335" d="M98.475,104.8A46.584,46.584,0,1,1,51.891,58.212,46.585,46.585,0,0,1,98.475,104.8" transform="translate(1.928 21.147)" fill="#2bb8d9"/>
            <path id="パス_336" data-name="パス 336" d="M3.822,99.155l33.5.03,3.714,20.741-34.414.755Z" transform="translate(1.388 36.02)" fill="#fff"/>
          </g>
        </g>
        <g id="グループ_179" data-name="グループ 179" transform="translate(3.661 149.345)">
          <g id="グループ_178" data-name="グループ 178" clip-path="url(#clip-path-2)">
            <path id="パス_337" data-name="パス 337" d="M5.353,113.144l25.424-.884L29.114,97.628l-26.447.747Z" transform="translate(-3.773 -99.091)" fill="#131d34"/>
            <line id="線_59" data-name="線 59" y1="0.28" x2="14.564" transform="translate(4.561 1.888)" fill="none" stroke="#898e9a" stroke-linecap="round" stroke-linejoin="round" stroke-width="0.531"/>
            <line id="線_60" data-name="線 60" y1="0.342" x2="13.675" transform="translate(5.611 3.363)" fill="none" stroke="#898e9a" stroke-linecap="round" stroke-linejoin="round" stroke-width="0.531"/>
            <line id="線_61" data-name="線 61" y1="0.309" x2="12.797" transform="translate(6.651 4.837)" fill="none" stroke="#898e9a" stroke-linecap="round" stroke-linejoin="round" stroke-width="0.531"/>
            <line id="線_62" data-name="線 62" y1="0.203" x2="11.561" transform="translate(8.048 6.313)" fill="none" stroke="#898e9a" stroke-linecap="round" stroke-linejoin="round" stroke-width="0.531"/>
            <line id="線_63" data-name="線 63" y1="0.238" x2="13.303" transform="translate(6.467 7.787)" fill="none" stroke="#898e9a" stroke-linecap="round" stroke-linejoin="round" stroke-width="0.531"/>
            <line id="線_64" data-name="線 64" y1="0.242" x2="11.831" transform="translate(8.101 9.263)" fill="none" stroke="#898e9a" stroke-linecap="round" stroke-linejoin="round" stroke-width="0.531"/>
            <line id="線_65" data-name="線 65" y1="0.28" x2="14.564" transform="translate(5.53 10.738)" fill="none" stroke="#898e9a" stroke-linecap="round" stroke-linejoin="round" stroke-width="0.531"/>
          </g>
        </g>
        <g id="グループ_181" data-name="グループ 181">
          <g id="グループ_180" data-name="グループ 180" clip-path="url(#clip-path)">
            <path id="パス_339" data-name="パス 339" d="M3.822,99.155l33.5.03,3.714,20.741-34.414.755Z" transform="translate(1.388 36.02)" fill="none" stroke="#131d34" stroke-linecap="round" stroke-linejoin="round" stroke-width="0.564"/>
            <path id="パス_340" data-name="パス 340" d="M21.855,120.027l32-1.7-13.877-3.964-33.841.849Z" transform="translate(2.23 41.545)" fill="#fff"/>
            <path id="パス_341" data-name="パス 341" d="M21.855,120.027l32-1.7-13.877-3.964-33.841.849Z" transform="translate(2.23 41.545)" fill="none" stroke="#131d34" stroke-linecap="round" stroke-linejoin="round" stroke-width="0.564"/>
            <path id="パス_342" data-name="パス 342" d="M75.412,110.169a26.878,26.878,0,0,0,4.955-16.7c-.278-21.057-12.511-29.7-27.694-29.224-19.924.628-29.918,12.194-27.14,30.615,1.085,7.189-4.248,6.726-.92,14.868s11.892,13.31,26.3,12.248a36.209,36.209,0,0,0,16.149-4.751,26.472,26.472,0,0,0,8.349-7.055" transform="translate(8.539 23.331)" fill="#fff"/>
            <path id="パス_343" data-name="パス 343" d="M75.412,110.169a26.878,26.878,0,0,0,4.955-16.7c-.278-21.057-12.511-29.7-27.694-29.224-19.924.628-29.918,12.194-27.14,30.615,1.085,7.189-4.248,6.726-.92,14.868s11.892,13.31,26.3,12.248a36.209,36.209,0,0,0,16.149-4.751A26.472,26.472,0,0,0,75.412,110.169Z" transform="translate(8.539 23.331)" fill="none" stroke="#131d34" stroke-linecap="round" stroke-linejoin="round" stroke-width="1.414"/>
            <path id="パス_344" data-name="パス 344" d="M47.1,64.445s-18.407,1.416-21.947,18.69c5.239-1.275,11.327-7.5,11.327-7.5s-3.539,6.23-5.8,7.787A10.488,10.488,0,0,0,41.15,78.462s3.115,8.071,9.627,13.31l5.381,14.584,17.309,5.31a7.523,7.523,0,0,0,2.973-2.762c2.743-4.525,5.794-14.385,1.239-28.742C71.166,59.631,47.1,64.445,47.1,64.445" transform="translate(9.136 23.233)" fill="#131d34"/>
            <path id="パス_345" data-name="パス 345" d="M42.806,85.435c2.124-4.106,6.938-2.69,6.654,1.133s-2.973,6.514-5.663,6.514" transform="translate(15.55 30.135)" fill="#fff"/>
            <path id="パス_346" data-name="パス 346" d="M42.806,85.435c2.124-4.106,6.938-2.69,6.654,1.133s-2.973,6.514-5.663,6.514" transform="translate(15.55 30.135)" fill="none" stroke="#131d34" stroke-linecap="round" stroke-linejoin="round" stroke-width="1.193"/>
            <path id="パス_347" data-name="パス 347" d="M32.313,85.312c-7.6.389-9.618,3.686-8.721,5.142s2.305,3.782,6.147,3.666,6.21-1.57,6.88-3.1S38.3,85.007,32.313,85.312Z" transform="translate(8.498 30.986)" fill="none" stroke="#131d34" stroke-linecap="round" stroke-linejoin="round" stroke-width="1.062"/>
            <path id="パス_348" data-name="パス 348" d="M41.064,108.086c-4.248,8.071-4.767,26.283-4.767,26.283s5.851.915,14.935-1.032a38.263,38.263,0,0,0,14.388-6.071s.082-10.118-6.432-22.861Z" transform="translate(13.186 37.927)" fill="#131d34"/>
            <path id="パス_349" data-name="パス 349" d="M29.615,101.184c2.408,1.982,6.938.849,6.23-3.115" transform="translate(10.758 35.626)" fill="#fff"/>
            <path id="パス_350" data-name="パス 350" d="M29.615,101.184c2.408,1.982,6.938.849,6.23-3.115" transform="translate(10.758 35.626)" fill="none" stroke="#131d34" stroke-linecap="round" stroke-linejoin="round" stroke-width="0.924"/>
            <path id="パス_351" data-name="パス 351" d="M44.929,110.363a33.459,33.459,0,0,0-7.445,6.109l-8.95.672-1.042,5.347A63.786,63.786,0,0,0,38.065,124C43.018,124.18,51,118.8,51,118.8Z" transform="translate(9.987 40.092)" fill="#131d34"/>
            <path id="パス_352" data-name="パス 352" d="M31.129,117.2s-2.871-2.936-6.142-2.628-3.926,2.836-2.552,4.018,7.591,1.688,7.591,1.688Z" transform="translate(7.904 41.613)" fill="#fff"/>
            <path id="パス_353" data-name="パス 353" d="M31.129,117.2s-2.871-2.936-6.142-2.628-3.926,2.836-2.552,4.018,7.591,1.688,7.591,1.688Z" transform="translate(7.904 41.613)" fill="none" stroke="#131d34" stroke-miterlimit="10" stroke-width="1.414"/>
            <path id="パス_354" data-name="パス 354" d="M28.066,87.427c-1.487.284-.778,4.177.92,3.752s.567-4.035-.92-3.752" transform="translate(9.901 31.754)" fill="#131d34"/>
            <line id="線_66" data-name="線 66" x1="10.124" y2="2.195" transform="translate(45.684 116.208)" fill="none" stroke="#131d34" stroke-linecap="round" stroke-linejoin="round" stroke-width="1.062"/>
            <path id="パス_355" data-name="パス 355" d="M65.629,65.92a51.32,51.32,0,0,0-.15-5.348l-19.785-3.9C47.029,67.083,53.35,72.965,58.952,74.98,63.412,85.826,71.3,94,74.623,95.27c4.721,1.8,8.319-19.335,8.319-19.335Z" transform="translate(16.599 20.588)" fill="#2ab8d9"/>
            <rect id="長方形_72" data-name="長方形 72" width="70.56" height="55.128" transform="translate(169.263 66.367)" fill="#131d34"/>
            <rect id="長方形_73" data-name="長方形 73" width="18.562" height="2.938" transform="translate(190.678 77.585)" fill="#2ab8d9"/>
            <rect id="長方形_74" data-name="長方形 74" width="34.678" height="2.938" transform="translate(190.677 83.296)" fill="#2ab8d9"/>
            <rect id="長方形_75" data-name="長方形 75" width="34.678" height="2.938" transform="translate(190.677 106.551)" fill="#2ab8d9"/>
            <rect id="長方形_76" data-name="長方形 76" width="5.915" height="2.938" transform="translate(194.554 89.211)" fill="#2ab8d9"/>
            <rect id="長方形_77" data-name="長方形 77" width="16.523" height="2.938" transform="translate(194.553 100.839)" fill="#2ab8d9"/>
            <rect id="長方形_78" data-name="長方形 78" width="9.587" height="2.938" transform="translate(197.818 94.923)" fill="#2ab8d9"/>
            <path id="パス_356" data-name="パス 356" d="M146.329,93.417l-7.87,6.375A110.991,110.991,0,0,0,122,90.042C113.95,86.4,88.308,77.359,77.29,96.291s-11.75,52.134-11.75,52.134h9.668L80.379,121c0,7,2.923,27.421,2.923,27.421h38l2.744-36.483s8.312,3.242,15.274,1.846,14.207-14.826,14.207-14.826Z" transform="translate(23.809 30.759)" fill="#131d34"/>
            <path id="パス_357" data-name="パス 357" d="M59.486,53.981c-6.741-6.741-13.879.4-10.31,8.725a19.746,19.746,0,0,0,11.1,10.707" transform="translate(17.518 18.637)" fill="#fff"/>
            <path id="パス_358" data-name="パス 358" d="M59.486,53.981c-6.741-6.741-13.879.4-10.31,8.725a19.746,19.746,0,0,0,11.1,10.707" transform="translate(17.518 18.637)" fill="none" stroke="#131d34" stroke-miterlimit="10" stroke-width="2.109"/>
            <path id="パス_359" data-name="パス 359" d="M125.687,53.563c6.741-6.741,13.878.4,10.309,8.725A19.741,19.741,0,0,1,124.894,73" transform="translate(45.371 18.486)" fill="#fff"/>
            <path id="パス_360" data-name="パス 360" d="M125.687,53.563c6.741-6.741,13.878.4,10.309,8.725A19.741,19.741,0,0,1,124.894,73" transform="translate(45.371 18.486)" fill="none" stroke="#131d34" stroke-miterlimit="10" stroke-width="2.109"/>
            <path id="パス_361" data-name="パス 361" d="M55.058,67.868c.188,30.014,19.86,50.959,48.016,51.263s50.5-17.968,50.048-52.479c-.493-37.405-22.221-53-49.188-52.44-35.391.732-49.064,23.642-48.876,53.656" transform="translate(20 5.158)" fill="#fff"/>
            <path id="パス_362" data-name="パス 362" d="M55.058,67.868c.188,30.014,19.86,50.959,48.016,51.263s50.5-17.968,50.048-52.479c-.493-37.405-22.221-53-49.188-52.44C68.543,14.944,54.869,37.854,55.058,67.868Z" transform="translate(20 5.158)" fill="none" stroke="#131d34" stroke-miterlimit="10" stroke-width="2.109"/>
            <path id="パス_363" data-name="パス 363" d="M80.693,72.142c3.709-1.012,25.068-1.236,29-.337s-.563,13.715-14.053,13.826-18.66-12.478-14.951-13.49" transform="translate(28.89 25.88)" fill="#fff"/>
            <path id="パス_364" data-name="パス 364" d="M80.693,72.142c3.709-1.012,25.068-1.236,29-.337s-.563,13.715-14.053,13.826S76.984,73.153,80.693,72.142Z" transform="translate(28.89 25.88)" fill="none" stroke="#131d34" stroke-linecap="round" stroke-linejoin="round" stroke-width="1.406"/>
            <path id="パス_365" data-name="パス 365" d="M76.319,53.811c-4.934-.189-4.365,8.921.189,8.921s4.744-8.73-.189-8.921" transform="translate(26.465 19.547)" fill="#131d34"/>
            <path id="パス_366" data-name="パス 366" d="M108.614,53.811c-4.934-.189-4.365,8.921.189,8.921s4.744-8.73-.189-8.921" transform="translate(38.196 19.547)" fill="#131d34"/>
            <path id="パス_367" data-name="パス 367" d="M123.229,30.943c-2.975,10.02-16.708,17.269-31.46,18.667,7.884-6.995,12.208-16.786,12.208-16.786C88.9,47.052,78.972,51.2,71.422,52.153c3.134-5.026,7.91-11.053,9.666-16.4C67.923,49.339,55.281,62.795,55.281,62.795S52.984,14,104.359,14.258c45.441.225,48.811,40.467,48.385,50.235-16.35-11.892-29.515-33.55-29.515-33.55" transform="translate(20.076 5.179)" fill="#131d34"/>
            <path id="パス_368" data-name="パス 368" d="M93.667,52.995c-7.825-3.238-23.477-2.159-27.794,0s-.27,12.143,3.779,14.032,16.73,1.618,20.778-.27S99.334,54.884,93.667,52.995Z" transform="translate(23.257 18.509)" fill="none" stroke="#131d34" stroke-linecap="round" stroke-linejoin="round" stroke-width="1.35"/>
            <path id="パス_369" data-name="パス 369" d="M98.132,52.995c7.825-3.238,23.477-2.159,27.794,0s.27,12.143-3.779,14.032-16.73,1.618-20.778-.27S92.465,54.884,98.132,52.995Z" transform="translate(34.712 18.509)" fill="none" stroke="#131d34" stroke-linecap="round" stroke-linejoin="round" stroke-width="1.35"/>
            <line id="線_67" data-name="線 67" y1="1.696" x2="5.257" transform="translate(143.934 63.606)" fill="#fff"/>
            <line id="線_68" data-name="線 68" y1="1.696" x2="5.257" transform="translate(143.934 63.606)" fill="none" stroke="#131d34" stroke-linecap="round" stroke-linejoin="round" stroke-width="1.884"/>
            <line id="線_69" data-name="線 69" x2="10.255" transform="translate(119.622 74.472)" fill="none" stroke="#131d34" stroke-linecap="round" stroke-linejoin="round" stroke-width="1.35"/>
            <path id="パス_370" data-name="パス 370" d="M127.029,91.157c2.977-3.719,5.375-7.015,7.4-5.892,2.093,1.163-.225,4.123-.225,4.123s9.266-4.178,10.644,2.015-14.692,6.977-14.692,6.977l-5.246-3.746Z" transform="translate(45.376 30.893)" fill="#fff"/>
            <path id="パス_371" data-name="パス 371" d="M127.029,91.157c2.977-3.719,5.375-7.015,7.4-5.892,2.093,1.163-.225,4.123-.225,4.123s9.266-4.178,10.644,2.015-14.692,6.977-14.692,6.977l-5.246-3.746Z" transform="translate(45.376 30.893)" fill="none" stroke="#131d34" stroke-linecap="round" stroke-linejoin="round" stroke-width="1.59"/>
            <path id="パス_372" data-name="パス 372" d="M142.005,91.465c-2.795-1.85-6.4-.3-6.4-.3s-3.719-1.6-5.963.215" transform="translate(47.097 32.883)" fill="none" stroke="#131d34" stroke-linecap="round" stroke-linejoin="round" stroke-width="0.703"/>
          </g>
        </g>
      </g>
    </g>
  </g>
</svg>
