<svg xmlns="http://www.w3.org/2000/svg" width="63.969" height="18.992" viewBox="0 0 63.969 18.992">
  <g id="グループ_2935" data-name="グループ 2935" transform="translate(-3672 -8484.141)">
    <path id="パス_176" data-name="パス 176" d="M9.985,0,6.9,6.251l-6.9,1,4.992,4.866L3.814,18.992l6.171-3.245,6.171,3.245-1.18-6.871,4.994-4.866-6.9-1Z" transform="translate(3672 8484.141)" fill="#e5bf0f"/>
    <path id="パス_176-2" data-name="パス 176" d="M9.985,0,6.9,6.251l-6.9,1,4.992,4.866L3.814,18.992l6.171-3.245,6.171,3.245-1.18-6.871,4.994-4.866-6.9-1Z" transform="translate(3694 8484.141)" fill="#e5bf0f"/>
    <path id="パス_176-3" data-name="パス 176" d="M9.985,0,6.9,6.251l-6.9,1,4.992,4.866L3.814,18.992l6.171-3.245,6.171,3.245-1.18-6.871,4.994-4.866-6.9-1Z" transform="translate(3716 8484.141)" fill="#c3c3c3"/>
  </g>
</svg>
