<svg xmlns="http://www.w3.org/2000/svg" xmlns:xlink="http://www.w3.org/1999/xlink" width="66.969" height="18.992" viewBox="0 0 66.969 18.992">
  <defs>
    <clipPath id="clip-path">
      <rect width="66.969" height="18.992" fill="none"/>
    </clipPath>
  </defs>
  <g id="リピートグリッド_12" data-name="リピートグリッド 12" clip-path="url(#clip-path)">
    <g transform="translate(-644 -7052)">
      <path id="パス_176" data-name="パス 176" d="M9.985,0,6.9,6.251l-6.9,1,4.992,4.866L3.814,18.992l6.171-3.245,6.171,3.245-1.18-6.871,4.994-4.866-6.9-1Z" transform="translate(644 7052)" fill="#e5bf0f"/>
    </g>
    <g transform="translate(-622 -7052)">
      <path id="パス_176-2" data-name="パス 176" d="M9.985,0,6.9,6.251l-6.9,1,4.992,4.866L3.814,18.992l6.171-3.245,6.171,3.245-1.18-6.871,4.994-4.866-6.9-1Z" transform="translate(644 7052)" fill="#e5bf0f"/>
    </g>
    <g transform="translate(-600 -7052)">
      <path id="パス_176-3" data-name="パス 176" d="M9.985,0,6.9,6.251l-6.9,1,4.992,4.866L3.814,18.992l6.171-3.245,6.171,3.245-1.18-6.871,4.994-4.866-6.9-1Z" transform="translate(644 7052)" fill="#e5bf0f"/>
    </g>
    <g transform="translate(-578 -7052)">
      <path id="パス_176-4" data-name="パス 176" d="M9.985,0,6.9,6.251l-6.9,1,4.992,4.866L3.814,18.992l6.171-3.245,6.171,3.245-1.18-6.871,4.994-4.866-6.9-1Z" transform="translate(644 7052)" fill="#e5bf0f"/>
    </g>
  </g>
</svg>
